<?xml version="1.0" encoding="UTF-8" standalone="no"?>
<!DOCTYPE svg PUBLIC "-//W3C//DTD SVG 1.1//EN" "http://www.w3.org/Graphics/SVG/1.1/DTD/svg11.dtd">
<svg xmlns="http://www.w3.org/2000/svg">
<metadata/>
<defs>
<font id="exocet_blizzard_otheavy" horiz-adv-x="1392">
<font-face units-per-em="2048" ascent="1638" descent="-410"/>
<missing-glyph horiz-adv-x="835"/>
<glyph horiz-adv-x="2048"/>
<glyph horiz-adv-x="2048"/>
<glyph unicode="" horiz-adv-x="2048"/>
<glyph unicode=" " horiz-adv-x="835"/>
<glyph unicode="	" horiz-adv-x="835"/>
<glyph unicode=" " horiz-adv-x="835"/>
<glyph unicode="!" horiz-adv-x="835" d="M174 1059l203 203l203 -203l-170 -649l-33 -33l-33 33zM205 117l172 172l172 -172l-172 -172z"/>
<glyph unicode="&quot;" horiz-adv-x="1093" d="M164 1098l164 164l164 -164l-164 -361zM602 1098l164 164l164 -164l-164 -361z"/>
<glyph unicode="#" horiz-adv-x="1126" d="M158 496v118h159l31 201h-139v119h156l41 262h161l-41 -262h138l38 262h162l-41 -262h144v-119h-160l-29 -201h140v-118h-158l-39 -263h-162l41 263h-137l-41 -263h-162l39 263h-141zM479 614h137l29 201h-135z"/>
<glyph unicode="$" horiz-adv-x="1288" d="M281 272l237 97q8 4 39.5 20t48.5 23l15 6l6 -51q-5 -3 -11 -5q-36 -25 -36 -61q0 -34 26 -59t66 -25q42 0 74 29t32 71q0 45 -26.5 77t-87.5 65l-129 78q-109 65 -157 144t-48 189q0 125 72.5 219t211.5 121v168h172v-166q91 -18 162.5 -74t106.5 -141l16 -49l-215 -88 q-10 -4 -37.5 -18.5t-40.5 -20.5l-14 -4l-4 45q2 2 8 4q33 22 33 56q0 32 -24 55.5t-70 23.5q-43 0 -74 -25.5t-31 -68.5q0 -39 21 -70t77 -63l166 -100q99 -60 152 -138.5t53 -199.5q0 -71 -25 -133t-67.5 -105.5t-95.5 -73t-113 -42.5v-195h-172v193q-102 18 -182 79.5 t-117 157.5z"/>
<glyph unicode="%" horiz-adv-x="1673" d="M109 868q0 140 100.5 240t239.5 100q140 0 241 -100.5t101 -239.5t-101 -239.5t-241 -100.5q-139 0 -239.5 100t-100.5 240zM258 868q0 -47 25 -92l258 258q-45 25 -92 25q-78 0 -134.5 -56.5t-56.5 -134.5zM356 702q40 -24 93 -24q78 0 134 56t56 134q0 45 -23 93z M401 0l729 1196h142l-729 -1196h-142zM883 328q0 140 100.5 240t241.5 100q139 0 239.5 -100t100.5 -240t-100.5 -240t-239.5 -100q-141 0 -241.5 100t-100.5 240zM1034 328q0 -47 25 -92l256 258q-41 24 -90 24q-79 0 -135 -56t-56 -134zM1133 162q42 -25 92 -25 q78 0 133 56.5t55 134.5q0 46 -22 92z"/>
<glyph unicode="&amp;" horiz-adv-x="1523" d="M240 356q0 97 46 182t124 138q-47 44 -75 105t-28 128q0 132 94 225t226 93q131 0 224 -93t93 -225q0 -134 -96 -227l123 -123l102 100q40 41 42.5 67.5t-25.5 57.5l-13 13l27 43l14 -15q12 -12 35.5 -38t30.5 -33l184 -185q4 -3 31.5 -27t42.5 -38l12 -15l-43 -26 l-10 10q-32 29 -59 27t-68 -43l-100 -101l212 -213q63 -63 85 -79t49 -19h16l10 -49h-18q-18 0 -52 2t-46 2h-279l-168 168l-96 -98q-39 -36 -106.5 -68.5t-153.5 -32.5q-160 0 -273.5 113.5t-113.5 273.5zM504 356q0 -51 36 -87t87 -36q49 0 90 41l82 82l-80 80 q-40 43 -92 43q-51 0 -87 -36.5t-36 -86.5zM541 909q0 -36 25 -61t61 -25q35 0 59.5 25.5t24.5 60.5t-24.5 60.5t-59.5 25.5q-36 0 -61 -25t-25 -61z"/>
<glyph unicode="'" horiz-adv-x="655" d="M147 1081l181 181l180 -181l-180 -360z"/>
<glyph unicode="(" horiz-adv-x="983" d="M393 90v997l326 361l49 -59l-162 -246v-1106l162 -246l-49 -61z"/>
<glyph unicode=")" horiz-adv-x="983" d="M215 -209l162 246v1106l-162 246l49 59l326 -361v-997l-326 -360z"/>
<glyph unicode="*" horiz-adv-x="933" d="M168 715l37 145l57 -14l74 43l-74 43l-57 -17l-37 146l145 39l15 -56l73 -40v81l-41 41l107 107l106 -107l-41 -41v-84l74 43l12 56l148 -39l-39 -146l-55 17l-76 -43l76 -43l55 14l39 -145l-148 -39l-12 57l-74 41v-84l41 -41l-106 -106l-107 106l41 41v84l-73 -41 l-15 -57z"/>
<glyph unicode="+" horiz-adv-x="1316" d="M266 412v18q0 18 2 52t2 46v195q0 11 -2 46t-2 52v19l49 -13v-14q5 -45 23.5 -61.5t75.5 -16.5h131v131q0 58 -15.5 77t-60.5 24h-14l-13 49h19q17 0 52 -2t46 -2h195q12 0 46 2t52 2h18l-12 -49h-14q-45 -5 -61.5 -24t-16.5 -77v-131h133q57 0 76 16.5t24 61.5v14l50 13 v-19q0 -17 -2.5 -52t-2.5 -46v-195q0 -12 2.5 -46t2.5 -52v-18l-50 10v16q-5 45 -23.5 60.5t-76.5 15.5h-133v-133q0 -57 16 -75t62 -23h14l12 -50h-18q-18 0 -52 2.5t-46 2.5h-195q-11 0 -45.5 -2.5t-52.5 -2.5h-19l13 50h14q45 5 60.5 23t15.5 75v133h-131 q-58 0 -76 -15.5t-23 -60.5v-16z"/>
<glyph unicode="," horiz-adv-x="655" d="M131 141l197 197l196 -197l-323 -323l-58 57l127 127z"/>
<glyph unicode="-" horiz-adv-x="1124" d="M279 412v18q0 18 2 52t2 46v195q0 11 -2 46t-2 52v19l49 -13v-14q5 -45 24 -61.5t76 -16.5h268q58 0 77 16.5t24 61.5v14l49 13v-19q0 -17 -3 -52t-3 -46v-195q0 -12 3 -46t3 -52v-18l-49 10v16q-5 45 -24 60.5t-77 15.5h-268q-58 0 -76.5 -15.5t-23.5 -60.5v-16z"/>
<glyph unicode="." horiz-adv-x="655" d="M131 141l197 197l196 -197l-196 -196z"/>
<glyph unicode="/" horiz-adv-x="1011" d="M55 -229l713 1527l143 54l52 -144l-713 -1523l-141 -56z"/>
<glyph unicode="0" horiz-adv-x="1716" d="M229 598q0 171 84.5 316t229.5 229t315 84q128 0 244.5 -49.5t201 -134t134 -201t49.5 -244.5t-49.5 -244.5t-134 -201t-201 -134t-244.5 -49.5q-170 0 -315 84t-229.5 229t-84.5 316zM494 598q0 -94 45 -176l495 496q-82 45 -176 45q-151 0 -257.5 -107t-106.5 -258z M682 279q81 -46 176 -46q152 0 259.5 107t107.5 258q0 94 -45 176z"/>
<glyph unicode="1" horiz-adv-x="1007" d="M258 -4l10 49h15q45 5 61 23t16 75v910q0 57 -16 75t-61 23h-15l-10 49h16q17 0 52 -2t47 -2h262q11 0 46 2t52 2h17l-11 -49h-14q-46 -5 -62 -23t-16 -75v-910q0 -57 16 -75t62 -23h14l11 -49h-17q-17 0 -52 2t-46 2h-262q-12 0 -47 -2t-52 -2h-16z"/>
<glyph unicode="2" horiz-adv-x="1232" d="M229 0v213l482 498q47 47 47 120q0 56 -38 94t-93 38q-53 0 -92 -31t-39 -70t20 -59.5t47 -24.5h10l13 -49h-15q-9 0 -47 2t-51 2h-240q-4 86 -4 98q0 164 116 280t282 116q164 0 279.5 -116t115.5 -280q0 -160 -123 -286l-268 -279h239q58 0 76.5 15.5t24.5 60.5v14 l49 13v-19q0 -18 -3 -52t-3 -46v-252h-785z"/>
<glyph unicode="3" horiz-adv-x="1232" d="M229 270l238 97q8 4 39.5 20t48.5 23l14 6l6 -51q-4 -3 -10 -5q-37 -26 -37 -61q0 -32 29 -54t70 -22q55 0 93 42.5t38 99.5q0 54 -33.5 94.5t-87.5 54.5q-16 4 -67.5 10.5t-95.5 10.5l-44 4l223 391h-211q-58 0 -76.5 -15.5t-23.5 -60.5v-14l-49 -13v19q0 18 3 52t3 46 v252h682v-168l-193 -301q105 -47 169.5 -144t64.5 -218q0 -164 -115.5 -280t-279.5 -116q-127 0 -230.5 65.5t-148.5 180.5z"/>
<glyph unicode="4" horiz-adv-x="1236" d="M8 199l869 1073v-836h38q58 0 77 15.5t24 60.5v16l49 11v-19q0 -18 -2 -52t-2 -46v-211q0 -11 2 -46t2 -52v-19l-49 12v15q-5 45 -24 61.5t-77 16.5h-38v-56q0 -57 16 -75t61 -23h15l10 -49h-16q-17 0 -52 2t-47 2h-246q-12 0 -46 -2t-52 -2h-16l10 49h14q46 5 62 23 t16 75v56h-598zM471 436h135v168z"/>
<glyph unicode="5" horiz-adv-x="1232" d="M229 270l238 97q8 4 39.5 20t48.5 23l14 6l6 -51q-4 -3 -10 -5q-37 -26 -37 -61q0 -32 29 -54t70 -22q52 0 91.5 40.5t39.5 101.5q0 76 -51.5 118.5t-135.5 42.5h-245l92 670h514v-252q0 -12 3 -46t3 -52v-19l-49 13v14q-6 45 -24.5 60.5t-76.5 15.5h-178l-24 -170 q12 2 41 2q164 0 279.5 -115.5t115.5 -281.5q0 -164 -115.5 -280t-279.5 -116q-127 0 -230.5 65.5t-148.5 180.5z"/>
<glyph unicode="6" horiz-adv-x="1232" d="M229 356q0 54 12.5 98t57.5 142l268 604l158 2q17 0 111 3t110 3h17l-11 -49h-14q-40 -6 -71 -34.5t-48 -65.5l-143 -322q139 -22 233.5 -130t94.5 -251q0 -160 -114 -273.5t-274 -113.5t-273.5 113.5t-113.5 273.5zM494 356q0 -51 35.5 -87t86.5 -36t87 36t36 87 q0 50 -36 86.5t-87 36.5t-86.5 -36.5t-35.5 -86.5z"/>
<glyph unicode="7" horiz-adv-x="1298" d="M207 827v19q0 18 2 52t2 46v252h887l-424 -1102q-15 -36 -15 -58.5t11.5 -35t38.5 -27.5l14 -4l-6 -51l-17 6q-18 8 -49.5 22.5t-40.5 18.5l-245 94q-13 4 -46.5 14.5t-46.5 14.5l-16 6l27 43l16 -4q40 -13 63 -0.5t44 66.5l280 731h-330q-59 0 -77 -15.5t-23 -60.5v-14z "/>
<glyph unicode="8" horiz-adv-x="1251" d="M240 356q0 97 46 182t124 138q-47 44 -75 105t-28 128q0 132 94 225t226 93q131 0 224 -93t93 -225q0 -68 -27 -129t-75 -104q79 -53 124.5 -138t45.5 -182q0 -160 -112.5 -273.5t-272.5 -113.5t-273.5 113.5t-113.5 273.5zM504 356q0 -51 36 -87t87 -36q50 0 86.5 36 t36.5 87q0 50 -37 86.5t-86 36.5q-51 0 -87 -36.5t-36 -86.5zM541 909q0 -36 25 -61t61 -25q35 0 59.5 25.5t24.5 60.5t-24.5 60.5t-59.5 25.5q-36 0 -61 -25t-25 -61z"/>
<glyph unicode="9" horiz-adv-x="1232" d="M233 840q0 160 112.5 273.5t272.5 113.5t274 -113.5t114 -273.5q0 -54 -12.5 -98t-55.5 -142l-270 -604l-158 -2q-16 0 -109 -3t-110 -3h-19l11 49h16q40 6 70 34t47 66l145 322q-141 22 -234.5 129.5t-93.5 251.5zM496 840q0 -50 36.5 -86.5t85.5 -36.5q51 0 87 36.5 t36 86.5q0 51 -36 87t-87 36q-50 0 -86 -36t-36 -87z"/>
<glyph unicode=":" horiz-adv-x="655" d="M131 141l197 197l196 -197l-196 -196zM131 698l197 197l196 -197l-196 -196z"/>
<glyph unicode=";" horiz-adv-x="655" d="M131 141l197 197l196 -197l-323 -323l-58 57l127 127zM131 698l197 197l196 -197l-196 -196z"/>
<glyph unicode="&lt;" horiz-adv-x="901" d="M131 598l375 377q41 40 43 66.5t-27 58.5l-10 10l20 35l13 -10q14 -14 36 -40.5t29 -33.5l103 -103q7 -7 33 -30t38 -35l15 -12l-37 -21q-6 6 -10 12q-32 27 -58 25t-67 -41l-256 -258l256 -256q41 -41 67 -42.5t58 26.5l10 12l37 -23l-15 -10q-50 -46 -71 -67l-103 -101 q-58 -65 -65 -74l-13 -12l-20 35q6 8 10 12q29 32 27 58t-43 67z"/>
<glyph unicode="=" horiz-adv-x="1124" d="M262 279v18q0 17 2 52t2 46v166h590v-166q0 -12 3 -46.5t3 -51.5v-18l-28 12v14q-5 45 -23.5 60.5t-77.5 15.5h-344q-57 0 -75 -15.5t-23 -60.5v-14zM262 954v19l29 -10v-17q5 -45 23 -60.5t75 -15.5h344q59 0 77.5 15.5t23.5 60.5v17l28 10v-19q0 -17 -3 -51.5t-3 -46.5 v-166h-590v166q0 12 -2 46t-2 52z"/>
<glyph unicode="&gt;" horiz-adv-x="901" d="M139 315l37 23q4 -8 8 -12q33 -28 59.5 -26.5t67.5 42.5l256 256l-256 258q-40 40 -67 41.5t-60 -25.5l-8 -12l-37 21l13 12q14 14 40 36t33 29l101 103q9 8 32 35t35 39l13 10l18 -35q-4 -6 -10 -10q-28 -32 -26.5 -58t42.5 -67l377 -377l-377 -375q-41 -41 -42.5 -67 t26.5 -58l10 -12l-18 -35l-13 12q-28 35 -67 74l-101 101q-8 8 -20 19t-28 25.5t-25 22.5z"/>
<glyph unicode="?" horiz-adv-x="1218" d="M209 1133q123 86 303 86q190 0 298 -97.5t108 -279.5q0 -106 -69.5 -193t-156.5 -137l-117 -78l3 -37l-95 -82l-98 82v148l154 131q88 72 88 162q0 51 -42.5 93t-125.5 42q-49 0 -88.5 -16.5t-62.5 -43.5t-34 -44t-18 -35l-45 10q0 61 -1 155.5t-1 133.5zM311 117 l172 172l172 -172l-172 -172z"/>
<glyph unicode="@" horiz-adv-x="1593" d="M229 600q0 170 84.5 314.5t229 228.5t313.5 84q245 -8 409.5 -160.5t164.5 -374.5q0 -191 -108.5 -319.5t-252.5 -128.5q-41 0 -78 12q-66 -29 -139 -29q-155 0 -264 110t-109 265q0 154 109 263.5t264 109.5q82 0 152 -31l122 49v-604q81 19 133 102.5t52 192.5 q0 186 -133.5 302.5t-325.5 113.5q-134 0 -248.5 -67t-182 -181.5t-67.5 -249.5q0 -134 67 -249t182 -183t249 -68q201 0 354 131l82 21q9 0 39 2t53 2h56l-33 -74h-25q-52 -6 -98 -49q-185 -164 -424 -164q-169 0 -313.5 84.5t-229 229.5t-84.5 315zM668 600q0 -78 55 -134 t133 -56q36 0 54 5t40 23v322q-23 19 -41.5 25t-52.5 6q-78 0 -133 -56t-55 -135z"/>
<glyph unicode="A" horiz-adv-x="1683" d="M94 82l33 39q8 -4 12 -8q24 -11 44 -11q11 0 19 4q26 10 52 60l586 1100l587 -1100q27 -51 51 -60q9 -3 19 -3q19 0 45 10l12 8l33 -39l-16 -8q-12 -6 -44.5 -20.5t-43.5 -20.5l-232 -123q-6 -4 -22 -14l-32 -20t-30 -17l-16 -9l-12 50l12 6q38 26 43 49q1 5 1 9 q0 23 -21 67l-76 153h-514l-76 -153q-21 -44 -21 -68q1 -4 1 -8q4 -24 40 -49l15 -6l-15 -50l-16 9q-17 9 -47 28.5t-35 22.5l-231 123l-88 41zM698 418h285l-143 289z"/>
<glyph unicode="B" horiz-adv-x="1261" d="M225 -4l11 49h14q46 5 62 23t16 75v910q0 57 -16 75t-62 23h-14l-11 49h17q18 0 52 -2t46 -2h262q14 0 59.5 2t61.5 2q117 0 199 -81.5t82 -198.5q0 -76 -38.5 -141t-101.5 -103q98 -40 158.5 -129.5t60.5 -198.5q0 -147 -102.5 -249.5t-249.5 -102.5q-18 0 -66 2t-63 2 h-262q-12 0 -46 -2t-52 -2h-17zM614 221h29q63 0 107.5 44.5t44.5 107.5q0 62 -44.5 105.5t-107.5 43.5h-29v-301zM614 764h33q51 0 87 35t36 86t-36 87t-87 36h-33v-244z"/>
<glyph unicode="C" horiz-adv-x="1458" d="M229 598q0 171 84.5 316t229.5 229t315 84q211 0 385 -131q0 -39 3 -177t3 -194h-49q-17 88 -113.5 163t-228.5 75q-151 0 -257.5 -107t-106.5 -258t106.5 -258t257.5 -107q135 0 231.5 71t110.5 165h49l-6 -367q-165 -133 -385 -133q-170 0 -315 84t-229.5 229 t-84.5 316z"/>
<glyph unicode="D" horiz-adv-x="1544" d="M225 -4l11 49h14q46 5 62 23t16 75v910q0 57 -16 75t-62 23h-14l-11 49h17q18 0 52 -2t46 -2h139q142 8 230 8q123 0 235 -48t193.5 -129.5t129.5 -193.5t48 -235t-48 -235t-129.5 -193.5t-193.5 -129.5t-235 -48q-40 0 -89.5 2t-78.5 4l-29 2h-172q-12 0 -46 -2t-52 -2 h-17zM614 236h70q149 0 254.5 105.5t105.5 256.5t-105.5 257t-254.5 106h-70v-725z"/>
<glyph unicode="E" d="M229 373v16q0 17 2 52t2 46v222q0 11 -2 46t-2 52v18l50 -10v-16q5 -43 22.5 -59t71.5 -17v473h602q57 0 76 16.5t24 61.5v14l49 10v-16q0 -18 -3 -52t-3 -46v-238q0 -8 2 -32.5t2 -39.5l-53 15q-7 25 -27.5 34t-66.5 9h-316v-209h316q54 0 74.5 15.5t25.5 43.5v17l49 10 v-18q0 -17 -3 -52t-3 -47v-205q0 -11 3 -37t3 -44v-17l-49 10q2 9 0 15q-5 33 -24.5 47t-75.5 14h-316v-211h316q46 0 66.5 9t27.5 34l53 15q0 -15 -2 -39.5t-2 -32.5v-238q0 -11 3 -45.5t3 -52.5v-16l-49 10v14q-5 45 -24 61.5t-76 16.5h-373l-229 -207v682 q-54 -1 -71.5 -17t-22.5 -61v-14z"/>
<glyph unicode="F" horiz-adv-x="1310" d="M229 373v16q0 17 2 52t2 46v222q0 11 -2 46t-2 52v18l50 -10v-16q5 -43 22.5 -59t71.5 -17v473h602q57 0 76 16.5t24 61.5v14l49 10v-16q0 -18 -3 -52t-3 -46v-238q0 -8 2 -32.5t2 -39.5l-53 15q-7 25 -27.5 34t-66.5 9h-316v-209h316q54 0 74.5 15.5t25.5 43.5v17l49 10 v-18q0 -17 -3 -52t-3 -47v-205q0 -11 3 -37t3 -44v-17l-49 10q2 9 0 15q-5 33 -24.5 47t-75.5 14h-316v-397l-286 -285v682q-54 -1 -71.5 -17t-22.5 -61v-14z"/>
<glyph unicode="G" horiz-adv-x="1474" d="M229 598q0 171 84.5 316t229.5 229t315 84q193 0 352 -109q0 -49 3.5 -172.5t3.5 -165.5h-50q-5 18 -25.5 45.5t-56.5 60t-96.5 55t-130.5 22.5q-151 0 -257.5 -107t-106.5 -258t106.5 -258t257.5 -107q72 0 148 29v203h-23q-58 0 -76.5 -15.5t-23.5 -60.5v-16l-49 -11 v19q0 17 3 52t3 46v189h426v-549q-181 -150 -408 -150q-170 0 -315 84t-229.5 229t-84.5 316z"/>
<glyph unicode="H" horiz-adv-x="1525" d="M225 -4l11 49h14q46 5 62 23t16 75v910q0 57 -16 75t-62 23h-14l-11 49h17q18 0 52 -2t46 -2h262q12 0 46 2t52 2h17l-10 -49h-15q-46 -5 -62 -23t-16 -75v-322h297v322q0 57 -16 75t-61 23h-15l-12 49h18q17 0 52 -2t47 -2h260q12 0 46 2t52 2h18l-10 -49h-16 q-45 -5 -60.5 -23t-15.5 -75v-910q0 -57 15.5 -75t60.5 -23h16l10 -49h-18q-18 0 -52 2t-46 2h-260q-12 0 -47 -2t-52 -2h-18l12 49h15q45 5 61 23t16 75v369h-297v-369q0 -57 16 -75t62 -23h15l10 -49h-17q-18 0 -52 2t-46 2h-262q-12 0 -46 -2t-52 -2h-17z"/>
<glyph unicode="I" horiz-adv-x="1007" d="M258 -4l10 49h15q45 5 61 23t16 75v910q0 57 -16 75t-61 23h-15l-10 49h16q17 0 52 -2t47 -2h262q11 0 46 2t52 2h17l-11 -49h-14q-46 -5 -62 -23t-16 -75v-910q0 -57 16 -75t62 -23h14l11 -49h-17q-17 0 -52 2t-46 2h-262q-12 0 -47 -2t-52 -2h-16z"/>
<glyph unicode="J" horiz-adv-x="1007" d="M258 1200h16q17 0 52 -2t47 -2h262q11 0 46 2t52 2h17l-11 -49h-14q-46 -5 -62 -23t-16 -75v-1057l-287 -385v1442q0 57 -16 75t-61 23h-15z"/>
<glyph unicode="K" horiz-adv-x="1484" d="M225 -4l11 49h14q46 5 62 23t16 75v910q0 57 -16 75t-62 23h-14l-11 49h17q18 0 52 -2t46 -2h262q12 0 46 2t52 2h17l-10 -49h-15q-46 -5 -62 -23t-16 -75v-256l400 401h250q12 0 46 2t52 2h18l-12 -49q-8 2 -14 0q-68 -8 -158 -98l-408 -404l504 -508q67 -65 87.5 -80 t47.5 -18h15l12 -49h-18q-18 0 -53 2t-46 2h-284l-439 455v-312q0 -57 16 -75t62 -23h15l10 -49h-17q-18 0 -52 2t-46 2h-262q-12 0 -46 -2t-52 -2h-17z"/>
<glyph unicode="L" horiz-adv-x="1228" d="M225 1200h17q18 0 52 -2t46 -2h262q12 0 46 2t52 2h17l-10 -49h-15q-46 -5 -62 -23t-16 -75v-766h318q57 0 76 16.5t24 61.5v14l49 10v-16q0 -17 -2 -52t-2 -47v-262q0 -12 2 -46t2 -52v-16l-49 10v14q-5 45 -24 61.5t-76 16.5h-375l-229 -207v1260q0 57 -16 75t-62 23 h-14z"/>
<glyph unicode="M" horiz-adv-x="2021" d="M225 -4l11 49h14q46 5 62 23t16 75v910q0 57 -16 75t-62 23h-14l-11 49h17q18 0 52 -2t46 -2h1341q11 0 46 2t53 2h18l-12 -49h-14q-46 -5 -62 -23t-16 -75v-910q0 -57 16 -75t62 -23h14l12 -49h-18q-18 0 -53 2t-46 2h-256q-11 0 -46 -2t-52 -2h-18l12 49h14q46 5 62 23 t16 75v772h-262v-772q0 -57 16 -75t62 -23h14l12 -49h-18q-17 0 -52 2t-46 2h-256q-11 0 -46 -2t-53 -2h-18l12 49h15q45 5 61 23t16 75v772h-260v-772q0 -57 15.5 -75t60.5 -23h14l13 -49h-19q-18 0 -52 2t-46 2h-256q-12 0 -46 -2t-52 -2h-17z"/>
<glyph unicode="N" horiz-adv-x="1607" d="M225 -4l11 49h14q46 5 62 23t16 75v910q0 57 -16 75t-62 23h-14l-11 49h17q18 0 52 -2t46 -2h229q11 0 46 2t53 2h16l-10 -49h-15q-45 -5 -61 -23t-16 -75v-9l444 -444v453q0 57 -16 75t-62 23h-14l-12 49h18q18 0 52 -2t46 -2h228q12 0 46 2t52 2h18l-10 -49h-16 q-45 -5 -60.5 -23t-15.5 -75v-910q0 -57 15.5 -75t60.5 -23h16l10 -49h-18q-18 0 -52 2t-46 2h-228q-12 0 -46 -2t-52 -2h-18l12 49h14q46 5 62 23t16 75v11l-444 446v-457q0 -57 16 -75t61 -23h15l10 -49h-16q-18 0 -53 2t-46 2h-229q-12 0 -46 -2t-52 -2h-17z"/>
<glyph unicode="O" horiz-adv-x="1716" d="M229 598q0 171 84.5 316t229.5 229t315 84q128 0 244.5 -49.5t201 -134t134 -201t49.5 -244.5t-49.5 -244.5t-134 -201t-201 -134t-244.5 -49.5q-170 0 -315 84t-229.5 229t-84.5 316zM494 506q26 -100 99.5 -174t172.5 -99v273h-272zM494 690h272v273 q-100 -25 -173.5 -99t-98.5 -174zM950 233q101 25 175.5 99t99.5 174h-275v-273zM950 690h275q-26 100 -100 174t-175 99v-273z"/>
<glyph unicode="P" horiz-adv-x="1245" d="M225 -4l11 49h14q46 5 62 23t16 75v910q0 57 -16 75t-62 23h-14l-11 49h17q18 0 52 -2t46 -2h137q5 0 41.5 1.5t93.5 3t113 1.5q152 0 259.5 -106.5t107.5 -257.5q0 -152 -107.5 -259.5t-259.5 -107.5h-111v-328q0 -57 16 -75t62 -23h15l10 -49h-17q-18 0 -52 2t-46 2 h-262q-12 0 -46 -2t-52 -2h-17zM614 684h62q66 0 112 47t46 113t-46 113t-112 47h-62v-320z"/>
<glyph unicode="Q" horiz-adv-x="1716" d="M229 598q0 171 84.5 316t229.5 229t315 84q128 0 244.5 -49.5t201 -134t134 -201t49.5 -244.5q0 -223 -140 -395.5t-352 -218.5v-93q0 -57 15.5 -75.5t60.5 -24.5h14l13 -49h-19q-17 0 -52 3t-46 3h-246q-11 0 -46 -3t-52 -3h-19l13 49h14q46 6 62 24.5t16 75.5v93 q-214 46 -354 218.5t-140 395.5zM494 598q0 -114 63 -206t166 -134v131q0 57 -16 75t-62 23h-14l-13 50h19q17 0 52 -2.5t46 -2.5h246q11 0 46 2.5t52 2.5h19l-13 -50h-14q-45 -5 -60.5 -23t-15.5 -75v-131q102 42 166 134.5t64 205.5q0 151 -107.5 258t-259.5 107 q-151 0 -257.5 -107t-106.5 -258z"/>
<glyph unicode="R" horiz-adv-x="1458" d="M225 -4l11 49h14q46 5 62 23t16 75v910q0 57 -16 75t-62 23h-14l-11 49h17q18 0 52 -2t46 -2h262q12 0 62 2t65 2q151 0 257 -105.5t106 -254.5q0 -89 -39 -164.5t-107 -126.5l404 -406q67 -65 87.5 -80t47.5 -18h14l12 -49h-18q-17 0 -52 2t-46 2h-281l-475 475h-25 v-332q0 -57 16 -75t62 -23h15l10 -49h-17q-18 0 -52 2t-46 2h-262q-12 0 -46 -2t-52 -2h-17zM614 684h70q63 0 109.5 46t46.5 110q0 63 -46.5 109t-109.5 46h-70v-311z"/>
<glyph unicode="S" horiz-adv-x="1245" d="M238 272l215 90q8 3 43 21t53 25l20 8l15 -49q-47 -19 -47 -66q0 -34 26 -59t66 -25q42 0 74 29t32 71q0 45 -26.5 78t-87.5 66l-129 76q-109 65 -157 144t-48 189q0 94 40.5 171.5t129 127.5t213.5 50q131 0 224 -72t130 -199l-207 -88q-10 -4 -37.5 -18.5t-40.5 -20.5 l-14 -4l-8 45q23 14 32 25.5t9 34.5q0 32 -26 55.5t-73 23.5q-41 0 -70.5 -28.5t-29.5 -73.5q0 -38 20.5 -66t77.5 -61l166 -98q99 -60 152 -138.5t53 -199.5q0 -85 -35.5 -156t-92.5 -115.5t-126 -69t-139 -24.5q-147 0 -251 80.5t-146 220.5z"/>
<glyph unicode="T" horiz-adv-x="1540" d="M168 807v18q0 17 2 52t2 47v260q0 12 -2 46t-2 52v16l49 -10v-14q5 -46 23 -62t75 -16h910q59 0 77 16t23 62v14l49 10v-16q0 -18 -2 -52t-2 -46v-260q0 -12 2 -47t2 -52v-18l-49 12v15q-5 45 -23 61t-77 16h-312v-768q0 -57 16 -75t62 -23h15l12 -49h-19q-17 0 -52 2 t-46 2h-260q-11 0 -46 -2t-52 -2h-19l13 49h14q45 5 60.5 23t15.5 75v768h-312q-57 0 -75 -16t-23 -61v-15z"/>
<glyph unicode="U" horiz-adv-x="1890" d="M213 1200h18q17 0 52 -2t47 -2h262q12 0 46 2t52 2h19l-13 -49h-14q-46 -5 -62 -23t-16 -75v-451q0 -141 100.5 -241.5t241.5 -100.5t240.5 100.5t99.5 241.5v451q0 57 -16 75t-62 23h-14l-10 49h16q18 0 52 -2t46 -2h263q11 0 46 2t52 2h18l-10 -49h-16 q-45 -5 -60.5 -23t-15.5 -75v-455q0 -171 -84.5 -316t-229.5 -229t-315 -84q-128 0 -245 49.5t-201.5 134t-134.5 201t-50 244.5v455q0 58 -15 75.5t-60 22.5h-15z"/>
<glyph unicode="V" horiz-adv-x="1628" d="M98 1200h19q17 0 52 -2t46 -2h309q12 0 47 2t52 2h18l-12 -49h-15q-44 -5 -60 -31q-6 -10 -7 -23q0 -20 14 -48l254 -496l254 496q12 26 12 46q-1 15 -7 25q-16 26 -60 31h-15l-12 49h19q18 0 52 -2t46 -2h309q11 0 46 2t52 2h19l-10 -49h-17q-40 -4 -56 -19.5t-44 -70.5 l-588 -1120l-590 1120q-27 55 -42.5 70.5t-57.5 19.5h-14z"/>
<glyph unicode="W" horiz-adv-x="2203" d="M98 1200h19q17 0 52 -2t46 -2h293q12 0 46 2t52 2h19l-13 -49h-14q-44 -5 -60 -31q-6 -11 -7 -25q0 -20 14 -46l270 -529l133 262l-147 279q-28 55 -44 70.5t-57 19.5h-16l-10 49h18q18 0 53 -2t46 -2h253l58 -113l57 113h254q11 0 46 2t52 2h19l-10 -49h-17 q-40 -4 -56 -19.5t-44 -70.5l-148 -279l134 -262l270 529q14 27 14 48q-1 13 -7 23q-16 26 -60 31h-15l-12 49h18q17 0 52 -2t47 -2h293q11 0 46 2t52 2h18l-12 -49h-14q-42 -4 -58.5 -20t-42.5 -70l-589 -1120l-287 546l-287 -546l-590 1120q-14 28 -18.5 36t-14 22.5 t-17.5 18t-20 7.5t-30 6h-14z"/>
<glyph unicode="X" horiz-adv-x="1748" d="M133 199l43 26q4 -6 8 -10q32 -27 56 -27h4q26 2 65 43l359 357l-359 356q-39 41 -65 43h-4q-25 0 -56 -26l-8 -11l-43 27l10 12q10 10 37.5 33.5t36.5 32.5l184 186q9 8 32 34t36 38l10 12l29 -43q-6 -6 -12 -8q-26 -32 -26 -56q0 -27 42 -71l358 -356l357 356 q43 45 43 72q0 24 -27 55l-10 8l27 43l12 -12q13 -12 36 -38t31 -34l183 -186q63 -56 73 -66l13 -12l-43 -27q-5 7 -11 11q-30 26 -54 26h-4q-26 -2 -66 -43l-357 -356l357 -355q40 -41 66 -43h3q24 0 53 27l13 8l43 -24l-15 -15q-1 -1 -73 -65l-183 -184q-9 -8 -31.5 -34.5 t-33.5 -37.5l-15 -15l-24 44l8 12q27 29 27 53q0 27 -43 70l-355 356l-358 -356q-42 -43 -42 -71q0 -25 26 -54l12 -13l-29 -43l-10 15q-14 13 -38 40.5t-30 33.5l-184 182q-9 10 -37 33.5t-37 31.5z"/>
<glyph unicode="Y" horiz-adv-x="1650" d="M74 977l12 12q2 2 74 66l182 186q9 8 32 34t36 38l12 12l27 -43q-7 -6 -11 -8q-27 -31 -27 -56q0 -27 44 -71l356 -356l356 356q44 44 44 71q0 25 -27 56l-10 8l26 43l12 -12q13 -12 36 -38t32 -34l182 -186q72 -64 74 -66l12 -12l-43 -27q-4 7 -10 11q-30 26 -55 26h-3 q-26 -2 -65 -43l-418 -416v-385q0 -57 16 -75t62 -23h15l12 -49h-19q-18 0 -52 2t-46 2h-260q-12 0 -46 -2t-52 -2h-19l13 49h14q45 5 60.5 23t15.5 75v385l-418 416q-39 41 -65 43h-3q-25 0 -55 -26l-10 -11z"/>
<glyph unicode="Z" d="M213 0l520 930h-348q-58 0 -76.5 -15.5t-23.5 -60.5v-14l-49 -13v19q0 18 3 52t3 46v240q0 12 -3 46t-3 52v16l49 -10v-14q5 -45 24 -61.5t76 -16.5h823l-510 -922h330q59 0 77 16t23 62v15l50 12v-19q0 -18 -2 -52t-2 -46v-250q0 -12 2 -46t2 -52v-16l-50 10v14 q-5 46 -23 62t-77 16h-815z"/>
<glyph unicode="[" horiz-adv-x="983" d="M393 -221v1620h375v-76h-162v-1466h162v-78h-375z"/>
<glyph unicode="\" horiz-adv-x="1011" d="M53 1208l51 144l144 -54l713 -1527l-54 -142l-141 56z"/>
<glyph unicode="]" horiz-adv-x="983" d="M215 -143h162v1466h-162v76h375v-1620h-375v78z"/>
<glyph unicode="^" horiz-adv-x="978" d="M266 987l183 191h69l182 -191h-90l-127 90l-127 -90h-90z"/>
<glyph unicode="_" horiz-adv-x="894" d="M-8 -287h909v-67h-909v67z"/>
<glyph unicode="`" horiz-adv-x="868" d="M172 1583h340l182 -190h-174z"/>
<glyph unicode="a" horiz-adv-x="1683" d="M94 82l33 39q8 -4 12 -8q24 -11 44 -11q11 0 19 4q26 10 52 60l586 1100l587 -1100q27 -51 51 -60q9 -3 19 -3q19 0 45 10l12 8l33 -39l-16 -8q-12 -6 -44.5 -20.5t-43.5 -20.5l-232 -123q-6 -4 -22 -14l-32 -20t-30 -17l-16 -9l-12 50l12 6q38 26 43 49q1 5 1 9 q0 23 -21 67l-76 153h-514l-76 -153q-21 -44 -21 -68q1 -4 1 -8q4 -24 40 -49l15 -6l-15 -50l-16 9q-17 9 -47 28.5t-35 22.5l-231 123l-88 41zM698 418h285l-143 289z"/>
<glyph unicode="b" horiz-adv-x="1261" d="M225 -4l11 49h14q46 5 62 23t16 75v910q0 57 -16 75t-62 23h-14l-11 49h17q18 0 52 -2t46 -2h262q14 0 59.5 2t61.5 2q117 0 199 -81.5t82 -198.5q0 -76 -38.5 -141t-101.5 -103q98 -40 158.5 -129.5t60.5 -198.5q0 -147 -102.5 -249.5t-249.5 -102.5q-18 0 -66 2t-63 2 h-262q-12 0 -46 -2t-52 -2h-17zM614 221h29q63 0 107.5 44.5t44.5 107.5q0 62 -44.5 105.5t-107.5 43.5h-29v-301zM614 764h33q51 0 87 35t36 86t-36 87t-87 36h-33v-244z"/>
<glyph unicode="c" horiz-adv-x="1458" d="M229 598q0 171 84.5 316t229.5 229t315 84q211 0 385 -131q0 -39 3 -177t3 -194h-49q-17 88 -113.5 163t-228.5 75q-151 0 -257.5 -107t-106.5 -258t106.5 -258t257.5 -107q135 0 231.5 71t110.5 165h49l-6 -367q-165 -133 -385 -133q-170 0 -315 84t-229.5 229 t-84.5 316z"/>
<glyph unicode="d" horiz-adv-x="1544" d="M225 -4l11 49h14q46 5 62 23t16 75v910q0 57 -16 75t-62 23h-14l-11 49h17q18 0 52 -2t46 -2h139q142 8 230 8q123 0 235 -48t193.5 -129.5t129.5 -193.5t48 -235t-48 -235t-129.5 -193.5t-193.5 -129.5t-235 -48q-40 0 -89.5 2t-78.5 4l-29 2h-172q-12 0 -46 -2t-52 -2 h-17zM614 236h70q149 0 254.5 105.5t105.5 256.5t-105.5 257t-254.5 106h-70v-725z"/>
<glyph unicode="e" d="M229 373v16q0 17 2 52t2 46v222q0 11 -2 46t-2 52v18l50 -10v-16q5 -43 22.5 -59t71.5 -17v473h602q57 0 76 16.5t24 61.5v14l49 10v-16q0 -18 -3 -52t-3 -46v-238q0 -8 2 -32.5t2 -39.5l-53 15q-7 25 -27.5 34t-66.5 9h-316v-209h316q54 0 74.5 15.5t25.5 43.5v17l49 10 v-18q0 -17 -3 -52t-3 -47v-205q0 -11 3 -37t3 -44v-17l-49 10q2 9 0 15q-5 33 -24.5 47t-75.5 14h-316v-211h316q46 0 66.5 9t27.5 34l53 15q0 -15 -2 -39.5t-2 -32.5v-238q0 -11 3 -45.5t3 -52.5v-16l-49 10v14q-5 45 -24 61.5t-76 16.5h-373l-229 -207v682 q-54 -1 -71.5 -17t-22.5 -61v-14z"/>
<glyph unicode="f" horiz-adv-x="1310" d="M229 373v16q0 17 2 52t2 46v222q0 11 -2 46t-2 52v18l50 -10v-16q5 -43 22.5 -59t71.5 -17v473h602q57 0 76 16.5t24 61.5v14l49 10v-16q0 -18 -3 -52t-3 -46v-238q0 -8 2 -32.5t2 -39.5l-53 15q-7 25 -27.5 34t-66.5 9h-316v-209h316q54 0 74.5 15.5t25.5 43.5v17l49 10 v-18q0 -17 -3 -52t-3 -47v-205q0 -11 3 -37t3 -44v-17l-49 10q2 9 0 15q-5 33 -24.5 47t-75.5 14h-316v-397l-286 -285v682q-54 -1 -71.5 -17t-22.5 -61v-14z"/>
<glyph unicode="g" horiz-adv-x="1474" d="M229 598q0 171 84.5 316t229.5 229t315 84q193 0 352 -109q0 -49 3.5 -172.5t3.5 -165.5h-50q-5 18 -25.5 45.5t-56.5 60t-96.5 55t-130.5 22.5q-151 0 -257.5 -107t-106.5 -258t106.5 -258t257.5 -107q72 0 148 29v203h-23q-58 0 -76.5 -15.5t-23.5 -60.5v-16l-49 -11 v19q0 17 3 52t3 46v189h426v-549q-181 -150 -408 -150q-170 0 -315 84t-229.5 229t-84.5 316z"/>
<glyph unicode="h" horiz-adv-x="1525" d="M225 -4l11 49h14q46 5 62 23t16 75v910q0 57 -16 75t-62 23h-14l-11 49h17q18 0 52 -2t46 -2h262q12 0 46 2t52 2h17l-10 -49h-15q-46 -5 -62 -23t-16 -75v-322h297v322q0 57 -16 75t-61 23h-15l-12 49h18q17 0 52 -2t47 -2h260q12 0 46 2t52 2h18l-10 -49h-16 q-45 -5 -60.5 -23t-15.5 -75v-910q0 -57 15.5 -75t60.5 -23h16l10 -49h-18q-18 0 -52 2t-46 2h-260q-12 0 -47 -2t-52 -2h-18l12 49h15q45 5 61 23t16 75v369h-297v-369q0 -57 16 -75t62 -23h15l10 -49h-17q-18 0 -52 2t-46 2h-262q-12 0 -46 -2t-52 -2h-17z"/>
<glyph unicode="i" horiz-adv-x="1007" d="M258 -4l10 49h15q45 5 61 23t16 75v910q0 57 -16 75t-61 23h-15l-10 49h16q17 0 52 -2t47 -2h262q11 0 46 2t52 2h17l-11 -49h-14q-46 -5 -62 -23t-16 -75v-910q0 -57 16 -75t62 -23h14l11 -49h-17q-17 0 -52 2t-46 2h-262q-12 0 -47 -2t-52 -2h-16z"/>
<glyph unicode="j" horiz-adv-x="1007" d="M258 1200h16q17 0 52 -2t47 -2h262q11 0 46 2t52 2h17l-11 -49h-14q-46 -5 -62 -23t-16 -75v-1057l-287 -385v1442q0 57 -16 75t-61 23h-15z"/>
<glyph unicode="k" horiz-adv-x="1484" d="M225 -4l11 49h14q46 5 62 23t16 75v910q0 57 -16 75t-62 23h-14l-11 49h17q18 0 52 -2t46 -2h262q12 0 46 2t52 2h17l-10 -49h-15q-46 -5 -62 -23t-16 -75v-256l400 401h250q12 0 46 2t52 2h18l-12 -49q-8 2 -14 0q-68 -8 -158 -98l-408 -404l504 -508q67 -65 87.5 -80 t47.5 -18h15l12 -49h-18q-18 0 -53 2t-46 2h-284l-439 455v-312q0 -57 16 -75t62 -23h15l10 -49h-17q-18 0 -52 2t-46 2h-262q-12 0 -46 -2t-52 -2h-17z"/>
<glyph unicode="l" horiz-adv-x="1228" d="M225 1200h17q18 0 52 -2t46 -2h262q12 0 46 2t52 2h17l-10 -49h-15q-46 -5 -62 -23t-16 -75v-766h318q57 0 76 16.5t24 61.5v14l49 10v-16q0 -17 -2 -52t-2 -47v-262q0 -12 2 -46t2 -52v-16l-49 10v14q-5 45 -24 61.5t-76 16.5h-375l-229 -207v1260q0 57 -16 75t-62 23 h-14z"/>
<glyph unicode="m" horiz-adv-x="2021" d="M225 -4l11 49h14q46 5 62 23t16 75v910q0 57 -16 75t-62 23h-14l-11 49h17q18 0 52 -2t46 -2h1341q11 0 46 2t53 2h18l-12 -49h-14q-46 -5 -62 -23t-16 -75v-910q0 -57 16 -75t62 -23h14l12 -49h-18q-18 0 -53 2t-46 2h-256q-11 0 -46 -2t-52 -2h-18l12 49h14q46 5 62 23 t16 75v772h-262v-772q0 -57 16 -75t62 -23h14l12 -49h-18q-17 0 -52 2t-46 2h-256q-11 0 -46 -2t-53 -2h-18l12 49h15q45 5 61 23t16 75v772h-260v-772q0 -57 15.5 -75t60.5 -23h14l13 -49h-19q-18 0 -52 2t-46 2h-256q-12 0 -46 -2t-52 -2h-17z"/>
<glyph unicode="n" horiz-adv-x="1607" d="M225 -4l11 49h14q46 5 62 23t16 75v910q0 57 -16 75t-62 23h-14l-11 49h17q18 0 52 -2t46 -2h229q11 0 46 2t53 2h16l-10 -49h-15q-45 -5 -61 -23t-16 -75v-9l444 -444v453q0 57 -16 75t-62 23h-14l-12 49h18q18 0 52 -2t46 -2h228q12 0 46 2t52 2h18l-10 -49h-16 q-45 -5 -60.5 -23t-15.5 -75v-910q0 -57 15.5 -75t60.5 -23h16l10 -49h-18q-18 0 -52 2t-46 2h-228q-12 0 -46 -2t-52 -2h-18l12 49h14q46 5 62 23t16 75v11l-444 446v-457q0 -57 16 -75t61 -23h15l10 -49h-16q-18 0 -53 2t-46 2h-229q-12 0 -46 -2t-52 -2h-17z"/>
<glyph unicode="o" horiz-adv-x="1716" d="M229 598q0 171 84.5 316t229.5 229t315 84q128 0 244.5 -49.5t201 -134t134 -201t49.5 -244.5t-49.5 -244.5t-134 -201t-201 -134t-244.5 -49.5q-170 0 -315 84t-229.5 229t-84.5 316zM494 506q26 -100 99.5 -174t172.5 -99v273h-272zM494 690h272v273 q-100 -25 -173.5 -99t-98.5 -174zM950 233q101 25 175.5 99t99.5 174h-275v-273zM950 690h275q-26 100 -100 174t-175 99v-273z"/>
<glyph unicode="p" horiz-adv-x="1245" d="M225 -4l11 49h14q46 5 62 23t16 75v910q0 57 -16 75t-62 23h-14l-11 49h17q18 0 52 -2t46 -2h137q5 0 41.5 1.5t93.5 3t113 1.5q152 0 259.5 -106.5t107.5 -257.5q0 -152 -107.5 -259.5t-259.5 -107.5h-111v-328q0 -57 16 -75t62 -23h15l10 -49h-17q-18 0 -52 2t-46 2 h-262q-12 0 -46 -2t-52 -2h-17zM614 684h62q66 0 112 47t46 113t-46 113t-112 47h-62v-320z"/>
<glyph unicode="q" horiz-adv-x="1716" d="M229 598q0 171 84.5 316t229.5 229t315 84q128 0 244.5 -49.5t201 -134t134 -201t49.5 -244.5q0 -223 -140 -395.5t-352 -218.5v-93q0 -57 15.5 -75.5t60.5 -24.5h14l13 -49h-19q-17 0 -52 3t-46 3h-246q-11 0 -46 -3t-52 -3h-19l13 49h14q46 6 62 24.5t16 75.5v93 q-214 46 -354 218.5t-140 395.5zM494 598q0 -114 63 -206t166 -134v131q0 57 -16 75t-62 23h-14l-13 50h19q17 0 52 -2.5t46 -2.5h246q11 0 46 2.5t52 2.5h19l-13 -50h-14q-45 -5 -60.5 -23t-15.5 -75v-131q102 42 166 134.5t64 205.5q0 151 -107.5 258t-259.5 107 q-151 0 -257.5 -107t-106.5 -258z"/>
<glyph unicode="r" horiz-adv-x="1458" d="M225 -4l11 49h14q46 5 62 23t16 75v910q0 57 -16 75t-62 23h-14l-11 49h17q18 0 52 -2t46 -2h262q12 0 62 2t65 2q151 0 257 -105.5t106 -254.5q0 -89 -39 -164.5t-107 -126.5l404 -406q67 -65 87.5 -80t47.5 -18h14l12 -49h-18q-17 0 -52 2t-46 2h-281l-475 475h-25 v-332q0 -57 16 -75t62 -23h15l10 -49h-17q-18 0 -52 2t-46 2h-262q-12 0 -46 -2t-52 -2h-17zM614 684h70q63 0 109.5 46t46.5 110q0 63 -46.5 109t-109.5 46h-70v-311z"/>
<glyph unicode="s" horiz-adv-x="1245" d="M238 272l215 90q8 3 43 21t53 25l20 8l15 -49q-47 -19 -47 -66q0 -34 26 -59t66 -25q42 0 74 29t32 71q0 45 -26.5 78t-87.5 66l-129 76q-109 65 -157 144t-48 189q0 94 40.5 171.5t129 127.5t213.5 50q131 0 224 -72t130 -199l-207 -88q-10 -4 -37.5 -18.5t-40.5 -20.5 l-14 -4l-8 45q23 14 32 25.5t9 34.5q0 32 -26 55.5t-73 23.5q-41 0 -70.5 -28.5t-29.5 -73.5q0 -38 20.5 -66t77.5 -61l166 -98q99 -60 152 -138.5t53 -199.5q0 -85 -35.5 -156t-92.5 -115.5t-126 -69t-139 -24.5q-147 0 -251 80.5t-146 220.5z"/>
<glyph unicode="t" horiz-adv-x="1540" d="M168 807v18q0 17 2 52t2 47v260q0 12 -2 46t-2 52v16l49 -10v-14q5 -46 23 -62t75 -16h910q59 0 77 16t23 62v14l49 10v-16q0 -18 -2 -52t-2 -46v-260q0 -12 2 -47t2 -52v-18l-49 12v15q-5 45 -23 61t-77 16h-312v-768q0 -57 16 -75t62 -23h15l12 -49h-19q-17 0 -52 2 t-46 2h-260q-11 0 -46 -2t-52 -2h-19l13 49h14q45 5 60.5 23t15.5 75v768h-312q-57 0 -75 -16t-23 -61v-15z"/>
<glyph unicode="u" horiz-adv-x="1890" d="M213 1200h18q17 0 52 -2t47 -2h262q12 0 46 2t52 2h19l-13 -49h-14q-46 -5 -62 -23t-16 -75v-451q0 -141 100.5 -241.5t241.5 -100.5t240.5 100.5t99.5 241.5v451q0 57 -16 75t-62 23h-14l-10 49h16q18 0 52 -2t46 -2h263q11 0 46 2t52 2h18l-10 -49h-16 q-45 -5 -60.5 -23t-15.5 -75v-455q0 -171 -84.5 -316t-229.5 -229t-315 -84q-128 0 -245 49.5t-201.5 134t-134.5 201t-50 244.5v455q0 58 -15 75.5t-60 22.5h-15z"/>
<glyph unicode="v" horiz-adv-x="1628" d="M98 1200h19q17 0 52 -2t46 -2h309q12 0 47 2t52 2h18l-12 -49h-15q-44 -5 -60 -31q-6 -10 -7 -23q0 -20 14 -48l254 -496l254 496q12 26 12 46q-1 15 -7 25q-16 26 -60 31h-15l-12 49h19q18 0 52 -2t46 -2h309q11 0 46 2t52 2h19l-10 -49h-17q-40 -4 -56 -19.5t-44 -70.5 l-588 -1120l-590 1120q-27 55 -42.5 70.5t-57.5 19.5h-14z"/>
<glyph unicode="w" horiz-adv-x="2203" d="M98 1200h19q17 0 52 -2t46 -2h293q12 0 46 2t52 2h19l-13 -49h-14q-44 -5 -60 -31q-6 -11 -7 -25q0 -20 14 -46l270 -529l133 262l-147 279q-28 55 -44 70.5t-57 19.5h-16l-10 49h18q18 0 53 -2t46 -2h253l58 -113l57 113h254q11 0 46 2t52 2h19l-10 -49h-17 q-40 -4 -56 -19.5t-44 -70.5l-148 -279l134 -262l270 529q14 27 14 48q-1 13 -7 23q-16 26 -60 31h-15l-12 49h18q17 0 52 -2t47 -2h293q11 0 46 2t52 2h18l-12 -49h-14q-42 -4 -58.5 -20t-42.5 -70l-589 -1120l-287 546l-287 -546l-590 1120q-14 28 -18.5 36t-14 22.5 t-17.5 18t-20 7.5t-30 6h-14z"/>
<glyph unicode="x" horiz-adv-x="1748" d="M133 199l43 26q4 -6 8 -10q32 -27 56 -27h4q26 2 65 43l359 357l-359 356q-39 41 -65 43h-4q-25 0 -56 -26l-8 -11l-43 27l10 12q10 10 37.5 33.5t36.5 32.5l184 186q9 8 32 34t36 38l10 12l29 -43q-6 -6 -12 -8q-26 -32 -26 -56q0 -27 42 -71l358 -356l357 356 q43 45 43 72q0 24 -27 55l-10 8l27 43l12 -12q13 -12 36 -38t31 -34l183 -186q63 -56 73 -66l13 -12l-43 -27q-5 7 -11 11q-30 26 -54 26h-4q-26 -2 -66 -43l-357 -356l357 -355q40 -41 66 -43h3q24 0 53 27l13 8l43 -24l-15 -15q-1 -1 -73 -65l-183 -184q-9 -8 -31.5 -34.5 t-33.5 -37.5l-15 -15l-24 44l8 12q27 29 27 53q0 27 -43 70l-355 356l-358 -356q-42 -43 -42 -71q0 -25 26 -54l12 -13l-29 -43l-10 15q-14 13 -38 40.5t-30 33.5l-184 182q-9 10 -37 33.5t-37 31.5z"/>
<glyph unicode="y" horiz-adv-x="1650" d="M74 977l12 12q2 2 74 66l182 186q9 8 32 34t36 38l12 12l27 -43q-7 -6 -11 -8q-27 -31 -27 -56q0 -27 44 -71l356 -356l356 356q44 44 44 71q0 25 -27 56l-10 8l26 43l12 -12q13 -12 36 -38t32 -34l182 -186q72 -64 74 -66l12 -12l-43 -27q-4 7 -10 11q-30 26 -55 26h-3 q-26 -2 -65 -43l-418 -416v-385q0 -57 16 -75t62 -23h15l12 -49h-19q-18 0 -52 2t-46 2h-260q-12 0 -46 -2t-52 -2h-19l13 49h14q45 5 60.5 23t15.5 75v385l-418 416q-39 41 -65 43h-3q-25 0 -55 -26l-10 -11z"/>
<glyph unicode="z" d="M213 0l520 930h-348q-58 0 -76.5 -15.5t-23.5 -60.5v-14l-49 -13v19q0 18 3 52t3 46v240q0 12 -3 46t-3 52v16l49 -10v-14q5 -45 24 -61.5t76 -16.5h823l-510 -922h330q59 0 77 16t23 62v15l50 12v-19q0 -18 -2 -52t-2 -46v-250q0 -12 2 -46t2 -52v-16l-50 10v14 q-5 46 -23 62t-77 16h-815z"/>
<glyph unicode="{" horiz-adv-x="983" d="M164 596l229 229v574h375v-76h-162v-514l-213 -213l213 -213v-526h162v-78h-375v588z"/>
<glyph unicode="|" horiz-adv-x="630" d="M266 -373v1803l45 45l45 -45v-1803l-45 -47z"/>
<glyph unicode="}" horiz-adv-x="983" d="M215 -143h162v526l213 213l-213 213v514h-162v76h375v-574l229 -229l-229 -229v-588h-375v78z"/>
<glyph unicode="~" horiz-adv-x="819" d="M53 485q3 93 70 166q71 74 160 74q63 0 170 -35q14 -4 39 -12t39 -12t30.5 -7.5t26.5 -3.5q38 0 53 64h133q-10 -86 -72 -158q-66 -76 -149 -76q-53 0 -162 33q-105 33 -141 33q-49 0 -72 -66h-125z"/>
<glyph unicode="¡" horiz-adv-x="835" d="M256 137l170 649l33 33l33 -33l170 -649l-203 -203zM287 1079l172 172l172 -172l-172 -172z"/>
<glyph unicode="¢" horiz-adv-x="1146" d="M188 582q0 186 129 321t312 144l55 182h227l-63 -225q55 -27 92 -56q-1 -41 1.5 -135.5t2.5 -136.5l-45 -17v11q-3 38 -39 71q-76 66 -192 66q-93 0 -160.5 -66.5t-67.5 -158.5q0 -93 67.5 -159.5t160.5 -66.5q116 0 192 66q36 29 39 70v12l45 -17v-26q0 -21 -2 -103.5 t-2 -99.5v-43q-61 -46 -142.5 -72.5t-162.5 -25.5l-64 -199h-227l70 266q-103 61 -164.5 167t-61.5 231z"/>
<glyph unicode="£" horiz-adv-x="1376" d="M279 422q4 58 4 82v241q0 11 -2 44t-2 51l51 -17q6 -34 24.5 -49t65.5 -16v88q0 163 103.5 272t267.5 109q173 0 278 -101q0 -39 4 -175.5t4 -192.5h-49q-25 109 -76.5 168t-144.5 59q-56 0 -92.5 -38.5t-36.5 -100.5v-88q51 0 70.5 14.5t25.5 50.5l51 17q0 -18 -2 -51 t-2 -44v-241q0 -24 4 -82l-51 16q-8 31 -27.5 42.5t-68.5 11.5v-205h313q58 0 77 16.5t24 61.5v14l49 10v-16q0 -17 -3 -52t-3 -47v-262q0 -11 3 -45.5t3 -52.5v-16l-49 10v14q-5 45 -24 61.5t-77 16.5h-561q-51 0 -70.5 -11t-27.5 -42l-51 -17q4 58 4 82v262q0 12 -2 44 t-2 49l51 -17q6 -34 24 -48t64 -15v205q-45 -1 -63.5 -12.5t-24.5 -41.5z"/>
<glyph unicode="¥" horiz-adv-x="1650" d="M74 977l12 12q2 2 74 66l182 186q9 8 32 34t36 38l12 12l27 -43q-7 -6 -11 -8q-29 -34 -26.5 -60t43.5 -67l356 -356l356 356q41 41 43.5 67t-26.5 60l-10 8l26 43l12 -12q13 -12 36 -38t32 -34l182 -186q72 -64 74 -66l12 -12l-43 -27q-4 7 -10 11q-32 28 -58 26 t-65 -43l-252 -250h160v-196h-326v-105h326v-196h-326v-54q0 -57 16 -75t62 -23h15l12 -49h-19q-18 0 -52 2t-46 2h-260q-12 0 -46 -2t-52 -2h-19l13 49h14q45 5 60.5 23t15.5 75v54h-303v196h303v105h-303v196h137l-252 250q-39 41 -65 43t-58 -26l-10 -11z"/>
<glyph unicode="¦" horiz-adv-x="483" d="M201 385h73v-811h-73v811zM201 555v809h73v-809h-73z"/>
<glyph unicode="§" horiz-adv-x="1245" d="M231 541q0 136 101 217q-27 56 -27 135q0 90 38.5 164t123.5 122t205 48q159 0 254 -72q0 -35 -1 -116.5t-1 -133.5l-43 -8q-19 54 -67 87.5t-114 33.5q-57 0 -96 -27.5t-39 -70.5q0 -36 20 -63t74 -58l160 -94q95 -58 145 -133.5t50 -190.5q0 -138 -101 -219 q27 -53 27 -133q0 -141 -95 -238.5t-272 -97.5q-156 0 -254 74q0 34 1.5 114.5t1.5 132.5l43 9q19 -53 67 -86t113 -33q57 0 96 27.5t39 70.5q0 36 -20 61.5t-74 57.5l-160 96q-95 56 -145 131.5t-50 192.5zM477 543q0 -42 25.5 -71.5t85.5 -65.5l153 -89q27 27 27 62 q0 42 -25.5 71.5t-85.5 63.5l-153 88q-27 -27 -27 -59z"/>
<glyph unicode="¨" horiz-adv-x="868" d="M76 1481l149 151l152 -151l-152 -150zM492 1481l151 151l150 -151l-150 -150z"/>
<glyph unicode="©" horiz-adv-x="1716" d="M229 598q0 171 84.5 316t229.5 229t315 84q128 0 244.5 -49.5t201 -134t134 -201t49.5 -244.5t-49.5 -244.5t-134 -201t-201 -134t-244.5 -49.5q-170 0 -315 84t-229.5 229t-84.5 316zM356 598q0 -135 68 -251t183.5 -184.5t250.5 -68.5q136 0 252 68.5t184 184.5t68 251 t-68 251t-184 184.5t-252 68.5q-135 0 -250.5 -68.5t-183.5 -184.5t-68 -251zM520 596q0 149 106.5 254.5t254.5 105.5q118 0 223 -79q0 -24 3 -105t3 -121h-43v21q-6 51 -60 80.5t-126 29.5q-75 0 -130 -55t-55 -131t55 -131t130 -55q74 0 127 28.5t59 81.5v19h43l-6 -224 q-106 -82 -223 -82q-148 0 -254.5 107t-106.5 256z"/>
<glyph unicode="ª" horiz-adv-x="1179" d="M66 424l22 29q25 -21 47 -15q19 3 41 45l412 770l411 -770q22 -42 41 -45q22 -6 47 15l23 -29l-10 -6q-11 -7 -35.5 -17t-28.5 -12l-159 -84q-8 -4 -29.5 -18t-30.5 -19l-10 -6l-10 35q9 0 23.5 12.5t15.5 24.5q3 18 -15 55l-49 98h-371l-47 -98q-17 -36 -14 -55 q1 -12 15.5 -24.5t23.5 -12.5l-10 -35l-11 6q-11 6 -31.5 19.5t-27.5 17.5l-160 84q-3 2 -27.5 12t-35.5 17zM487 662h199l-98 200z"/>
<glyph unicode="«" horiz-adv-x="1353" d="M213 598l244 246q41 40 43 66.5t-27 58.5l-10 10l20 35l13 -10q14 -14 36 -40.5t29 -33.5l111 -111l-219 -221l219 -219l-111 -111q-5 -5 -17.5 -20.5t-24.5 -29t-23 -23.5l-13 -13l-20 35q6 8 10 12q29 32 27 58t-43 67zM629 598l245 246q41 39 43 66t-26 59l-10 10 l18 35l12 -10q12 -12 35.5 -39t32.5 -35l100 -103q9 -9 36 -32t38 -33l12 -12l-37 -21q-6 6 -8 12q-33 27 -59.5 25t-67.5 -41l-125 -127l125 -125q41 -41 67.5 -42.5t59.5 26.5l8 12l37 -23l-12 -10q-6 -5 -35.5 -30.5t-38.5 -36.5l-100 -101q-6 -6 -30 -33t-38 -40 l-12 -13l-18 35q4 8 10 12q28 32 26 58t-43 67z"/>
<glyph unicode="­" horiz-adv-x="1124" d="M279 412v18q0 18 2 52t2 46v195q0 11 -2 46t-2 52v19l49 -13v-14q5 -45 24 -61.5t76 -16.5h268q58 0 77 16.5t24 61.5v14l49 13v-19q0 -17 -3 -52t-3 -46v-195q0 -12 3 -46t3 -52v-18l-49 10v16q-5 45 -24 60.5t-77 15.5h-268q-58 0 -76.5 -15.5t-23.5 -60.5v-16z"/>
<glyph unicode="®" horiz-adv-x="1304" d="M168 743q0 132 65 244t176 177t242 65q202 0 344 -142.5t142 -343.5q0 -131 -64.5 -242t-176.5 -176t-245 -65q-199 0 -341 142t-142 341zM276 743q0 -154 110.5 -264t264.5 -110q162 0 279 120h-99l-182 185v-111q0 -13 3 -17.5t14 -6.5h18l12 -52h-28q-6 0 -21 1t-20 1 h-109q-5 0 -20 -1t-21 -1h-28l12 52h18q11 2 14 6.5t3 17.5v385q0 14 -3.5 19t-13.5 8h-18l-12 49h28q6 0 21 -1t20 -1h109q5 0 26 1t27 1q70 0 119 -48.5t49 -117.5q0 -72 -51 -123l155 -157q10 -8 25 -23q51 85 51 188q0 155 -111 266t-266 111q-154 0 -264.5 -111 t-110.5 -266zM649 807h13q20 0 33.5 15t13.5 36q0 20 -13.5 33.5t-33.5 13.5h-13v-98z"/>
<glyph unicode="¯" horiz-adv-x="868" d="M184 1411v148h500v-148h-500z"/>
<glyph unicode="°" horiz-adv-x="688" d="M98 981q0 102 72 174t174 72t174 -72t72 -174q0 -101 -72.5 -173.5t-173.5 -72.5t-173.5 72.5t-72.5 173.5zM242 981q0 -43 29.5 -72.5t72.5 -29.5t72.5 29.5t29.5 72.5t-29.5 73.5t-72.5 30.5t-72.5 -30.5t-29.5 -73.5z"/>
<glyph unicode="²" horiz-adv-x="868" d="M186 971q0 97 68 165t164 68q95 0 163 -68t68 -165q0 -48 -19.5 -92.5t-51.5 -73.5l-140 -129h117q24 0 31.5 6t9.5 25v18l51 8v-24q0 -9 -2 -29t-2 -27v-149h-455v117l267 294q22 25 22 56q0 26 -16.5 43.5t-42.5 17.5q-23 0 -41.5 -13t-18.5 -30q0 -36 29 -39l14 -2 l11 -45h-23q-6 0 -27 1t-28 1h-146q-2 62 -2 66z"/>
<glyph unicode="³" horiz-adv-x="819" d="M184 688q19 -100 85 -146t149 -46q95 0 163 67t68 162q0 66 -33.5 120t-91.5 85l101 157v109h-400v-152q0 -6 -2 -26t-2 -29v-26l51 12v20q2 18 9.5 23.5t31.5 5.5h97l-117 -197q100 -4 131 -16q55 -23 55 -86q0 -25 -17 -42t-46 -17q-19 0 -31 8.5t-12 19.5q0 18 14 29 l-6 45l-23 -10q-16 -8 -51 -23z"/>
<glyph unicode="´" horiz-adv-x="868" d="M172 1393l182 190h340l-348 -190h-174z"/>
<glyph unicode="µ" horiz-adv-x="1890" d="M213 -283l12 50h15q45 5 60 22.5t15 75.5v1188q0 58 -15 75.5t-60 22.5h-15l-12 49h18q17 0 52 -2t47 -2h262q12 0 46 2t52 2h19l-13 -49h-14q-46 -5 -62 -23t-16 -75v-451q0 -141 100.5 -241.5t241.5 -100.5t240.5 100.5t99.5 241.5v451q0 57 -16 75t-62 23h-14l-10 49 h16q18 0 52 -2t46 -2h263q11 0 46 2t52 2h18l-10 -49h-16q-45 -5 -60.5 -23t-15.5 -75v-455q0 -171 -84.5 -316t-229.5 -229t-315 -84q-187 0 -344 101v-205q0 -57 16 -75t62 -23h14l13 -50h-19q-18 0 -52 2t-46 2h-260q-12 0 -47 -2t-52 -2h-18z"/>
<glyph unicode="¶" d="M180 903q0 121 86 207t207 86h594q11 0 46 2t52 2h19l-13 -49h-14q-46 -5 -62 -23t-16 -75v-1196q0 -59 16.5 -77.5t61.5 -23.5h14l13 -49h-19q-17 0 -52 2t-46 2h-227v1227h-131v-1227h-230q-11 0 -46 -2t-52 -2h-16l10 49h14q45 5 61.5 23.5t16.5 77.5v753 q-120 2 -203.5 87t-83.5 206z"/>
<glyph unicode="·" horiz-adv-x="655" d="M131 623l197 196l196 -196l-196 -197z"/>
<glyph unicode="¸" horiz-adv-x="868" d="M231 -307l215 246l191 -39l-293 -207h-113z"/>
<glyph unicode="¹" horiz-adv-x="819" d="M242 510l8 49h18q19 2 25 10t6 33v504q0 25 -6 33t-25 10h-18l-8 49h24q10 0 30 -1t26 -1h141q7 0 26 1t29 1h27l-13 -49h-18q-18 -2 -24.5 -10.5t-6.5 -32.5v-504q0 -25 6 -33t23 -10h18l15 -49h-27q-10 0 -29 1t-26 1h-141q-6 0 -26 -1t-30 -1h-24z"/>
<glyph unicode="º" horiz-adv-x="1202" d="M160 784q0 183 129 312t313 129q119 0 220.5 -59t160.5 -160.5t59 -221.5q0 -181 -129 -309.5t-311 -128.5q-184 0 -313 128t-129 310zM346 721q17 -70 68.5 -122t122.5 -71v193h-191zM346 850h191v192q-71 -19 -122.5 -70.5t-68.5 -121.5zM666 528q70 19 121.5 71 t68.5 122h-190v-193zM666 850h190q-19 71 -70 123t-120 69v-192z"/>
<glyph unicode="»" horiz-adv-x="1353" d="M188 446l37 23q6 -6 8 -12q33 -28 59.5 -26.5t67.5 42.5l125 125l-125 127q-41 39 -67.5 41t-59.5 -25l-8 -12l-37 21l13 12q11 10 37.5 33t35.5 32l101 103q9 8 32 35t35 39l13 10l18 -35q-4 -6 -10 -10q-28 -32 -26.5 -59t42.5 -66l246 -246l-246 -244 q-41 -41 -42.5 -67t26.5 -58l10 -12l-18 -35l-13 13q-14 13 -37.5 39.5t-29.5 33.5l-101 101q-7 8 -19 19t-28.5 25.5t-25.5 22.5zM682 379l219 219l-219 221l111 111q7 7 29 33.5t36 40.5l12 10l21 -35l-10 -10q-29 -32 -27 -58.5t43 -66.5l244 -246l-244 -244 q-41 -41 -43 -67t27 -58l10 -12l-21 -35l-12 13q-11 10 -23 23.5t-24.5 29t-17.5 20.5z"/>
<glyph unicode="¼" horiz-adv-x="1638" d="M199 510l10 49h16q19 2 26 10.5t7 32.5v504q0 24 -7 32.5t-26 10.5h-16l-10 49h26q8 0 27.5 -1t26.5 -1h143q5 0 24 1t29 1h27l-13 -49h-18q-18 -2 -24.5 -10.5t-6.5 -32.5v-504q0 -25 6 -33t25 -10h16l17 -49h-29q-10 0 -29 1t-24 1h-143q-7 0 -26.5 -1t-27.5 -1h-26z M399 0l602 1196h170l-602 -1196h-170zM834 125l520 625v-484h41q24 0 33.5 7t11.5 24v18l49 11v-27q0 -9 -1 -28t-1 -25v-101q0 -5 1 -24t1 -29v-26l-49 12v16q-1 19 -10.5 25t-34.5 6h-41v-37q0 -25 5 -32.5t23 -8.5h21l10 -51h-27q-9 0 -28 2t-27 2h-114q-8 0 -27.5 -2 t-28.5 -2h-24l8 51h18q19 2 25 9.5t6 31.5v37h-360zM1092 252h112v145z"/>
<glyph unicode="½" horiz-adv-x="1638" d="M215 510l10 49h17q19 2 25.5 10.5t6.5 32.5v504q0 24 -6.5 32.5t-25.5 10.5h-17l-10 49h27q8 0 27 -1t26 -1h143q5 0 24.5 1t29.5 1h26l-12 -49h-19q-18 -2 -24 -10.5t-6 -32.5v-504q0 -25 5.5 -33.5t24.5 -9.5h17l16 -49h-28q-10 0 -29.5 1t-24.5 1h-143q-7 0 -26 -1 t-27 -1h-27zM416 0l602 1196h170l-602 -1196h-170zM1026 469q0 96 67.5 163.5t163.5 67.5q95 0 162.5 -68t67.5 -163q0 -101 -70 -168l-141 -129h119q24 0 31.5 6t9.5 25v18l51 10v-26q0 -9 -2 -28t-2 -25v-152h-455v119l264 295q23 23 23 55q0 26 -16.5 42.5t-41.5 16.5 t-42 -12t-17 -29q0 -38 27 -41h16l8 -47h-22q-5 0 -26 2t-27 2h-146q-2 60 -2 66z"/>
<glyph unicode="¾" horiz-adv-x="1802" d="M209 688q19 -100 84.5 -146t148.5 -46q96 0 164 67t68 162q0 66 -33.5 120t-91.5 85l100 157v109h-399v-152q0 -6 -2 -26t-2 -29v-26l51 12v20q2 18 9.5 23.5t31.5 5.5h96l-117 -197q101 -4 132 -16q55 -23 55 -86q0 -25 -17.5 -42t-46.5 -17q-19 0 -31 8.5t-12 19.5 q0 18 15 29l-6 45l-23 -10q-16 -8 -51 -23zM514 0l602 1196h170l-602 -1196h-170zM948 125l520 625v-484h41q24 0 33.5 7t11.5 24v18l50 11v-27q0 -9 -1 -28t-1 -25v-101q0 -5 1 -24t1 -29v-26l-50 12v16q-1 19 -10.5 25t-34.5 6h-41v-37q0 -25 5 -32.5t24 -8.5h21l10 -51 h-27q-9 0 -28 2t-27 2h-115q-8 0 -27 -2t-28 -2h-25l9 51h18q19 2 25 9.5t6 31.5v37h-361zM1206 252h113v145z"/>
<glyph unicode="¿" horiz-adv-x="1218" d="M301 354q0 56 21.5 110t57 95.5t72 72t74.5 52.5l117 78l-2 37l94 82l99 -82v-148l-154 -131q-88 -72 -88 -162q0 -51 42.5 -93t125.5 -42q49 0 88.5 16.5t62.5 43.5t34 44t18 35l45 -10q0 -61 1 -155.5t1 -133.5q-123 -86 -303 -86q-190 0 -298 97.5t-108 279.5z M563 1079l172 172l172 -172l-172 -172z"/>
<glyph unicode="À" horiz-adv-x="1683" d="M94 82l33 39q8 -4 12 -8q38 -17 63.5 -7.5t51.5 60.5l586 1100l587 -1100q26 -51 50.5 -60t64.5 7l12 8l33 -39l-16 -8q-12 -6 -44.5 -20.5t-43.5 -20.5l-232 -123q-6 -4 -22 -14l-32 -20t-30 -17l-16 -9l-12 50l12 6q38 26 43 49t-20 76l-76 153h-514l-76 -153 q-25 -52 -20.5 -76t40.5 -49l15 -6l-15 -50l-16 9q-17 9 -47 28.5t-35 22.5l-231 123l-88 41zM465 1583h340l182 -190h-174zM698 418h285l-143 289z"/>
<glyph unicode="Á" horiz-adv-x="1683" d="M94 82l33 39q8 -4 12 -8q38 -17 63.5 -7.5t51.5 60.5l586 1100l587 -1100q26 -51 50.5 -60t64.5 7l12 8l33 -39l-16 -8q-12 -6 -44.5 -20.5t-43.5 -20.5l-232 -123q-6 -4 -22 -14l-32 -20t-30 -17l-16 -9l-12 50l12 6q38 26 43 49t-20 76l-76 153h-514l-76 -153 q-25 -52 -20.5 -76t40.5 -49l15 -6l-15 -50l-16 9q-17 9 -47 28.5t-35 22.5l-231 123l-88 41zM692 1393l182 190h340l-348 -190h-174zM698 418h285l-143 289z"/>
<glyph unicode="Â" horiz-adv-x="1683" d="M94 82l33 39q8 -4 12 -8q38 -17 63.5 -7.5t51.5 60.5l586 1100l587 -1100q26 -51 50.5 -60t64.5 7l12 8l33 -39l-16 -8q-12 -6 -44.5 -20.5t-43.5 -20.5l-232 -123q-6 -4 -22 -14l-32 -20t-30 -17l-16 -9l-12 50l12 6q38 26 43 49t-20 76l-76 153h-514l-76 -153 q-25 -52 -20.5 -76t40.5 -49l15 -6l-15 -50l-16 9q-17 9 -47 28.5t-35 22.5l-231 123l-88 41zM563 1391l185 192h184l184 -192h-174l-102 57l-103 -57h-174zM698 418h285l-143 289z"/>
<glyph unicode="Ã" horiz-adv-x="1683" d="M94 82l33 39q8 -4 12 -8q38 -17 63.5 -7.5t51.5 60.5l586 1100l587 -1100q26 -51 50.5 -60t64.5 7l12 8l33 -39l-16 -8q-12 -6 -44.5 -20.5t-43.5 -20.5l-232 -123q-6 -4 -22 -14l-32 -20t-30 -17l-16 -9l-12 50l12 6q38 26 43 49t-20 76l-76 153h-514l-76 -153 q-25 -52 -20.5 -76t40.5 -49l15 -6l-15 -50l-16 9q-17 9 -47 28.5t-35 22.5l-231 123l-88 41zM526 1391q2 20 7.5 42.5t20.5 56.5t36.5 60t59 45t85.5 19q46 0 128.5 -34t109.5 -34q28 0 45.5 21t17.5 47h115q-2 -20 -7.5 -42.5t-20.5 -56.5t-36.5 -60t-59 -45t-85.5 -19 q-46 0 -128 33.5t-109 33.5q-28 0 -46 -20.5t-18 -46.5h-115zM698 418h285l-143 289z"/>
<glyph unicode="Ä" horiz-adv-x="1683" d="M94 82l33 39q8 -4 12 -8q38 -17 63.5 -7.5t51.5 60.5l586 1100l587 -1100q26 -51 50.5 -60t64.5 7l12 8l33 -39l-16 -8q-12 -6 -44.5 -20.5t-43.5 -20.5l-232 -123q-6 -4 -22 -14l-32 -20t-30 -17l-16 -9l-12 50l12 6q38 26 43 49t-20 76l-76 153h-514l-76 -153 q-25 -52 -20.5 -76t40.5 -49l15 -6l-15 -50l-16 9q-17 9 -47 28.5t-35 22.5l-231 123l-88 41zM481 1481l150 151l151 -151l-151 -150zM698 418h285l-143 289zM897 1481l152 151l149 -151l-149 -150z"/>
<glyph unicode="Å" horiz-adv-x="1683" d="M94 82l33 39q8 -4 12 -8q38 -17 63.5 -7.5t51.5 60.5l586 1100l587 -1100q26 -51 50.5 -60t64.5 7l12 8l33 -39l-16 -8q-12 -6 -44.5 -20.5t-43.5 -20.5l-232 -123q-6 -4 -22 -14l-32 -20t-30 -17l-16 -9l-12 50l12 6q38 26 43 49t-20 76l-76 153h-514l-76 -153 q-25 -52 -20.5 -76t40.5 -49l15 -6l-15 -50l-16 9q-17 9 -47 28.5t-35 22.5l-231 123l-88 41zM633 1536q0 84 60.5 144.5t144.5 60.5q86 0 146 -60t60 -145t-60 -146t-146 -61q-83 0 -144 61t-61 146zM698 418h285l-143 289zM752 1536q0 -35 25.5 -61.5t60.5 -26.5 t60.5 26.5t25.5 61.5t-25.5 61.5t-60.5 26.5t-60.5 -26.5t-25.5 -61.5z"/>
<glyph unicode="Æ" horiz-adv-x="1906" d="M94 82l37 39q8 -4 12 -8q38 -17 63.5 -7.5t55.5 60.5l621 1030h606q57 0 75.5 16t24.5 62v14l49 10v-16q0 -18 -3 -52t-3 -46v-238q0 -8 2 -32.5t2 -39.5l-55 15q-6 25 -26 34t-66 9h-318v-209h318q54 0 73 15t27 44v17l49 10v-18q0 -17 -3 -52t-3 -47v-205q0 -11 3 -37 t3 -44v-17l-49 10v15q-7 33 -25.5 47t-74.5 14h-318v-211h318q46 0 66 9t26 34l55 15q0 -15 -2 -39.5t-2 -32.5v-238q0 -11 3 -45.5t3 -52.5v-16l-49 10v14q-6 46 -24.5 62t-75.5 16h-375l-229 -207v350h-316l-63 -112q-28 -52 -25.5 -76t37.5 -49l14 -6l-16 -50l-16 9 q-14 8 -42 26.5t-40 24.5l-221 123q-9 5 -23.5 12t-33.5 15.5t-29 13.5zM713 397h172v326z"/>
<glyph unicode="Ç" horiz-adv-x="1458" d="M229 598q0 171 84.5 316t229.5 229t315 84q211 0 385 -131q0 -39 3 -177t3 -194h-49q-17 88 -113.5 163t-228.5 75q-151 0 -257.5 -107t-106.5 -258t106.5 -258t257.5 -107q135 0 231.5 71t110.5 165h49l-6 -367q-125 -101 -291 -125l-272 -194h-113l172 199 q-219 40 -364.5 214t-145.5 402z"/>
<glyph unicode="È" d="M229 373v16q0 17 2 52t2 46v222q0 11 -2 46t-2 52v18l50 -10v-16q5 -43 22.5 -59t71.5 -17v473h602q57 0 76 16.5t24 61.5v14l49 10v-16q0 -18 -3 -52t-3 -46v-238q0 -8 2 -32.5t2 -39.5l-53 15q-7 25 -27.5 34t-66.5 9h-316v-209h316q54 0 74.5 15.5t25.5 43.5v17l49 10 v-18q0 -17 -3 -52t-3 -47v-205q0 -11 3 -37t3 -44v-17l-49 10q2 9 0 15q-5 33 -24.5 47t-75.5 14h-316v-211h316q46 0 66.5 9t27.5 34l53 15q0 -15 -2 -39.5t-2 -32.5v-238q0 -11 3 -45.5t3 -52.5v-16l-49 10v14q-5 45 -24 61.5t-76 16.5h-373l-229 -207v682 q-54 -1 -71.5 -17t-22.5 -61v-14zM418 1583h340l182 -190h-174z"/>
<glyph unicode="É" d="M229 373v16q0 17 2 52t2 46v222q0 11 -2 46t-2 52v18l50 -10v-16q5 -43 22.5 -59t71.5 -17v473h602q57 0 76 16.5t24 61.5v14l49 10v-16q0 -18 -3 -52t-3 -46v-238q0 -8 2 -32.5t2 -39.5l-53 15q-7 25 -27.5 34t-66.5 9h-316v-209h316q54 0 74.5 15.5t25.5 43.5v17l49 10 v-18q0 -17 -3 -52t-3 -47v-205q0 -11 3 -37t3 -44v-17l-49 10q2 9 0 15q-5 33 -24.5 47t-75.5 14h-316v-211h316q46 0 66.5 9t27.5 34l53 15q0 -15 -2 -39.5t-2 -32.5v-238q0 -11 3 -45.5t3 -52.5v-16l-49 10v14q-5 45 -24 61.5t-76 16.5h-373l-229 -207v682 q-54 -1 -71.5 -17t-22.5 -61v-14zM592 1393l182 190h340l-348 -190h-174z"/>
<glyph unicode="Ê" d="M229 373v16q0 17 2 52t2 46v222q0 11 -2 46t-2 52v18l50 -10v-16q5 -43 22.5 -59t71.5 -17v473h602q57 0 76 16.5t24 61.5v14l49 10v-16q0 -18 -3 -52t-3 -46v-238q0 -8 2 -32.5t2 -39.5l-53 15q-7 25 -27.5 34t-66.5 9h-316v-209h316q54 0 74.5 15.5t25.5 43.5v17l49 10 v-18q0 -17 -3 -52t-3 -47v-205q0 -11 3 -37t3 -44v-17l-49 10q2 9 0 15q-5 33 -24.5 47t-75.5 14h-316v-211h316q46 0 66.5 9t27.5 34l53 15q0 -15 -2 -39.5t-2 -32.5v-238q0 -11 3 -45.5t3 -52.5v-16l-49 10v14q-5 45 -24 61.5t-76 16.5h-373l-229 -207v682 q-54 -1 -71.5 -17t-22.5 -61v-14zM469 1391l184 192h184l185 -192h-174l-103 57l-102 -57h-174z"/>
<glyph unicode="Ë" d="M229 373v16q0 17 2 52t2 46v222q0 11 -2 46t-2 52v18l50 -10v-16q5 -43 22.5 -59t71.5 -17v473h602q57 0 76 16.5t24 61.5v14l49 10v-16q0 -18 -3 -52t-3 -46v-238q0 -8 2 -32.5t2 -39.5l-53 15q-7 25 -27.5 34t-66.5 9h-316v-209h316q54 0 74.5 15.5t25.5 43.5v17l49 10 v-18q0 -17 -3 -52t-3 -47v-205q0 -11 3 -37t3 -44v-17l-49 10q2 9 0 15q-5 33 -24.5 47t-75.5 14h-316v-211h316q46 0 66.5 9t27.5 34l53 15q0 -15 -2 -39.5t-2 -32.5v-238q0 -11 3 -45.5t3 -52.5v-16l-49 10v14q-5 45 -24 61.5t-76 16.5h-373l-229 -207v682 q-54 -1 -71.5 -17t-22.5 -61v-14zM383 1481l149 151l152 -151l-152 -150zM799 1481l151 151l150 -151l-150 -150z"/>
<glyph unicode="Ì" horiz-adv-x="1007" d="M129 1583h340l182 -190h-174zM258 -4l10 49h15q45 5 61 23t16 75v910q0 57 -16 75t-61 23h-15l-10 49h16q17 0 52 -2t47 -2h262q11 0 46 2t52 2h17l-11 -49h-14q-46 -5 -62 -23t-16 -75v-910q0 -57 16 -75t62 -23h14l11 -49h-17q-17 0 -52 2t-46 2h-262q-12 0 -47 -2 t-52 -2h-16z"/>
<glyph unicode="Í" horiz-adv-x="1007" d="M258 -4l10 49h15q45 5 61 23t16 75v910q0 57 -16 75t-61 23h-15l-10 49h16q17 0 52 -2t47 -2h262q11 0 46 2t52 2h17l-11 -49h-14q-46 -5 -62 -23t-16 -75v-910q0 -57 16 -75t62 -23h14l11 -49h-17q-17 0 -52 2t-46 2h-262q-12 0 -47 -2t-52 -2h-16zM356 1393l182 190 h340l-348 -190h-174z"/>
<glyph unicode="Î" horiz-adv-x="1007" d="M228 1391l184 192h184l185 -192h-174l-103 57l-102 -57h-174zM258 -4l10 49h15q45 5 61 23t16 75v910q0 57 -16 75t-61 23h-15l-10 49h16q17 0 52 -2t47 -2h262q11 0 46 2t52 2h17l-11 -49h-14q-46 -5 -62 -23t-16 -75v-910q0 -57 16 -75t62 -23h14l11 -49h-17 q-17 0 -52 2t-46 2h-262q-12 0 -47 -2t-52 -2h-16z"/>
<glyph unicode="Ï" horiz-adv-x="1007" d="M146 1481l149 151l152 -151l-152 -150zM258 -4l10 49h15q45 5 61 23t16 75v910q0 57 -16 75t-61 23h-15l-10 49h16q17 0 52 -2t47 -2h262q11 0 46 2t52 2h17l-11 -49h-14q-46 -5 -62 -23t-16 -75v-910q0 -57 16 -75t62 -23h14l11 -49h-17q-17 0 -52 2t-46 2h-262 q-12 0 -47 -2t-52 -2h-16zM562 1481l151 151l150 -151l-150 -150z"/>
<glyph unicode="Ð" horiz-adv-x="1609" d="M252 504v205h141v344q0 57 -16 75t-62 23h-14l-10 49h16q17 0 52 -2t47 -2h139q141 8 229 8q123 0 235 -48t193.5 -129.5t129.5 -193.5t48 -235t-48 -235t-129.5 -193.5t-193.5 -129.5t-235 -48q-40 0 -89 2t-78 4l-29 2h-172q-12 0 -47 -2t-52 -2h-16l10 49h14 q46 5 62 23t16 75v361h-141zM680 236h70q149 0 254.5 105.5t105.5 256.5t-105.5 257t-254.5 106h-70v-252h151v-205h-151v-268z"/>
<glyph unicode="Ñ" horiz-adv-x="1607" d="M225 -4l11 49h14q46 5 62 23t16 75v910q0 57 -16 75t-62 23h-14l-11 49h17q18 0 52 -2t46 -2h229q11 0 46 2t53 2h16l-10 -49h-15q-45 -5 -61 -23t-16 -75v-9l444 -444v453q0 57 -16 75t-62 23h-14l-12 49h18q18 0 52 -2t46 -2h228q12 0 46 2t52 2h18l-10 -49h-16 q-45 -5 -60.5 -23t-15.5 -75v-910q0 -57 15.5 -75t60.5 -23h16l10 -49h-18q-18 0 -52 2t-46 2h-228q-12 0 -46 -2t-52 -2h-18l12 49h14q46 5 62 23t16 75v11l-444 446v-457q0 -57 16 -75t61 -23h15l10 -49h-16q-18 0 -53 2t-46 2h-229q-12 0 -46 -2t-52 -2h-17zM492 1391 q3 21 8 43t20 56.5t36 60t58.5 44.5t85.5 19q46 0 128.5 -34t109.5 -34q28 0 45.5 21t17.5 47h115q-2 -20 -7.5 -42.5t-20.5 -56.5t-36.5 -60t-59 -45t-85.5 -19q-46 0 -128 33.5t-109 33.5q-28 0 -46 -20.5t-18 -46.5h-114z"/>
<glyph unicode="Ò" horiz-adv-x="1716" d="M229 598q0 171 84.5 316t229.5 229t315 84q128 0 244.5 -49.5t201 -134t134 -201t49.5 -244.5t-49.5 -244.5t-134 -201t-201 -134t-244.5 -49.5q-170 0 -315 84t-229.5 229t-84.5 316zM483 1583h340l182 -190h-174zM494 506q26 -100 99.5 -174t172.5 -99v273h-272z M494 690h272v273q-100 -25 -173.5 -99t-98.5 -174zM950 233q101 25 175.5 99t99.5 174h-275v-273zM950 690h275q-26 100 -100 174t-175 99v-273z"/>
<glyph unicode="Ó" horiz-adv-x="1716" d="M229 598q0 171 84.5 316t229.5 229t315 84q128 0 244.5 -49.5t201 -134t134 -201t49.5 -244.5t-49.5 -244.5t-134 -201t-201 -134t-244.5 -49.5q-170 0 -315 84t-229.5 229t-84.5 316zM494 506q26 -100 99.5 -174t172.5 -99v273h-272zM494 690h272v273 q-100 -25 -173.5 -99t-98.5 -174zM711 1393l182 190h340l-348 -190h-174zM950 233q101 25 175.5 99t99.5 174h-275v-273zM950 690h275q-26 100 -100 174t-175 99v-273z"/>
<glyph unicode="Ô" horiz-adv-x="1716" d="M229 598q0 171 84.5 316t229.5 229t315 84q128 0 244.5 -49.5t201 -134t134 -201t49.5 -244.5t-49.5 -244.5t-134 -201t-201 -134t-244.5 -49.5q-170 0 -315 84t-229.5 229t-84.5 316zM494 506q26 -100 99.5 -174t172.5 -99v273h-272zM494 690h272v273 q-100 -25 -173.5 -99t-98.5 -174zM582 1391l184 192h184l185 -192h-174l-103 57l-102 -57h-174zM950 233q101 25 175.5 99t99.5 174h-275v-273zM950 690h275q-26 100 -100 174t-175 99v-273z"/>
<glyph unicode="Õ" horiz-adv-x="1716" d="M229 598q0 171 84.5 316t229.5 229t315 84q128 0 244.5 -49.5t201 -134t134 -201t49.5 -244.5t-49.5 -244.5t-134 -201t-201 -134t-244.5 -49.5q-170 0 -315 84t-229.5 229t-84.5 316zM494 506q26 -100 99.5 -174t172.5 -99v273h-272zM494 690h272v273 q-100 -25 -173.5 -99t-98.5 -174zM545 1391q2 20 7.5 42.5t20.5 56.5t36.5 60t59 45t85.5 19q46 0 128 -34t109 -34q28 0 46 21t18 47h114q-3 -21 -8 -43t-20 -56.5t-36 -60t-58.5 -44.5t-85.5 -19q-46 0 -128.5 33.5t-109.5 33.5q-28 0 -46 -20.5t-18 -46.5h-114zM950 233 q101 25 175.5 99t99.5 174h-275v-273zM950 690h275q-26 100 -100 174t-175 99v-273z"/>
<glyph unicode="Ö" horiz-adv-x="1716" d="M229 598q0 171 84.5 316t229.5 229t315 84q128 0 244.5 -49.5t201 -134t134 -201t49.5 -244.5t-49.5 -244.5t-134 -201t-201 -134t-244.5 -49.5q-170 0 -315 84t-229.5 229t-84.5 316zM494 506q26 -100 99.5 -174t172.5 -99v273h-272zM494 690h272v273 q-100 -25 -173.5 -99t-98.5 -174zM500 1481l149 151l152 -151l-152 -150zM915 1481l152 151l150 -151l-150 -150zM950 233q101 25 175.5 99t99.5 174h-275v-273zM950 690h275q-26 100 -100 174t-175 99v-273z"/>
<glyph unicode="×" horiz-adv-x="1306" d="M213 487l43 29q6 -6 10 -12q32 -28 58 -26.5t67 42.5l105 107l-105 102q-41 41 -67 43t-58 -27l-10 -10l-43 27l12 12q14 14 40.5 36.5t33.5 29.5l137 139q9 8 32.5 35t35.5 39l12 12l27 -43q-7 -6 -13 -10q-28 -32 -25.5 -58.5t42.5 -66.5l104 -105l107 107 q41 39 42.5 65t-26.5 58l-10 10l27 43l12 -12q14 -15 38 -42.5t27 -31.5l138 -137q8 -8 34.5 -31t38.5 -35l15 -12l-43 -27q-7 5 -13 11q-30 28 -57 26t-68 -43l-106 -104l106 -107q41 -41 68 -42.5t57 26.5l13 10l43 -27l-15 -12q-12 -12 -38.5 -35.5t-34.5 -31.5 l-138 -138q-7 -7 -30 -33t-35 -38l-12 -15l-27 43q4 7 10 13q28 30 26.5 57t-42.5 68l-107 104l-104 -104q-40 -41 -42.5 -67t25.5 -58l13 -11l-27 -43l-12 13q-13 13 -36.5 39t-31.5 34l-137 138q-9 10 -37 33.5t-37 31.5z"/>
<glyph unicode="Ø" horiz-adv-x="1716" d="M211 92l137 137q-119 164 -119 369q0 171 84.5 316t229.5 229t315 84q209 0 369 -119l131 131l143 -147l-129 -129q115 -159 115 -365q0 -128 -49.5 -244.5t-134 -201t-201 -134t-244.5 -49.5q-204 0 -362 117l-140 -139zM494 598q0 -94 45 -176l495 496q-82 45 -176 45 q-151 0 -257.5 -107t-106.5 -258zM682 279q81 -46 176 -46q152 0 259.5 107t107.5 258q0 94 -45 176z"/>
<glyph unicode="Ù" horiz-adv-x="1890" d="M213 1200h18q17 0 52 -2t47 -2h262q12 0 46 2t52 2h19l-13 -49h-14q-46 -5 -62 -23t-16 -75v-451q0 -141 100.5 -241.5t241.5 -100.5t240.5 100.5t99.5 241.5v451q0 57 -16 75t-62 23h-14l-10 49h16q18 0 52 -2t46 -2h263q11 0 46 2t52 2h18l-10 -49h-16 q-45 -5 -60.5 -23t-15.5 -75v-455q0 -171 -84.5 -316t-229.5 -229t-315 -84q-128 0 -245 49.5t-201.5 134t-134.5 201t-50 244.5v455q0 58 -15 75.5t-60 22.5h-15zM571 1583h340l182 -190h-174z"/>
<glyph unicode="Ú" horiz-adv-x="1890" d="M213 1200h18q17 0 52 -2t47 -2h262q12 0 46 2t52 2h19l-13 -49h-14q-46 -5 -62 -23t-16 -75v-451q0 -141 100.5 -241.5t241.5 -100.5t240.5 100.5t99.5 241.5v451q0 57 -16 75t-62 23h-14l-10 49h16q18 0 52 -2t46 -2h263q11 0 46 2t52 2h18l-10 -49h-16 q-45 -5 -60.5 -23t-15.5 -75v-455q0 -171 -84.5 -316t-229.5 -229t-315 -84q-128 0 -245 49.5t-201.5 134t-134.5 201t-50 244.5v455q0 58 -15 75.5t-60 22.5h-15zM797 1393l182 190h340l-348 -190h-174z"/>
<glyph unicode="Û" horiz-adv-x="1890" d="M213 1200h18q17 0 52 -2t47 -2h262q12 0 46 2t52 2h19l-13 -49h-14q-46 -5 -62 -23t-16 -75v-451q0 -141 100.5 -241.5t241.5 -100.5t240.5 100.5t99.5 241.5v451q0 57 -16 75t-62 23h-14l-10 49h16q18 0 52 -2t46 -2h263q11 0 46 2t52 2h18l-10 -49h-16 q-45 -5 -60.5 -23t-15.5 -75v-455q0 -171 -84.5 -316t-229.5 -229t-315 -84q-128 0 -245 49.5t-201.5 134t-134.5 201t-50 244.5v455q0 58 -15 75.5t-60 22.5h-15zM668 1391l184 192h184l185 -192h-174l-103 57l-102 -57h-174z"/>
<glyph unicode="Ü" horiz-adv-x="1890" d="M213 1200h18q17 0 52 -2t47 -2h262q12 0 46 2t52 2h19l-13 -49h-14q-46 -5 -62 -23t-16 -75v-451q0 -141 100.5 -241.5t241.5 -100.5t240.5 100.5t99.5 241.5v451q0 57 -16 75t-62 23h-14l-10 49h16q18 0 52 -2t46 -2h263q11 0 46 2t52 2h18l-10 -49h-16 q-45 -5 -60.5 -23t-15.5 -75v-455q0 -171 -84.5 -316t-229.5 -229t-315 -84q-128 0 -245 49.5t-201.5 134t-134.5 201t-50 244.5v455q0 58 -15 75.5t-60 22.5h-15zM586 1481l149 151l152 -151l-152 -150zM1001 1481l152 151l150 -151l-150 -150z"/>
<glyph unicode="Ý" horiz-adv-x="1650" d="M74 977l12 12q2 2 74 66l182 186q9 8 32 34t36 38l12 12l27 -43q-7 -6 -11 -8q-29 -34 -26.5 -60t43.5 -67l356 -356l356 356q41 41 43.5 67t-26.5 60l-10 8l26 43l12 -12q13 -12 36 -38t32 -34l182 -186q72 -64 74 -66l12 -12l-43 -27q-4 7 -10 11q-32 28 -58 26 t-65 -43l-418 -416v-385q0 -57 16 -75t62 -23h15l12 -49h-19q-18 0 -52 2t-46 2h-260q-12 0 -46 -2t-52 -2h-19l13 49h14q45 5 60.5 23t15.5 75v385l-418 416q-39 41 -65 43t-58 -26l-10 -11zM664 1393l182 190h340l-348 -190h-174z"/>
<glyph unicode="Þ" horiz-adv-x="1245" d="M225 -4l11 49h14q46 5 62 23t16 75v910q0 57 -16 75t-62 23h-14l-11 49h17q18 0 52 -2t46 -2h262q12 0 46 2t52 2h17l-10 -49h-15q-46 -5 -62 -23t-16 -75v-15h107q153 0 262 -104t109 -256q0 -154 -108.5 -262.5t-262.5 -108.5h-107v-164q0 -57 16 -75t62 -23h15l10 -49 h-17q-18 0 -52 2t-46 2h-262q-12 0 -46 -2t-52 -2h-17zM614 520h70q60 -4 105 47.5t45 116.5q0 62 -44.5 109t-105.5 47h-70v-320z"/>
<glyph unicode="ß" horiz-adv-x="1454" d="M225 -4l11 49h14q46 5 62 23t16 75v705q0 100 42 185.5t124.5 139.5t189.5 54q147 0 248.5 -76.5t101.5 -206.5q0 -47 -11.5 -82.5t-27.5 -56.5t-32 -39t-27.5 -39.5t-11.5 -48.5q0 -20 18.5 -38.5t47.5 -36t64 -37t70.5 -47t64.5 -60t47.5 -81t18.5 -106.5 q0 -136 -89.5 -219.5t-252.5 -83.5q-68 0 -122 25t-86.5 67.5t-50.5 92t-23 104.5q124 27 233 82l13 -39q-13 -9 -21.5 -13.5t-10.5 -5t-5 -2.5t-9 -8q2 -33 31 -64.5t68 -31.5q112 0 112 90q0 30 -26 58.5t-65 50t-84 51t-84 61t-65 81.5t-26 110q0 38 11.5 70t28 54 t33.5 43t28.5 46t11.5 53q0 39 -32.5 61.5t-88.5 22.5q-58 0 -88.5 -53t-30.5 -127v-705q0 -57 16 -75t62 -23h14l11 -49h-17q-17 0 -52 2t-46 2h-213q-12 0 -46 -2t-52 -2h-17z"/>
<glyph unicode="à" horiz-adv-x="1683" d="M94 82l33 39q8 -4 12 -8q38 -17 63.5 -7.5t51.5 60.5l586 1100l587 -1100q26 -51 50.5 -60t64.5 7l12 8l33 -39l-16 -8q-12 -6 -44.5 -20.5t-43.5 -20.5l-232 -123q-6 -4 -22 -14l-32 -20t-30 -17l-16 -9l-12 50l12 6q38 26 43 49t-20 76l-76 153h-514l-76 -153 q-25 -52 -20.5 -76t40.5 -49l15 -6l-15 -50l-16 9q-17 9 -47 28.5t-35 22.5l-231 123l-88 41zM465 1583h340l182 -190h-174zM698 418h285l-143 289z"/>
<glyph unicode="á" horiz-adv-x="1683" d="M94 82l33 39q8 -4 12 -8q38 -17 63.5 -7.5t51.5 60.5l586 1100l587 -1100q26 -51 50.5 -60t64.5 7l12 8l33 -39l-16 -8q-12 -6 -44.5 -20.5t-43.5 -20.5l-232 -123q-6 -4 -22 -14l-32 -20t-30 -17l-16 -9l-12 50l12 6q38 26 43 49t-20 76l-76 153h-514l-76 -153 q-25 -52 -20.5 -76t40.5 -49l15 -6l-15 -50l-16 9q-17 9 -47 28.5t-35 22.5l-231 123l-88 41zM692 1393l182 190h340l-348 -190h-174zM698 418h285l-143 289z"/>
<glyph unicode="â" horiz-adv-x="1683" d="M94 82l33 39q8 -4 12 -8q38 -17 63.5 -7.5t51.5 60.5l586 1100l587 -1100q26 -51 50.5 -60t64.5 7l12 8l33 -39l-16 -8q-12 -6 -44.5 -20.5t-43.5 -20.5l-232 -123q-6 -4 -22 -14l-32 -20t-30 -17l-16 -9l-12 50l12 6q38 26 43 49t-20 76l-76 153h-514l-76 -153 q-25 -52 -20.5 -76t40.5 -49l15 -6l-15 -50l-16 9q-17 9 -47 28.5t-35 22.5l-231 123l-88 41zM563 1391l185 192h184l184 -192h-174l-102 57l-103 -57h-174zM698 418h285l-143 289z"/>
<glyph unicode="ã" horiz-adv-x="1683" d="M94 82l33 39q8 -4 12 -8q38 -17 63.5 -7.5t51.5 60.5l586 1100l587 -1100q26 -51 50.5 -60t64.5 7l12 8l33 -39l-16 -8q-12 -6 -44.5 -20.5t-43.5 -20.5l-232 -123q-6 -4 -22 -14l-32 -20t-30 -17l-16 -9l-12 50l12 6q38 26 43 49t-20 76l-76 153h-514l-76 -153 q-25 -52 -20.5 -76t40.5 -49l15 -6l-15 -50l-16 9q-17 9 -47 28.5t-35 22.5l-231 123l-88 41zM526 1391q2 20 7.5 42.5t20.5 56.5t36.5 60t59 45t85.5 19q46 0 128.5 -34t109.5 -34q28 0 45.5 21t17.5 47h115q-2 -20 -7.5 -42.5t-20.5 -56.5t-36.5 -60t-59 -45t-85.5 -19 q-46 0 -128 33.5t-109 33.5q-28 0 -46 -20.5t-18 -46.5h-115zM698 418h285l-143 289z"/>
<glyph unicode="ä" horiz-adv-x="1683" d="M94 82l33 39q8 -4 12 -8q38 -17 63.5 -7.5t51.5 60.5l586 1100l587 -1100q26 -51 50.5 -60t64.5 7l12 8l33 -39l-16 -8q-12 -6 -44.5 -20.5t-43.5 -20.5l-232 -123q-6 -4 -22 -14l-32 -20t-30 -17l-16 -9l-12 50l12 6q38 26 43 49t-20 76l-76 153h-514l-76 -153 q-25 -52 -20.5 -76t40.5 -49l15 -6l-15 -50l-16 9q-17 9 -47 28.5t-35 22.5l-231 123l-88 41zM481 1481l150 151l151 -151l-151 -150zM698 418h285l-143 289zM897 1481l152 151l149 -151l-149 -150z"/>
<glyph unicode="å" horiz-adv-x="1683" d="M94 82l33 39q8 -4 12 -8q38 -17 63.5 -7.5t51.5 60.5l586 1100l587 -1100q26 -51 50.5 -60t64.5 7l12 8l33 -39l-16 -8q-12 -6 -44.5 -20.5t-43.5 -20.5l-232 -123q-6 -4 -22 -14l-32 -20t-30 -17l-16 -9l-12 50l12 6q38 26 43 49t-20 76l-76 153h-514l-76 -153 q-25 -52 -20.5 -76t40.5 -49l15 -6l-15 -50l-16 9q-17 9 -47 28.5t-35 22.5l-231 123l-88 41zM633 1536q0 84 60.5 144.5t144.5 60.5q86 0 146.5 -60t60.5 -145t-60.5 -146t-146.5 -61q-83 0 -144 61t-61 146zM698 418h285l-143 289zM752 1536q0 -35 25.5 -61.5t60.5 -26.5 t60.5 26.5t25.5 61.5t-25.5 61.5t-60.5 26.5t-60.5 -26.5t-25.5 -61.5z"/>
<glyph unicode="æ" horiz-adv-x="1906" d="M94 82l37 39q8 -4 12 -8q38 -17 63.5 -7.5t55.5 60.5l621 1030h606q57 0 75.5 16t24.5 62v14l49 10v-16q0 -18 -3 -52t-3 -46v-238q0 -8 2 -32.5t2 -39.5l-55 15q-6 25 -26 34t-66 9h-318v-209h318q54 0 73 15t27 44v17l49 10v-18q0 -17 -3 -52t-3 -47v-205q0 -11 3 -37 t3 -44v-17l-49 10v15q-7 33 -25.5 47t-74.5 14h-318v-211h318q46 0 66 9t26 34l55 15q0 -15 -2 -39.5t-2 -32.5v-238q0 -11 3 -45.5t3 -52.5v-16l-49 10v14q-6 46 -24.5 62t-75.5 16h-375l-229 -207v350h-316l-63 -112q-28 -52 -25.5 -76t37.5 -49l14 -6l-16 -50l-16 9 q-14 8 -42 26.5t-40 24.5l-221 123q-9 5 -23.5 12t-33.5 15.5t-29 13.5zM713 397h172v326z"/>
<glyph unicode="ç" horiz-adv-x="1458" d="M229 598q0 171 84.5 316t229.5 229t315 84q211 0 385 -131q0 -39 3 -177t3 -194h-49q-17 88 -113.5 163t-228.5 75q-151 0 -257.5 -107t-106.5 -258t106.5 -258t257.5 -107q135 0 231.5 71t110.5 165h49l-6 -367q-125 -101 -291 -125l-272 -194h-113l172 199 q-219 40 -364.5 214t-145.5 402z"/>
<glyph unicode="è" d="M229 373v16q0 17 2 52t2 46v222q0 11 -2 46t-2 52v18l50 -10v-16q5 -43 22.5 -59t71.5 -17v473h602q57 0 76 16.5t24 61.5v14l49 10v-16q0 -18 -3 -52t-3 -46v-238q0 -8 2 -32.5t2 -39.5l-53 15q-7 25 -27.5 34t-66.5 9h-316v-209h316q54 0 74.5 15.5t25.5 43.5v17l49 10 v-18q0 -17 -3 -52t-3 -47v-205q0 -11 3 -37t3 -44v-17l-49 10q2 9 0 15q-5 33 -24.5 47t-75.5 14h-316v-211h316q46 0 66.5 9t27.5 34l53 15q0 -15 -2 -39.5t-2 -32.5v-238q0 -11 3 -45.5t3 -52.5v-16l-49 10v14q-5 45 -24 61.5t-76 16.5h-373l-229 -207v682 q-54 -1 -71.5 -17t-22.5 -61v-14zM418 1583h340l182 -190h-174z"/>
<glyph unicode="é" d="M229 373v16q0 17 2 52t2 46v222q0 11 -2 46t-2 52v18l50 -10v-16q5 -43 22.5 -59t71.5 -17v473h602q57 0 76 16.5t24 61.5v14l49 10v-16q0 -18 -3 -52t-3 -46v-238q0 -8 2 -32.5t2 -39.5l-53 15q-7 25 -27.5 34t-66.5 9h-316v-209h316q54 0 74.5 15.5t25.5 43.5v17l49 10 v-18q0 -17 -3 -52t-3 -47v-205q0 -11 3 -37t3 -44v-17l-49 10q2 9 0 15q-5 33 -24.5 47t-75.5 14h-316v-211h316q46 0 66.5 9t27.5 34l53 15q0 -15 -2 -39.5t-2 -32.5v-238q0 -11 3 -45.5t3 -52.5v-16l-49 10v14q-5 45 -24 61.5t-76 16.5h-373l-229 -207v682 q-54 -1 -71.5 -17t-22.5 -61v-14zM592 1393l182 190h340l-348 -190h-174z"/>
<glyph unicode="ê" d="M229 373v16q0 17 2 52t2 46v222q0 11 -2 46t-2 52v18l50 -10v-16q5 -43 22.5 -59t71.5 -17v473h602q57 0 76 16.5t24 61.5v14l49 10v-16q0 -18 -3 -52t-3 -46v-238q0 -8 2 -32.5t2 -39.5l-53 15q-7 25 -27.5 34t-66.5 9h-316v-209h316q54 0 74.5 15.5t25.5 43.5v17l49 10 v-18q0 -17 -3 -52t-3 -47v-205q0 -11 3 -37t3 -44v-17l-49 10q2 9 0 15q-5 33 -24.5 47t-75.5 14h-316v-211h316q46 0 66.5 9t27.5 34l53 15q0 -15 -2 -39.5t-2 -32.5v-238q0 -11 3 -45.5t3 -52.5v-16l-49 10v14q-5 45 -24 61.5t-76 16.5h-373l-229 -207v682 q-54 -1 -71.5 -17t-22.5 -61v-14zM469 1391l184 192h184l185 -192h-174l-103 57l-102 -57h-174z"/>
<glyph unicode="ë" d="M229 373v16q0 17 2 52t2 46v222q0 11 -2 46t-2 52v18l50 -10v-16q5 -43 22.5 -59t71.5 -17v473h602q57 0 76 16.5t24 61.5v14l49 10v-16q0 -18 -3 -52t-3 -46v-238q0 -8 2 -32.5t2 -39.5l-53 15q-7 25 -27.5 34t-66.5 9h-316v-209h316q54 0 74.5 15.5t25.5 43.5v17l49 10 v-18q0 -17 -3 -52t-3 -47v-205q0 -11 3 -37t3 -44v-17l-49 10q2 9 0 15q-5 33 -24.5 47t-75.5 14h-316v-211h316q46 0 66.5 9t27.5 34l53 15q0 -15 -2 -39.5t-2 -32.5v-238q0 -11 3 -45.5t3 -52.5v-16l-49 10v14q-5 45 -24 61.5t-76 16.5h-373l-229 -207v682 q-54 -1 -71.5 -17t-22.5 -61v-14zM383 1481l149 151l152 -151l-152 -150zM799 1481l151 151l150 -151l-150 -150z"/>
<glyph unicode="ì" horiz-adv-x="1007" d="M129 1583h340l182 -190h-174zM258 -4l10 49h15q45 5 61 23t16 75v910q0 57 -16 75t-61 23h-15l-10 49h16q17 0 52 -2t47 -2h262q11 0 46 2t52 2h17l-11 -49h-14q-46 -5 -62 -23t-16 -75v-910q0 -57 16 -75t62 -23h14l11 -49h-17q-17 0 -52 2t-46 2h-262q-12 0 -47 -2 t-52 -2h-16z"/>
<glyph unicode="í" horiz-adv-x="1007" d="M258 -4l10 49h15q45 5 61 23t16 75v910q0 57 -16 75t-61 23h-15l-10 49h16q17 0 52 -2t47 -2h262q11 0 46 2t52 2h17l-11 -49h-14q-46 -5 -62 -23t-16 -75v-910q0 -57 16 -75t62 -23h14l11 -49h-17q-17 0 -52 2t-46 2h-262q-12 0 -47 -2t-52 -2h-16zM356 1393l183 190 h340l-349 -190h-174z"/>
<glyph unicode="î" horiz-adv-x="1007" d="M227 1391l185 192h184l184 -192h-174l-102 57l-103 -57h-174zM258 -4l10 49h15q45 5 61 23t16 75v910q0 57 -16 75t-61 23h-15l-10 49h16q17 0 52 -2t47 -2h262q11 0 46 2t52 2h17l-11 -49h-14q-46 -5 -62 -23t-16 -75v-910q0 -57 16 -75t62 -23h14l11 -49h-17 q-17 0 -52 2t-46 2h-262q-12 0 -47 -2t-52 -2h-16z"/>
<glyph unicode="ï" horiz-adv-x="1007" d="M145 1481l150 151l151 -151l-151 -150zM258 -4l10 49h15q45 5 61 23t16 75v910q0 57 -16 75t-61 23h-15l-10 49h16q17 0 52 -2t47 -2h262q11 0 46 2t52 2h17l-11 -49h-14q-46 -5 -62 -23t-16 -75v-910q0 -57 16 -75t62 -23h14l11 -49h-17q-17 0 -52 2t-46 2h-262 q-12 0 -47 -2t-52 -2h-16zM561 1481l152 151l149 -151l-149 -150z"/>
<glyph unicode="ð" horiz-adv-x="1609" d="M252 504v205h141v344q0 57 -16 75t-62 23h-14l-10 49h16q17 0 52 -2t47 -2h139q141 8 229 8q123 0 235 -48t193.5 -129.5t129.5 -193.5t48 -235t-48 -235t-129.5 -193.5t-193.5 -129.5t-235 -48q-40 0 -89 2t-78 4l-29 2h-172q-12 0 -47 -2t-52 -2h-16l10 49h14 q46 5 62 23t16 75v361h-141zM680 236h70q149 0 254.5 105.5t105.5 256.5t-105.5 257t-254.5 106h-70v-252h151v-205h-151v-268z"/>
<glyph unicode="ñ" horiz-adv-x="1607" d="M225 -4l11 49h14q46 5 62 23t16 75v910q0 57 -16 75t-62 23h-14l-11 49h17q18 0 52 -2t46 -2h229q11 0 46 2t53 2h16l-10 -49h-15q-45 -5 -61 -23t-16 -75v-9l444 -444v453q0 57 -16 75t-62 23h-14l-12 49h18q18 0 52 -2t46 -2h228q12 0 46 2t52 2h18l-10 -49h-16 q-45 -5 -60.5 -23t-15.5 -75v-910q0 -57 15.5 -75t60.5 -23h16l10 -49h-18q-18 0 -52 2t-46 2h-228q-12 0 -46 -2t-52 -2h-18l12 49h14q46 5 62 23t16 75v11l-444 446v-457q0 -57 16 -75t61 -23h15l10 -49h-16q-18 0 -53 2t-46 2h-229q-12 0 -46 -2t-52 -2h-17zM492 1391 q3 21 8 43t20 56.5t36 60t58.5 44.5t85.5 19q46 0 128.5 -34t109.5 -34q28 0 45.5 21t17.5 47h115q-2 -20 -7.5 -42.5t-20.5 -56.5t-36.5 -60t-59 -45t-85.5 -19q-46 0 -128 33.5t-109 33.5q-28 0 -46 -20.5t-18 -46.5h-114z"/>
<glyph unicode="ò" horiz-adv-x="1716" d="M229 598q0 171 84.5 316t229.5 229t315 84q128 0 244.5 -49.5t201 -134t134 -201t49.5 -244.5t-49.5 -244.5t-134 -201t-201 -134t-244.5 -49.5q-170 0 -315 84t-229.5 229t-84.5 316zM483 1583h340l182 -190h-174zM494 506q26 -100 99.5 -174t172.5 -99v273h-272z M494 690h272v273q-100 -25 -173.5 -99t-98.5 -174zM950 233q101 25 175.5 99t99.5 174h-275v-273zM950 690h275q-26 100 -100 174t-175 99v-273z"/>
<glyph unicode="ó" horiz-adv-x="1716" d="M229 598q0 171 84.5 316t229.5 229t315 84q128 0 244.5 -49.5t201 -134t134 -201t49.5 -244.5t-49.5 -244.5t-134 -201t-201 -134t-244.5 -49.5q-170 0 -315 84t-229.5 229t-84.5 316zM494 506q26 -100 99.5 -174t172.5 -99v273h-272zM494 690h272v273 q-100 -25 -173.5 -99t-98.5 -174zM711 1393l182 190h340l-348 -190h-174zM950 233q101 25 175.5 99t99.5 174h-275v-273zM950 690h275q-26 100 -100 174t-175 99v-273z"/>
<glyph unicode="ô" horiz-adv-x="1716" d="M229 598q0 171 84.5 316t229.5 229t315 84q128 0 244.5 -49.5t201 -134t134 -201t49.5 -244.5t-49.5 -244.5t-134 -201t-201 -134t-244.5 -49.5q-170 0 -315 84t-229.5 229t-84.5 316zM494 506q26 -100 99.5 -174t172.5 -99v273h-272zM494 690h272v273 q-100 -25 -173.5 -99t-98.5 -174zM582 1391l184 192h184l185 -192h-174l-103 57l-102 -57h-174zM950 233q101 25 175.5 99t99.5 174h-275v-273zM950 690h275q-26 100 -100 174t-175 99v-273z"/>
<glyph unicode="õ" horiz-adv-x="1716" d="M229 598q0 171 84.5 316t229.5 229t315 84q128 0 244.5 -49.5t201 -134t134 -201t49.5 -244.5t-49.5 -244.5t-134 -201t-201 -134t-244.5 -49.5q-170 0 -315 84t-229.5 229t-84.5 316zM494 506q26 -100 99.5 -174t172.5 -99v273h-272zM494 690h272v273 q-100 -25 -173.5 -99t-98.5 -174zM545 1391q2 20 7.5 42.5t20.5 56.5t36.5 60t59 45t85.5 19q46 0 128 -34t109 -34q28 0 46 21t18 47h114q-3 -21 -8 -43t-20 -56.5t-36 -60t-58.5 -44.5t-85.5 -19q-46 0 -128.5 33.5t-109.5 33.5q-28 0 -46 -20.5t-18 -46.5h-114zM950 233 q101 25 175.5 99t99.5 174h-275v-273zM950 690h275q-26 100 -100 174t-175 99v-273z"/>
<glyph unicode="ö" horiz-adv-x="1716" d="M229 598q0 171 84.5 316t229.5 229t315 84q128 0 244.5 -49.5t201 -134t134 -201t49.5 -244.5t-49.5 -244.5t-134 -201t-201 -134t-244.5 -49.5q-170 0 -315 84t-229.5 229t-84.5 316zM494 506q26 -100 99.5 -174t172.5 -99v273h-272zM494 690h272v273 q-100 -25 -173.5 -99t-98.5 -174zM500 1481l149 151l152 -151l-152 -150zM915 1481l152 151l150 -151l-150 -150zM950 233q101 25 175.5 99t99.5 174h-275v-273zM950 690h275q-26 100 -100 174t-175 99v-273z"/>
<glyph unicode="ø" horiz-adv-x="1716" d="M211 92l137 137q-119 164 -119 369q0 171 84.5 316t229.5 229t315 84q209 0 369 -119l131 131l143 -147l-129 -129q115 -159 115 -365q0 -128 -49.5 -244.5t-134 -201t-201 -134t-244.5 -49.5q-204 0 -362 117l-140 -139zM494 598q0 -94 45 -176l495 496q-82 45 -176 45 q-151 0 -257.5 -107t-106.5 -258zM682 279q81 -46 176 -46q152 0 259.5 107t107.5 258q0 94 -45 176z"/>
<glyph unicode="ù" horiz-adv-x="1890" d="M213 1200h18q17 0 52 -2t47 -2h262q12 0 46 2t52 2h19l-13 -49h-14q-46 -5 -62 -23t-16 -75v-451q0 -141 100.5 -241.5t241.5 -100.5t240.5 100.5t99.5 241.5v451q0 57 -16 75t-62 23h-14l-10 49h16q18 0 52 -2t46 -2h263q11 0 46 2t52 2h18l-10 -49h-16 q-45 -5 -60.5 -23t-15.5 -75v-455q0 -171 -84.5 -316t-229.5 -229t-315 -84q-128 0 -245 49.5t-201.5 134t-134.5 201t-50 244.5v455q0 58 -15 75.5t-60 22.5h-15zM571 1583h340l182 -190h-174z"/>
<glyph unicode="ú" horiz-adv-x="1890" d="M213 1200h18q17 0 52 -2t47 -2h262q12 0 46 2t52 2h19l-13 -49h-14q-46 -5 -62 -23t-16 -75v-451q0 -141 100.5 -241.5t241.5 -100.5t240.5 100.5t99.5 241.5v451q0 57 -16 75t-62 23h-14l-10 49h16q18 0 52 -2t46 -2h263q11 0 46 2t52 2h18l-10 -49h-16 q-45 -5 -60.5 -23t-15.5 -75v-455q0 -171 -84.5 -316t-229.5 -229t-315 -84q-128 0 -245 49.5t-201.5 134t-134.5 201t-50 244.5v455q0 58 -15 75.5t-60 22.5h-15zM797 1393l182 190h340l-348 -190h-174z"/>
<glyph unicode="û" horiz-adv-x="1890" d="M213 1200h18q17 0 52 -2t47 -2h262q12 0 46 2t52 2h19l-13 -49h-14q-46 -5 -62 -23t-16 -75v-451q0 -141 100.5 -241.5t241.5 -100.5t240.5 100.5t99.5 241.5v451q0 57 -16 75t-62 23h-14l-10 49h16q18 0 52 -2t46 -2h263q11 0 46 2t52 2h18l-10 -49h-16 q-45 -5 -60.5 -23t-15.5 -75v-455q0 -171 -84.5 -316t-229.5 -229t-315 -84q-128 0 -245 49.5t-201.5 134t-134.5 201t-50 244.5v455q0 58 -15 75.5t-60 22.5h-15zM668 1391l184 192h184l185 -192h-174l-103 57l-102 -57h-174z"/>
<glyph unicode="ü" horiz-adv-x="1890" d="M213 1200h18q17 0 52 -2t47 -2h262q12 0 46 2t52 2h19l-13 -49h-14q-46 -5 -62 -23t-16 -75v-451q0 -141 100.5 -241.5t241.5 -100.5t240.5 100.5t99.5 241.5v451q0 57 -16 75t-62 23h-14l-10 49h16q18 0 52 -2t46 -2h263q11 0 46 2t52 2h18l-10 -49h-16 q-45 -5 -60.5 -23t-15.5 -75v-455q0 -171 -84.5 -316t-229.5 -229t-315 -84q-128 0 -245 49.5t-201.5 134t-134.5 201t-50 244.5v455q0 58 -15 75.5t-60 22.5h-15zM586 1481l149 151l152 -151l-152 -150zM1001 1481l152 151l150 -151l-150 -150z"/>
<glyph unicode="ý" horiz-adv-x="1650" d="M74 977l12 12q2 2 74 66l182 186q9 8 32 34t36 38l12 12l27 -43q-7 -6 -11 -8q-29 -34 -26.5 -60t43.5 -67l356 -356l356 356q41 41 43.5 67t-26.5 60l-10 8l26 43l12 -12q13 -12 36 -38t32 -34l182 -186q72 -64 74 -66l12 -12l-43 -27q-4 7 -10 11q-32 28 -58 26 t-65 -43l-418 -416v-385q0 -57 16 -75t62 -23h15l12 -49h-19q-18 0 -52 2t-46 2h-260q-12 0 -46 -2t-52 -2h-19l13 49h14q45 5 60.5 23t15.5 75v385l-418 416q-39 41 -65 43t-58 -26l-10 -11zM664 1393l182 190h340l-348 -190h-174z"/>
<glyph unicode="þ" horiz-adv-x="1245" d="M225 -4l11 49h14q46 5 62 23t16 75v910q0 57 -16 75t-62 23h-14l-11 49h17q18 0 52 -2t46 -2h262q12 0 46 2t52 2h17l-10 -49h-15q-46 -5 -62 -23t-16 -75v-15h107q153 0 262 -104t109 -256q0 -154 -108.5 -262.5t-262.5 -108.5h-107v-164q0 -57 16 -75t62 -23h15l10 -49 h-17q-18 0 -52 2t-46 2h-262q-12 0 -46 -2t-52 -2h-17zM614 520h70q60 -4 105 47.5t45 116.5q0 62 -44.5 109t-105.5 47h-70v-320z"/>
<glyph unicode="ÿ" horiz-adv-x="1650" d="M74 977l12 12q2 2 74 66l182 186q9 8 32 34t36 38l12 12l27 -43q-7 -6 -11 -8q-29 -34 -26.5 -60t43.5 -67l356 -356l356 356q41 41 43.5 67t-26.5 60l-10 8l26 43l12 -12q13 -12 36 -38t32 -34l182 -186q72 -64 74 -66l12 -12l-43 -27q-4 7 -10 11q-32 28 -58 26 t-65 -43l-418 -416v-385q0 -57 16 -75t62 -23h15l12 -49h-19q-18 0 -52 2t-46 2h-260q-12 0 -46 -2t-52 -2h-19l13 49h14q45 5 60.5 23t15.5 75v385l-418 416q-39 41 -65 43t-58 -26l-10 -11zM453 1481l149 151l152 -151l-152 -150zM868 1481l152 151l149 -151l-149 -150z "/>
<glyph unicode="Ą" horiz-adv-x="1683" d="M94 82l33 39q8 -4 12 -8q38 -17 63.5 -7.5t51.5 60.5l586 1100l587 -1100q26 -51 50.5 -60t64.5 7l12 8l33 -39l-16 -8q-11 -7 -38 -18.5t-34 -14.5q-44 -30 -80.5 -72.5t-36.5 -87.5q0 -27 18.5 -43t45.5 -16q35 0 80 20v-84q-3 -2 -17.5 -11.5t-24 -15.5t-28.5 -15 t-35.5 -14.5t-39.5 -10t-46 -4.5q-68 0 -109.5 27t-41.5 85q0 49 33 90l-50 -30l-16 -9l-12 50l12 6q38 26 43 49t-20 76l-76 153h-514l-76 -153q-25 -52 -20.5 -76t40.5 -49l15 -6l-15 -50l-16 9q-17 9 -47 28.5t-35 22.5l-231 123l-88 41zM698 418h285l-143 289z"/>
<glyph unicode="ą" horiz-adv-x="1683" d="M94 82l33 39q8 -4 12 -8q38 -17 63.5 -7.5t51.5 60.5l586 1100l587 -1100q26 -51 50.5 -60t64.5 7l12 8l33 -39l-16 -8q-11 -7 -38 -18.5t-34 -14.5q-44 -30 -80.5 -72.5t-36.5 -87.5q0 -27 18.5 -43t45.5 -16q35 0 80 20v-84q-3 -2 -17.5 -11.5t-24 -15.5t-28.5 -15 t-35.5 -14.5t-39.5 -10t-46 -4.5q-68 0 -109.5 27t-41.5 85q0 49 33 90l-50 -30l-16 -9l-12 50l12 6q38 26 43 49t-20 76l-76 153h-514l-76 -153q-25 -52 -20.5 -76t40.5 -49l15 -6l-15 -50l-16 9q-17 9 -47 28.5t-35 22.5l-231 123l-88 41zM698 418h285l-143 289z"/>
<glyph unicode="Ć" horiz-adv-x="1458" d="M229 598q0 171 84.5 316t229.5 229t315 84q211 0 385 -131q0 -39 3 -177t3 -194h-49q-17 88 -113.5 163t-228.5 75q-151 0 -257.5 -107t-106.5 -258t106.5 -258t257.5 -107q135 0 231.5 71t110.5 165h49l-6 -367q-165 -133 -385 -133q-170 0 -315 84t-229.5 229 t-84.5 316zM698 1393l182 190h340l-348 -190h-174z"/>
<glyph unicode="ć" horiz-adv-x="1458" d="M229 598q0 171 84.5 316t229.5 229t315 84q211 0 385 -131q0 -39 3 -177t3 -194h-49q-17 88 -113.5 163t-228.5 75q-151 0 -257.5 -107t-106.5 -258t106.5 -258t257.5 -107q135 0 231.5 71t110.5 165h49l-6 -367q-165 -133 -385 -133q-170 0 -315 84t-229.5 229 t-84.5 316zM698 1393l182 190h340l-348 -190h-174z"/>
<glyph unicode="Ę" d="M229 373v16q0 17 2 52t2 46v222q0 11 -2 46t-2 52v18l50 -10v-16q5 -43 22.5 -59t71.5 -17v473h602q57 0 76 16.5t24 61.5v14l49 10v-16q0 -18 -3 -52t-3 -46v-238q0 -8 2 -32.5t2 -39.5l-53 15q-7 25 -27.5 34t-66.5 9h-316v-209h316q54 0 74.5 15.5t25.5 43.5v17l49 10 v-18q0 -17 -3 -52t-3 -47v-205q0 -11 3 -37t3 -44v-17l-49 10q2 9 0 15q-5 33 -24.5 47t-75.5 14h-316v-211h316q46 0 66.5 9t27.5 34l53 15q0 -15 -2 -39.5t-2 -32.5v-238q0 -11 3 -45.5t3 -52.5v-16l-49 10v14q-5 45 -24 61.5t-76 16.5h-2q-23 -19 -46.5 -51.5 t-23.5 -67.5q0 -27 18.5 -43t45.5 -16q35 0 80 20v-84q-3 -2 -17.5 -11.5t-24 -15.5t-28.5 -15t-35.5 -14.5t-39.5 -10t-46 -4.5q-68 0 -109.5 27t-41.5 85q0 22 6.5 43t21.5 39.5t27 32t35 29t33.5 22.5t34 20t26.5 15h-287l-229 -207v682q-54 -1 -71.5 -17t-22.5 -61v-14z "/>
<glyph unicode="ę" d="M229 373v16q0 17 2 52t2 46v222q0 11 -2 46t-2 52v18l50 -10v-16q5 -43 22.5 -59t71.5 -17v473h602q57 0 76 16.5t24 61.5v14l49 10v-16q0 -18 -3 -52t-3 -46v-238q0 -8 2 -32.5t2 -39.5l-53 15q-7 25 -27.5 34t-66.5 9h-316v-209h316q54 0 74.5 15.5t25.5 43.5v17l49 10 v-18q0 -17 -3 -52t-3 -47v-205q0 -11 3 -37t3 -44v-17l-49 10q2 9 0 15q-5 33 -24.5 47t-75.5 14h-316v-211h316q46 0 66.5 9t27.5 34l53 15q0 -15 -2 -39.5t-2 -32.5v-238q0 -11 3 -45.5t3 -52.5v-16l-49 10v14q-5 45 -24 61.5t-76 16.5h-2q-23 -19 -46.5 -51.5 t-23.5 -67.5q0 -27 18.5 -43t45.5 -16q35 0 80 20v-84q-3 -2 -17.5 -11.5t-24 -15.5t-28.5 -15t-35.5 -14.5t-39.5 -10t-46 -4.5q-68 0 -109.5 27t-41.5 85q0 22 6.5 43t21.5 39.5t27 32t35 29t33.5 22.5t34 20t26.5 15h-287l-229 -207v682q-54 -1 -71.5 -17t-22.5 -61v-14z "/>
<glyph unicode="ı" horiz-adv-x="1007" d="M258 -4l10 49h15q45 5 61 23t16 75v910q0 57 -16 75t-61 23h-15l-10 49h16q17 0 52 -2t47 -2h262q11 0 46 2t52 2h17l-11 -49h-14q-46 -5 -62 -23t-16 -75v-910q0 -57 16 -75t62 -23h14l11 -49h-17q-17 0 -52 2t-46 2h-262q-12 0 -47 -2t-52 -2h-16z"/>
<glyph unicode="Ł" horiz-adv-x="1228" d="M162 434v180l166 66v373q0 57 -16 75t-62 23h-14l-11 49h17q18 0 52 -2t46 -2h262q12 0 46 2t52 2h17l-10 -49h-15q-46 -5 -62 -23t-16 -75v-260l138 55v-180l-138 -56v-325h318q57 0 76 16.5t24 61.5v14l49 10v-16q0 -17 -2 -52t-2 -47v-262q0 -12 2 -46t2 -52v-16 l-49 10v14q-5 45 -24 61.5t-76 16.5h-375l-229 -207v707z"/>
<glyph unicode="ł" horiz-adv-x="1228" d="M162 434v180l166 66v373q0 57 -16 75t-62 23h-14l-11 49h17q18 0 52 -2t46 -2h262q12 0 46 2t52 2h17l-10 -49h-15q-46 -5 -62 -23t-16 -75v-260l138 55v-180l-138 -56v-325h318q57 0 76 16.5t24 61.5v14l49 10v-16q0 -17 -2 -52t-2 -47v-262q0 -12 2 -46t2 -52v-16 l-49 10v14q-5 45 -24 61.5t-76 16.5h-375l-229 -207v707z"/>
<glyph unicode="Ń" horiz-adv-x="1607" d="M225 -4l11 49h14q46 5 62 23t16 75v910q0 57 -16 75t-62 23h-14l-11 49h17q18 0 52 -2t46 -2h229q11 0 46 2t53 2h16l-10 -49h-15q-45 -5 -61 -23t-16 -75v-9l444 -444v453q0 57 -16 75t-62 23h-14l-12 49h18q18 0 52 -2t46 -2h228q12 0 46 2t52 2h18l-10 -49h-16 q-45 -5 -60.5 -23t-15.5 -75v-910q0 -57 15.5 -75t60.5 -23h16l10 -49h-18q-18 0 -52 2t-46 2h-228q-12 0 -46 -2t-52 -2h-18l12 49h14q46 5 62 23t16 75v11l-444 446v-457q0 -57 16 -75t61 -23h15l10 -49h-16q-18 0 -53 2t-46 2h-229q-12 0 -46 -2t-52 -2h-17zM657 1393 l182 190h340l-348 -190h-174z"/>
<glyph unicode="ń" horiz-adv-x="1607" d="M225 -4l11 49h14q46 5 62 23t16 75v910q0 57 -16 75t-62 23h-14l-11 49h17q18 0 52 -2t46 -2h229q11 0 46 2t53 2h16l-10 -49h-15q-45 -5 -61 -23t-16 -75v-9l444 -444v453q0 57 -16 75t-62 23h-14l-12 49h18q18 0 52 -2t46 -2h228q12 0 46 2t52 2h18l-10 -49h-16 q-45 -5 -60.5 -23t-15.5 -75v-910q0 -57 15.5 -75t60.5 -23h16l10 -49h-18q-18 0 -52 2t-46 2h-228q-12 0 -46 -2t-52 -2h-18l12 49h14q46 5 62 23t16 75v11l-444 446v-457q0 -57 16 -75t61 -23h15l10 -49h-16q-18 0 -53 2t-46 2h-229q-12 0 -46 -2t-52 -2h-17zM657 1393 l182 190h340l-348 -190h-174z"/>
<glyph unicode="Œ" horiz-adv-x="2326" d="M229 598q0 171 84.5 316t229.5 229t315 84q129 0 245 -49.5t204 -137.5v156h602q57 0 76 16.5t24 61.5v14l49 10v-16q0 -18 -3 -52t-3 -46v-238q0 -8 2 -32.5t2 -39.5l-53 15q-7 25 -27.5 34t-66.5 9h-316v-209h316q54 0 74.5 15.5t25.5 43.5v17l49 10v-18q0 -17 -3 -52 t-3 -47v-205q0 -11 3 -37t3 -44v-17l-49 10q2 9 0 15q-5 33 -24.5 47t-75.5 14h-316v-211h316q46 0 66.5 9t27.5 34l53 15q0 -15 -2 -39.5t-2 -32.5v-238q0 -11 3 -45.5t3 -52.5v-16l-49 10v14q-5 45 -24 61.5t-76 16.5h-373l-229 -207v363q-88 -88 -204 -137.5t-245 -49.5 q-170 0 -315 84t-229.5 229t-84.5 316zM494 506q26 -100 99.5 -174t172.5 -99v273h-272zM494 690h272v273q-100 -25 -173.5 -99t-98.5 -174zM950 233q101 25 175.5 99t99.5 174h-275v-273zM950 690h275q-26 100 -100 174t-175 99v-273z"/>
<glyph unicode="œ" horiz-adv-x="2326" d="M229 598q0 171 84.5 316t229.5 229t315 84q129 0 245 -49.5t204 -137.5v156h602q57 0 76 16.5t24 61.5v14l49 10v-16q0 -18 -3 -52t-3 -46v-238q0 -8 2 -32.5t2 -39.5l-53 15q-7 25 -27.5 34t-66.5 9h-316v-209h316q54 0 74.5 15.5t25.5 43.5v17l49 10v-18q0 -17 -3 -52 t-3 -47v-205q0 -11 3 -37t3 -44v-17l-49 10q2 9 0 15q-5 33 -24.5 47t-75.5 14h-316v-211h316q46 0 66.5 9t27.5 34l53 15q0 -15 -2 -39.5t-2 -32.5v-238q0 -11 3 -45.5t3 -52.5v-16l-49 10v14q-5 45 -24 61.5t-76 16.5h-373l-229 -207v363q-88 -88 -204 -137.5t-245 -49.5 q-170 0 -315 84t-229.5 229t-84.5 316zM494 506q26 -100 99.5 -174t172.5 -99v273h-272zM494 690h272v273q-100 -25 -173.5 -99t-98.5 -174zM950 233q101 25 175.5 99t99.5 174h-275v-273zM950 690h275q-26 100 -100 174t-175 99v-273z"/>
<glyph unicode="Ś" horiz-adv-x="1245" d="M238 272l215 90q8 3 43 21t53 25l20 8l15 -49q-47 -19 -47 -66q0 -34 26 -59t66 -25q42 0 74 29t32 71q0 45 -26.5 78t-87.5 66l-129 76q-109 65 -157 144t-48 189q0 94 40.5 171.5t129 127.5t213.5 50q131 0 224 -72t130 -199l-207 -88q-10 -4 -37.5 -18.5t-40.5 -20.5 l-14 -4l-8 45q23 14 32 25.5t9 34.5q0 32 -26 55.5t-73 23.5q-41 0 -70.5 -28.5t-29.5 -73.5q0 -38 20.5 -66t77.5 -61l166 -98q99 -60 152 -138.5t53 -199.5q0 -85 -35.5 -156t-92.5 -115.5t-126 -69t-139 -24.5q-147 0 -251 80.5t-146 220.5zM510 1393l182 190h340 l-348 -190h-174z"/>
<glyph unicode="ś" horiz-adv-x="1245" d="M238 272l215 90q8 3 43 21t53 25l20 8l15 -49q-47 -19 -47 -66q0 -34 26 -59t66 -25q42 0 74 29t32 71q0 45 -26.5 78t-87.5 66l-129 76q-109 65 -157 144t-48 189q0 94 40.5 171.5t129 127.5t213.5 50q131 0 224 -72t130 -199l-207 -88q-10 -4 -37.5 -18.5t-40.5 -20.5 l-14 -4l-8 45q23 14 32 25.5t9 34.5q0 32 -26 55.5t-73 23.5q-41 0 -70.5 -28.5t-29.5 -73.5q0 -38 20.5 -66t77.5 -61l166 -98q99 -60 152 -138.5t53 -199.5q0 -85 -35.5 -156t-92.5 -115.5t-126 -69t-139 -24.5q-147 0 -251 80.5t-146 220.5zM510 1393l182 190h340 l-348 -190h-174z"/>
<glyph unicode="Ÿ" horiz-adv-x="1650" d="M74 977l12 12q2 2 74 66l182 186q9 8 32 34t36 38l12 12l27 -43q-7 -6 -11 -8q-29 -34 -26.5 -60t43.5 -67l356 -356l356 356q41 41 43.5 67t-26.5 60l-10 8l26 43l12 -12q13 -12 36 -38t32 -34l182 -186q72 -64 74 -66l12 -12l-43 -27q-4 7 -10 11q-32 28 -58 26 t-65 -43l-418 -416v-385q0 -57 16 -75t62 -23h15l12 -49h-19q-18 0 -52 2t-46 2h-260q-12 0 -46 -2t-52 -2h-19l13 49h14q45 5 60.5 23t15.5 75v385l-418 416q-39 41 -65 43t-58 -26l-10 -11zM453 1481l149 151l152 -151l-152 -150zM869 1481l151 151l150 -151l-150 -150z "/>
<glyph unicode="Ź" d="M213 0l520 930h-348q-58 0 -76.5 -15.5t-23.5 -60.5v-14l-49 -13v19q0 18 3 52t3 46v240q0 12 -3 46t-3 52v16l49 -10v-14q5 -45 24 -61.5t76 -16.5h823l-510 -922h330q59 0 77 16t23 62v15l50 12v-19q0 -18 -2 -52t-2 -46v-250q0 -12 2 -46t2 -52v-16l-50 10v14 q-5 46 -23 62t-77 16h-815zM561 1393l182 190h340l-348 -190h-174z"/>
<glyph unicode="ź" d="M213 0l520 930h-348q-58 0 -76.5 -15.5t-23.5 -60.5v-14l-49 -13v19q0 18 3 52t3 46v240q0 12 -3 46t-3 52v16l49 -10v-14q5 -45 24 -61.5t76 -16.5h823l-510 -922h330q59 0 77 16t23 62v15l50 12v-19q0 -18 -2 -52t-2 -46v-250q0 -12 2 -46t2 -52v-16l-50 10v14 q-5 46 -23 62t-77 16h-815zM561 1393l182 190h340l-348 -190h-174z"/>
<glyph unicode="Ż" d="M213 0l520 930h-348q-58 0 -76.5 -15.5t-23.5 -60.5v-14l-49 -13v19q0 18 3 52t3 46v240q0 12 -3 46t-3 52v16l49 -10v-14q5 -45 24 -61.5t76 -16.5h823l-510 -922h330q59 0 77 16t23 62v15l50 12v-19q0 -18 -2 -52t-2 -46v-250q0 -12 2 -46t2 -52v-16l-50 10v14 q-5 46 -23 62t-77 16h-815zM567 1481l150 151l151 -151l-151 -150z"/>
<glyph unicode="ż" d="M213 0l520 930h-348q-58 0 -76.5 -15.5t-23.5 -60.5v-14l-49 -13v19q0 18 3 52t3 46v240q0 12 -3 46t-3 52v16l49 -10v-14q5 -45 24 -61.5t76 -16.5h823l-510 -922h330q59 0 77 16t23 62v15l50 12v-19q0 -18 -2 -52t-2 -46v-250q0 -12 2 -46t2 -52v-16l-50 10v14 q-5 46 -23 62t-77 16h-815zM568 1481l149 151l152 -151l-152 -150z"/>
<glyph unicode="ƒ" horiz-adv-x="1097" d="M84 -37l49 -14v-12q8 -76 70 -76q38 0 68 24.5t36 61.5l99 549h-181l41 213h176l21 116q30 175 123 274t243 103q50 1 70 19t25 61v14l49 13v-19q-4 -86 -4 -98v-262q0 -9 4 -99v-16l-49 12v13q-4 41 -21.5 58t-48.5 17q-41 0 -69.5 -26t-34.5 -66l-19 -114h172l-39 -213 h-172l-96 -541q-19 -102 -55.5 -177t-86 -119t-106.5 -65.5t-123 -23.5q-48 -2 -68 -18t-24 -58v-14l-49 -12v18q4 86 4 98v262q0 9 -4 99v18z"/>
<glyph unicode="ˆ" horiz-adv-x="868" d="M158 1391l184 192h184l185 -192h-174l-103 57l-102 -57h-174z"/>
<glyph unicode="ˇ" horiz-adv-x="868" d="M158 1583h174l102 -57l103 57h174l-185 -192h-184z"/>
<glyph unicode="˘" horiz-adv-x="868" d="M158 1614h125q41 -76 151 -76q105 0 152 76h125q-2 -9 -6 -24t-23.5 -53.5t-47 -68t-80.5 -53.5t-120 -24q-49 0 -90.5 12.5t-68.5 32t-49 43t-34.5 47.5t-20.5 43.5t-11 32.5z"/>
<glyph unicode="˙" horiz-adv-x="868" d="M283 1481l149 151l152 -151l-152 -150z"/>
<glyph unicode="˚" horiz-adv-x="868" d="M227 1536q0 84 60.5 144.5t144.5 60.5q86 0 146.5 -60t60.5 -145t-60.5 -146t-146.5 -61q-83 0 -144 61t-61 146zM346 1536q0 -35 25.5 -61.5t60.5 -26.5t60.5 26.5t25.5 61.5t-25.5 61.5t-60.5 26.5t-60.5 -26.5t-25.5 -61.5z"/>
<glyph unicode="˛" horiz-adv-x="868" d="M262 -201q0 22 6.5 43t21.5 39.5t27 32t35 29t33.5 22.5t34 20t26.5 15h84q-23 -18 -46 -51t-23 -68q0 -27 18 -43t45 -16q35 0 80 20v-84q-3 -2 -17 -11.5t-24 -15.5t-28.5 -15t-35 -14.5t-39.5 -10t-46 -4.5q-68 0 -110 27t-42 85z"/>
<glyph unicode="˜" horiz-adv-x="868" d="M121 1391q2 20 7.5 42.5t20.5 56.5t36.5 60t59 45t85.5 19q46 0 128 -34t109 -34q28 0 46 21t18 47h114q-3 -21 -8 -43t-20 -56.5t-36 -60t-58.5 -44.5t-85.5 -19q-46 0 -128.5 33.5t-109.5 33.5q-28 0 -45.5 -20.5t-17.5 -46.5h-115z"/>
<glyph unicode="˝" horiz-adv-x="868" d="M53 1356l148 221l239 41l-241 -236zM428 1356l147 221l240 41l-244 -236z"/>
<glyph unicode="Ё" d="M229 373v16q0 17 2 52t2 46v222q0 11 -2 46t-2 52v18l50 -10v-16q5 -43 22.5 -59t71.5 -17v473h602q57 0 76 16.5t24 61.5v14l49 10v-16q0 -18 -3 -52t-3 -46v-238q0 -8 2 -32.5t2 -39.5l-53 15q-7 25 -27.5 34t-66.5 9h-316v-209h316q54 0 74.5 15.5t25.5 43.5v17l49 10 v-18q0 -17 -3 -52t-3 -47v-205q0 -11 3 -37t3 -44v-17l-49 10q2 9 0 15q-5 33 -24.5 47t-75.5 14h-316v-211h316q46 0 66.5 9t27.5 34l53 15q0 -15 -2 -39.5t-2 -32.5v-238q0 -11 3 -45.5t3 -52.5v-16l-49 10v14q-5 45 -24 61.5t-76 16.5h-373l-229 -207v682 q-54 -1 -71.5 -17t-22.5 -61v-14zM377 1552l149 152l152 -152l-152 -149zM793 1552l151 152l150 -152l-150 -149z"/>
<glyph unicode="Ђ" horiz-adv-x="1658" d="M137 825v19q0 18 2 52t2 46v242q0 12 -2 46t-2 52v16l49 -10v-14q5 -46 22.5 -62t74.5 -16h891q59 0 79 16.5t25 61.5v14l49 10v-16q0 -18 -2 -52t-2 -46v-242q0 -12 2 -46t2 -52v-19l-49 13v14q-5 45 -25 61.5t-79 16.5h-338v-213q44 39 119 60.5t141 21.5 q194 0 303.5 -112t109.5 -300q0 -179 -102.5 -283t-261.5 -104q-15 0 -39 3.5t-40 6.5l-17 4v219q0 12 -3.5 45.5t-3.5 49.5v12l48 -10v-11q4 -18 6.5 -24.5t9.5 -17t20.5 -13.5t34.5 -2q32 3 58 40t26 99q0 71 -48.5 122.5t-137.5 51.5q-97 0 -160 -63.5t-63 -167.5v-201 q0 -57 18 -75t64 -23h14l12 -49h-18q-18 0 -53 2t-46 2h-247q-12 0 -47 -2t-52 -2h-18l12 49h14q44 5 59 23.5t15 76.5v785h-278q-57 0 -75.5 -16.5t-23.5 -61.5v-14z"/>
<glyph unicode="Ѓ" horiz-adv-x="1165" d="M268 -207v1403h602q58 0 77 16.5t24 61.5v14l49 10v-16q0 -18 -3 -52t-3 -46v-238q6 -75 6 -98v-17l-49 11v14q-5 45 -24 60.5t-77 15.5h-315v-854zM485 1391l185 192h340l-351 -192h-174z"/>
<glyph unicode="Є" horiz-adv-x="1458" d="M229 598q0 171 84.5 316t229.5 229t315 84q211 0 385 -131q0 -39 3 -177t3 -194h-49q-17 88 -113.5 163t-228.5 75q-119 0 -214 -70t-132 -180h281q54 0 73 15t27 44v16l49 11v-19q0 -18 -3 -52t-3 -46v-184q0 -12 3 -38t3 -44v-17l-49 11q2 8 0 14q-5 33 -24.5 47 t-75.5 14h-281q36 -110 131 -181t215 -71q135 0 231.5 71t110.5 165h49l-6 -367q-165 -133 -385 -133q-170 0 -315 84t-229.5 229t-84.5 316z"/>
<glyph unicode="Ѕ" horiz-adv-x="1245" d="M238 272l215 90q8 3 43 21t53 25l20 8l15 -49q-47 -19 -47 -66q0 -34 26 -59t66 -25q42 0 74 29t32 71q0 45 -26.5 78t-87.5 66l-129 76q-109 65 -157 144t-48 189q0 94 40.5 171.5t129 127.5t213.5 50q131 0 224 -72t130 -199l-207 -88q-10 -4 -37.5 -18.5t-40.5 -20.5 l-14 -4l-8 45q23 14 32 25.5t9 34.5q0 32 -26 55.5t-73 23.5q-41 0 -70.5 -28.5t-29.5 -73.5q0 -38 20.5 -66t77.5 -61l166 -98q99 -60 152 -138.5t53 -199.5q0 -85 -35.5 -156t-92.5 -115.5t-126 -69t-139 -24.5q-147 0 -251 80.5t-146 220.5z"/>
<glyph unicode="І" horiz-adv-x="1007" d="M258 -4l10 49h15q45 5 61 23t16 75v910q0 57 -16 75t-61 23h-15l-10 49h16q17 0 52 -2t47 -2h262q11 0 46 2t52 2h17l-11 -49h-14q-46 -5 -62 -23t-16 -75v-910q0 -57 16 -75t62 -23h14l11 -49h-17q-17 0 -52 2t-46 2h-262q-12 0 -47 -2t-52 -2h-16z"/>
<glyph unicode="Ї" horiz-adv-x="1007" d="M145 1552l150 152l151 -152l-151 -149zM258 -4l10 49h15q45 5 61 23t16 75v910q0 57 -16 75t-61 23h-15l-10 49h16q17 0 52 -2t47 -2h262q11 0 46 2t52 2h17l-11 -49h-14q-46 -5 -62 -23t-16 -75v-910q0 -57 16 -75t62 -23h14l11 -49h-17q-17 0 -52 2t-46 2h-262 q-12 0 -47 -2t-52 -2h-16zM561 1552l152 152l149 -152l-149 -149z"/>
<glyph unicode="Ј" horiz-adv-x="1007" d="M258 1200h16q17 0 52 -2t47 -2h262q11 0 46 2t52 2h17l-11 -49h-14q-46 -5 -62 -23t-16 -75v-1057l-287 -385v1442q0 57 -16 75t-61 23h-15z"/>
<glyph unicode="Љ" horiz-adv-x="1869" d="M-53 141l45 31l10 -10q33 -24 59 -20t68 46l1079 1092h9v-549h100q165 0 277 -98.5t112 -257.5q0 -89 -24 -156t-63.5 -108t-97.5 -66.5t-119.5 -35t-137.5 -9.5h-324v145h-504l-117 -118q-39 -42 -41 -68.5t27 -56.5l12 -11l-24 -45l-14 13q-16 12 -41 37.5t-29 29.5 l-172 146q-10 9 -38.5 30.5t-37.5 28.5zM643 360h297v306zM1217 219h67q63 0 107.5 43.5t44.5 104.5t-44.5 103t-107.5 42h-67v-293z"/>
<glyph unicode="Њ" horiz-adv-x="1853" d="M225 -4l11 49h14q46 5 62 23t16 75v910q0 57 -16 75t-62 23h-14l-11 49h17q18 0 52 -2t46 -2h262q12 0 46 2t52 2h17l-10 -49h-15q-46 -5 -62 -23t-16 -75v-322h297v322q0 57 -16 75t-61 23h-15l-12 49h18q17 0 52 -2t47 -2h260q12 0 46 2t52 2h18l-10 -49h-16 q-45 -5 -60.5 -23t-15.5 -75v-322h102q164 0 277 -98.5t113 -257.5q0 -89 -24 -156t-64 -108t-99 -66.5t-120.5 -35t-137.5 -9.5h-317q-12 0 -49 -2t-54 -2h-18l12 49h15q45 5 61 23t16 75v369h-297v-369q0 -57 16 -75t62 -23h15l10 -49h-17q-18 0 -52 2t-46 2h-262 q-12 0 -46 -2t-52 -2h-17zM1198 219h68q63 0 107 43t44 105q0 61 -44 103t-107 42h-68v-293z"/>
<glyph unicode="Ћ" horiz-adv-x="1730" d="M98 825v19q0 18 2 52t2 46v242q0 12 -2 46t-2 52v16l49 -10v-14q5 -45 23.5 -61.5t75.5 -16.5h911q59 0 78.5 16.5t24.5 61.5v14l49 10v-16q0 -18 -2 -52t-2 -46v-242q0 -12 2 -46t2 -52v-19l-49 13v14q-5 45 -24.5 61.5t-78.5 16.5h-338v-213q45 39 112.5 60.5 t131.5 21.5q195 0 313.5 -115t118.5 -301v-240q0 -57 16 -75t62 -23h14l10 -49h-16q-17 0 -52 2t-46 2h-262q-11 0 -46 -2t-53 -2h-16l10 49h14q46 5 62 23t16 75v240q0 86 -43.5 139t-134.5 53q-96 0 -153.5 -63t-57.5 -168v-201q0 -57 17 -75t63 -23h14l13 -49h-19 q-17 0 -52 2t-46 2h-248q-11 0 -46 -2t-52 -2h-19l13 49h14q45 5 60.5 23.5t15.5 76.5v785h-301q-57 0 -75.5 -16.5t-23.5 -61.5v-14z"/>
<glyph unicode="Ќ" horiz-adv-x="1474" d="M225 -4l11 49h14q46 5 62 23t16 75v910q0 57 -16 75t-62 23h-14l-11 49h17q18 0 52 -2t46 -2h262q12 0 46 2t52 2h17l-10 -49h-15q-46 -5 -62 -23t-16 -75v-256l400 401h250q12 0 46 2t52 2h18l-12 -49q-8 2 -14 0q-68 -8 -158 -98l-408 -404l504 -508q67 -65 87.5 -80 t47.5 -18h15l12 -49h-18q-18 0 -53 2t-46 2h-284l-439 455v-312q0 -57 16 -75t62 -23h15l10 -49h-17q-18 0 -52 2t-46 2h-262q-12 0 -46 -2t-52 -2h-17zM649 1391l185 192h340l-351 -192h-174z"/>
<glyph unicode="Ў" horiz-adv-x="1679" d="M86 1028l35 19q41 20 170 127q17 13 59 44t73.5 56t49.5 43l23 22l16 -51l-18 -16q-23 -17 -30.5 -29t-3 -30t26.5 -46l379 -497l320 501q30 48 29 65.5t-33 41.5l-15 10l15 51q29 -20 96.5 -71t105.5 -74q46 -28 116 -67.5t73 -41.5l26 -16l-40 -33q-13 5 -21 11 q-33 19 -52.5 12.5t-49.5 -49.5l-672 -1010q-22 -32 -25.5 -54.5t6 -36.5t33.5 -34l15 -8l-17 -49l-14 12q-16 9 -44.5 30t-37.5 27l-221 136q-12 7 -45 25t-41 22l-15 12l37 35q7 -4 11 -8q39 -20 62 -11.5t56 56.5l174 256l-448 553q-23 27 -29.5 34t-19 15t-21.5 6 t-28 -8l-25 -19zM575 1532l166 104l164 -133l203 117l70 -64l-365 -210z"/>
<glyph unicode="Џ" horiz-adv-x="1525" d="M225 -4l11 49h16q45 5 60.5 23t15.5 75v910q0 57 -15.5 75t-60.5 23h-16l-11 49h19q18 0 52 -2t46 -2h260q12 0 46 2t52 2h19l-12 -49h-15q-46 -5 -62 -23t-16 -75v-787h297v787q0 57 -16 75t-61 23h-15l-10 49h16q17 0 52 -2t47 -2h262q12 0 46 2t52 2h16l-10 -49h-14 q-46 -5 -62 -23t-16 -75v-910q0 -57 16 -75t62 -23h14l10 -49h-16q-18 0 -52 2t-46 2h-285v-98l-274 -281l-2 379h-283q-12 0 -46 -2t-52 -2h-19z"/>
<glyph unicode="А" horiz-adv-x="1683" d="M94 82l33 39q8 -4 12 -8q38 -17 63.5 -7.5t51.5 60.5l586 1100l587 -1100q26 -51 50.5 -60t64.5 7l12 8l33 -39l-16 -8q-12 -6 -44.5 -20.5t-43.5 -20.5l-232 -123q-6 -4 -22 -14l-32 -20t-30 -17l-16 -9l-12 50l12 6q38 26 43 49t-20 76l-76 153h-514l-76 -153 q-25 -52 -20.5 -76t40.5 -49l15 -6l-15 -50l-16 9q-17 9 -47 28.5t-35 22.5l-231 123l-88 41zM698 418h285l-143 289z"/>
<glyph unicode="Б" horiz-adv-x="1280" d="M225 -4l11 49h14q46 5 62 23t16 75v910q0 57 -16 75t-62 23h-14l-11 49h17q18 0 52 -2t46 -2h588q57 0 76 16.5t24 61.5v14l49 10v-16q0 -18 -3 -52t-3 -46v-238q0 -12 2 -46.5t2 -51.5v-17l-49 11v14q-5 45 -23.5 60.5t-76.5 15.5h-312v-189h80q165 0 278 -99.5 t113 -260.5q0 -383 -454 -383h-291q-12 0 -46 -2t-52 -2h-17zM614 221h31q63 0 107.5 44.5t44.5 107.5q0 62 -44.5 105.5t-107.5 43.5h-31v-301z"/>
<glyph unicode="В" horiz-adv-x="1261" d="M225 -4l11 49h14q46 5 62 23t16 75v910q0 57 -16 75t-62 23h-14l-11 49h17q18 0 52 -2t46 -2h262q14 0 59.5 2t61.5 2q117 0 199 -81.5t82 -198.5q0 -76 -38.5 -141t-101.5 -103q98 -40 158.5 -129.5t60.5 -198.5q0 -147 -102.5 -249.5t-249.5 -102.5q-18 0 -66 2t-63 2 h-262q-12 0 -46 -2t-52 -2h-17zM614 221h29q63 0 107.5 44.5t44.5 107.5q0 62 -44.5 105.5t-107.5 43.5h-29v-301zM614 764h33q51 0 87 35t36 86t-36 87t-87 36h-33v-244z"/>
<glyph unicode="Г" horiz-adv-x="1167" d="M268 -207v1403h602q58 0 77 16.5t24 61.5v14l49 10v-16q0 -18 -3 -52t-3 -46v-238q6 -75 6 -98v-17l-49 11v14q-5 45 -24 60.5t-77 15.5h-315v-854z"/>
<glyph unicode="Д" horiz-adv-x="1611" d="M125 -109q0 17 2 52t2 47v241q0 11 -2 46t-2 53v18l49 -10v-16q4 -40 19.5 -48t74.5 -8h23l522 1000l514 -1000h25q58 0 73 8t19 48v16l49 10v-18q0 -18 -2 -53t-2 -46v-241q0 -12 2 -47t2 -52v-16l-49 10v15q-5 49 -24 73.5t-70 24.5h-1082q-51 0 -70 -24.5t-24 -73.5 v-15l-49 -10v16zM598 266h426l-211 451z"/>
<glyph unicode="Е" d="M229 373v16q0 17 2 52t2 46v222q0 11 -2 46t-2 52v18l50 -10v-16q5 -43 22.5 -59t71.5 -17v473h602q57 0 76 16.5t24 61.5v14l49 10v-16q0 -18 -3 -52t-3 -46v-238q0 -8 2 -32.5t2 -39.5l-53 15q-7 25 -27.5 34t-66.5 9h-316v-209h316q54 0 74.5 15.5t25.5 43.5v17l49 10 v-18q0 -17 -3 -52t-3 -47v-205q0 -11 3 -37t3 -44v-17l-49 10q2 9 0 15q-5 33 -24.5 47t-75.5 14h-316v-211h316q46 0 66.5 9t27.5 34l53 15q0 -15 -2 -39.5t-2 -32.5v-238q0 -11 3 -45.5t3 -52.5v-16l-49 10v14q-5 45 -24 61.5t-76 16.5h-373l-229 -207v682 q-54 -1 -71.5 -17t-22.5 -61v-14z"/>
<glyph unicode="Ж" horiz-adv-x="1835" d="M84 952l12 15q10 11 35.5 35.5t32.5 33.5l160 189q10 11 61 75l12 15l29 -41q-4 -8 -8 -10q-28 -35 -24 -61.5t48 -63.5l338 -277v191q0 57 -16 75t-62 23h-14l-10 49h16q18 0 53 -2t46 -2h251q12 0 47 2t52 2h16l-10 -49h-14q-46 -5 -62 -23t-16 -75v-189l338 275 q44 37 47.5 63.5t-23.5 61.5l-10 10l31 41l10 -15q13 -14 35 -41t28 -34l158 -189q7 -8 33 -32.5t37 -36.5l10 -15l-43 -22q-4 6 -10 10q-30 29 -55.5 29t-69.5 -37l-440 -357l407 -331q44 -37 69 -37.5t56 31.5l8 10l45 -23l-10 -14q-11 -12 -35.5 -37.5t-32.5 -34.5 l-155 -188q-9 -9 -30 -37.5t-32 -40.5l-10 -16l-31 41l11 12q25 34 21 61t-48 62l-309 252v-289l-277 -385v676l-309 -254q-44 -35 -48.5 -62t21.5 -61l11 -12l-33 -41l-8 16q-13 14 -34 42.5t-28 35.5l-157 188q-8 9 -32.5 34.5t-35.5 37.5l-8 14l45 23q4 -6 6 -10 q32 -32 57.5 -31.5t69.5 37.5l405 331l-438 357q-45 37 -70 37t-55 -29l-10 -10z"/>
<glyph unicode="З" horiz-adv-x="1212" d="M193 385l51 2q64 -95 142 -134.5t173 -39.5q42 0 81.5 12.5t70 45.5t30.5 81q0 64 -46 110t-128 46h-73l-88 96l79 115h84q73 0 112.5 38t39.5 95q0 64 -48.5 98.5t-117.5 34.5q-84 0 -144 -31t-102 -110l-47 10q4 198 4 276q46 35 129 61t156 26q88 0 161.5 -19t131 -58 t89.5 -103.5t32 -149.5q0 -67 -44 -139t-118 -105q225 -75 225 -305q0 -162 -134.5 -265.5t-326.5 -103.5q-114 0 -212.5 37t-159.5 111z"/>
<glyph unicode="И" horiz-adv-x="1607" d="M225 -4l11 49h16q45 5 60.5 23t15.5 75v910q0 57 -15.5 75t-60.5 23h-16l-11 49h19q18 0 52 -2t46 -2h227q11 0 46 2t53 2h18l-12 -49h-15q-45 -5 -61 -23t-16 -75v-555l444 546v9q0 57 -16 75t-62 23h-14l-10 49h16q18 0 52 -2t46 -2h230q12 0 46 2t52 2h16l-10 -49h-14 q-46 -5 -62 -23t-16 -75v-910q0 -57 16 -75t62 -23h14l10 -49h-16q-18 0 -52 2t-46 2h-230q-12 0 -46 -2t-52 -2h-16l10 49h14q46 5 62 23t16 75v559l-444 -548v-11q0 -57 16 -75t61 -23h15l12 -49h-18q-18 0 -53 2t-46 2h-227q-12 0 -46 -2t-52 -2h-19z"/>
<glyph unicode="Й" horiz-adv-x="1607" d="M225 -4l11 49h16q45 5 60.5 23t15.5 75v910q0 57 -15.5 75t-60.5 23h-16l-11 49h19q18 0 52 -2t46 -2h227q11 0 46 2t53 2h18l-12 -49h-15q-45 -5 -61 -23t-16 -75v-555l444 546v9q0 57 -16 75t-62 23h-14l-10 49h16q18 0 52 -2t46 -2h230q12 0 46 2t52 2h16l-10 -49h-14 q-46 -5 -62 -23t-16 -75v-910q0 -57 16 -75t62 -23h14l10 -49h-16q-18 0 -52 2t-46 2h-230q-12 0 -46 -2t-52 -2h-16l10 49h14q46 5 62 23t16 75v559l-444 -548v-11q0 -57 16 -75t61 -23h15l12 -49h-18q-18 0 -53 2t-46 2h-227q-12 0 -46 -2t-52 -2h-19zM518 1532l166 104 l166 -133l201 117l71 -64l-366 -210z"/>
<glyph unicode="К" horiz-adv-x="1474" d="M225 -4l11 49h14q46 5 62 23t16 75v910q0 57 -16 75t-62 23h-14l-11 49h17q18 0 52 -2t46 -2h262q12 0 46 2t52 2h17l-10 -49h-15q-46 -5 -62 -23t-16 -75v-256l400 401h250q12 0 46 2t52 2h18l-12 -49q-8 2 -14 0q-68 -8 -158 -98l-408 -404l504 -508q67 -65 87.5 -80 t47.5 -18h15l12 -49h-18q-18 0 -53 2t-46 2h-284l-439 455v-312q0 -57 16 -75t62 -23h15l10 -49h-17q-18 0 -52 2t-46 2h-262q-12 0 -46 -2t-52 -2h-17z"/>
<glyph unicode="Л" horiz-adv-x="1703" d="M94 82l33 39q8 -4 12 -8q38 -17 62.5 -7.5t52.5 60.5l586 1100l587 -1100q28 -51 51.5 -60t63.5 7l12 8l33 -39l-16 -8q-15 -8 -47.5 -22.5t-40.5 -18.5l-232 -123q-9 -5 -38 -23.5t-46 -27.5l-16 -9l-12 50l12 6q38 26 43 49t-20 76l-334 682l-332 -682 q-24 -51 -20 -75.5t40 -49.5l15 -6l-15 -50l-16 9q-16 8 -44.5 27.5t-37.5 23.5l-231 123q-11 6 -42.5 20t-45.5 21z"/>
<glyph unicode="М" horiz-adv-x="1996" d="M82 37l27 43q8 -2 12 -6q43 -8 63.5 4t42.5 67l461 1121l316 -686l323 686l463 -1121q22 -55 41.5 -67t62.5 -4l15 6l26 -43l-18 -6q-69 -19 -92 -27l-248 -84q-9 -3 -40.5 -18t-49.5 -21l-17 -4l-8 49q11 4 17 4q40 20 49.5 43.5t-10.5 77.5l-242 590l-285 -502 l-272 518l-221 -606q-17 -55 -8 -78t49 -43l14 -4l-6 -49l-17 4q-18 6 -49.5 21t-40.5 18l-247 84q-30 10 -93 27z"/>
<glyph unicode="Н" horiz-adv-x="1525" d="M225 -4l11 49h14q46 5 62 23t16 75v910q0 57 -16 75t-62 23h-14l-11 49h17q18 0 52 -2t46 -2h262q12 0 46 2t52 2h17l-10 -49h-15q-46 -5 -62 -23t-16 -75v-322h297v322q0 57 -16 75t-61 23h-15l-12 49h18q17 0 52 -2t47 -2h260q12 0 46 2t52 2h18l-10 -49h-16 q-45 -5 -60.5 -23t-15.5 -75v-910q0 -57 15.5 -75t60.5 -23h16l10 -49h-18q-18 0 -52 2t-46 2h-260q-12 0 -47 -2t-52 -2h-18l12 49h15q45 5 61 23t16 75v369h-297v-369q0 -57 16 -75t62 -23h15l10 -49h-17q-18 0 -52 2t-46 2h-262q-12 0 -46 -2t-52 -2h-17z"/>
<glyph unicode="О" horiz-adv-x="1716" d="M229 598q0 171 84.5 316t229.5 229t315 84q128 0 244.5 -49.5t201 -134t134 -201t49.5 -244.5t-49.5 -244.5t-134 -201t-201 -134t-244.5 -49.5q-170 0 -315 84t-229.5 229t-84.5 316zM494 506q26 -100 99.5 -174t172.5 -99v273h-272zM494 690h272v273 q-100 -25 -173.5 -99t-98.5 -174zM950 233q101 25 175.5 99t99.5 174h-275v-273zM950 690h275q-26 100 -100 174t-175 99v-273z"/>
<glyph unicode="П" horiz-adv-x="1525" d="M225 -4l11 49h14q46 5 62 23t16 75v910q0 57 -16 75t-62 23h-14l-11 49h17q18 0 52 -2t46 -2h844q12 0 46 2t52 2h18l-10 -49h-16q-45 -5 -60.5 -23t-15.5 -75v-910q0 -57 15.5 -75t60.5 -23h16l10 -49h-18q-18 0 -52 2t-46 2h-260q-12 0 -47 -2t-52 -2h-18l12 49h15 q45 5 61 23t16 75v787h-297v-787q0 -57 16 -75t62 -23h15l10 -49h-17q-18 0 -52 2t-46 2h-262q-12 0 -46 -2t-52 -2h-17z"/>
<glyph unicode="Р" horiz-adv-x="1245" d="M225 -4l11 49h14q46 5 62 23t16 75v910q0 57 -16 75t-62 23h-14l-11 49h17q18 0 52 -2t46 -2h137q5 0 41.5 1.5t93.5 3t113 1.5q152 0 259.5 -106.5t107.5 -257.5q0 -152 -107.5 -259.5t-259.5 -107.5h-111v-328q0 -57 16 -75t62 -23h15l10 -49h-17q-18 0 -52 2t-46 2 h-262q-12 0 -46 -2t-52 -2h-17zM614 684h62q66 0 112 47t46 113t-46 113t-112 47h-62v-320z"/>
<glyph unicode="С" horiz-adv-x="1458" d="M229 598q0 171 84.5 316t229.5 229t315 84q211 0 385 -131q0 -39 3 -177t3 -194h-49q-17 88 -113.5 163t-228.5 75q-151 0 -257.5 -107t-106.5 -258t106.5 -258t257.5 -107q135 0 231.5 71t110.5 165h49l-6 -367q-165 -133 -385 -133q-170 0 -315 84t-229.5 229 t-84.5 316z"/>
<glyph unicode="Т" horiz-adv-x="1540" d="M168 807v18q0 17 2 52t2 47v260q0 12 -2 46t-2 52v16l49 -10v-14q5 -46 23 -62t75 -16h910q59 0 77 16t23 62v14l49 10v-16q0 -18 -2 -52t-2 -46v-260q0 -12 2 -47t2 -52v-18l-49 12v15q-5 45 -23 61t-77 16h-312v-768q0 -57 16 -75t62 -23h15l12 -49h-19q-17 0 -52 2 t-46 2h-260q-11 0 -46 -2t-52 -2h-19l13 49h14q45 5 60.5 23t15.5 75v768h-312q-57 0 -75 -16t-23 -61v-15z"/>
<glyph unicode="У" horiz-adv-x="1679" d="M90 1028l35 19q30 16 170 127q12 10 82.5 63.5t95.5 77.5l21 22l18 -51l-20 -16q-23 -17 -30.5 -29.5t-3 -30.5t26.5 -45l394 -491l319 491q29 48 28 65.5t-32 41.5l-16 10l14 51q33 -21 95 -68.5t99 -70.5q71 -43 191 -109l27 -16l-41 -33q-15 5 -21 11 q-33 19 -53.5 12.5t-48.5 -49.5l-672 -1010q-22 -32 -25.5 -54.5t6 -36.5t33.5 -34l15 -8l-19 -49l-12 12q-16 9 -45.5 30.5t-38.5 26.5l-219 136q-9 5 -40 21.5t-48 25.5l-13 12l37 35q5 -4 11 -8q39 -20 61 -12t55 57l176 256l-448 553q-23 27 -29.5 34t-19 15t-21.5 6 t-28 -8l-25 -19z"/>
<glyph unicode="Ф" horiz-adv-x="1650" d="M180 600q0 149 70 273.5t187 198t257 83.5l2 76q0 53 -12 68t-51 20h-21l-24 49h37q17 0 52 -2t46 -2h238q11 0 46 2t52 2h37l-23 -49h-22q-43 -5 -61.5 -21t-18.5 -67v-76q138 -10 254 -79.5t186 -190.5t70 -269q0 -149 -70 -273.5t-186 -198t-254 -83.5v-88l-275 -280 l-2 368q-105 7 -199 50t-163.5 112t-110.5 167t-41 210zM451 610q0 -124 73.5 -212.5t194.5 -98.5v612q-121 -10 -194.5 -94.5t-73.5 -206.5zM946 299q119 10 193.5 101.5t74.5 215.5q0 121 -73.5 203t-194.5 92v-612z"/>
<glyph unicode="Х" horiz-adv-x="1748" d="M133 199l43 26q4 -6 8 -10q34 -29 58.5 -26.5t66.5 42.5l359 357l-359 356q-41 40 -66 42.5t-59 -25.5l-8 -11l-43 27l10 12q10 10 37.5 33.5t36.5 32.5l184 186q46 52 68 72l10 12l29 -43q-6 -6 -12 -8q-28 -33 -26.5 -60.5t42.5 -66.5l358 -356l357 356q41 41 43 67 t-27 60l-10 8l27 43l12 -12q27 -27 67 -72l183 -186q8 -9 35 -32t38 -34l13 -12l-43 -27q-5 7 -11 11q-32 28 -57.5 26t-66.5 -43l-357 -356l357 -355q42 -40 66.5 -42.5t55.5 26.5l13 8l43 -24l-15 -15q-11 -11 -38 -33.5t-35 -31.5l-183 -184q-56 -63 -65 -72l-15 -15 l-24 44l8 12q29 31 27 56.5t-43 66.5l-355 356l-358 -356q-41 -39 -42.5 -67t26.5 -58l12 -13l-29 -43l-10 15q-14 13 -38 40.5t-30 33.5l-184 182q-4 3 -31.5 27t-42.5 38z"/>
<glyph unicode="Ц" horiz-adv-x="1519" d="M227 -2l11 49h16q45 5 60.5 23t15.5 75v910q0 57 -15.5 75t-60.5 23h-16l-11 49h19q18 0 52 -2t46 -2h260q12 0 46.5 2t51.5 2h19l-12 -49h-15q-46 -5 -62 -23t-16 -75v-799h297v799q0 57 -16 75t-61 23h-15l-10 49h16q17 0 52 -2t47 -2h262q12 0 46 2t52 2h17l-11 -49 h-14q-46 -5 -62 -23t-16 -75v-799h90q58 0 73 7.5t19 47.5v17l50 10v-19q0 -17 -2.5 -52t-2.5 -46v-231q0 -12 2.5 -47t2.5 -52v-16l-50 10v15q-5 50 -25 76t-71 26h-942q-12 0 -46 -2t-52 -2h-19z"/>
<glyph unicode="Ч" horiz-adv-x="1435" d="M145 1202h19q15 0 49.5 -2t42.5 -2h293q6 0 31 2t36 2h27l-10 -49h-21q-18 -3 -28 -6.5t-22 -12.5t-17.5 -27.5t-5.5 -47.5v-201q0 -87 32.5 -123.5t108.5 -36.5q49 0 141 15v342q0 58 -14.5 75.5t-58.5 22.5h-23l-10 49h24q17 0 46 -2t40 -2h271q12 0 46 2t52 2h18 l-12 -49h-14q-45 -5 -60.5 -23t-15.5 -75v-910q0 -59 15 -76t61 -22h14l12 -49h-18q-18 0 -52 2t-46 2h-260q-12 0 -47 -2t-52 -2h-18l12 49h14q46 5 62 23t16 75v328q-137 -18 -239 -18q-149 0 -239.5 85.5t-90.5 256.5v258q0 54 -21.5 73t-62.5 25h-12z"/>
<glyph unicode="Ш" horiz-adv-x="2023" d="M225 -2l13 49h14q46 5 62 23t16 75v910q0 57 -16 75t-62 23h-14l-13 49h19q18 0 52 -2t46 -2h256q12 0 46 2t52 2h19l-13 -49h-14q-46 -5 -62 -23t-16 -75v-799h262v799q0 57 -16 75t-61 23h-15l-12 49h18q18 0 53 -2t46 -2h256q11 0 46 2t52 2h18l-12 -49h-14 q-46 -5 -62 -23t-16 -75v-799h260v799q0 57 -15.5 75t-60.5 23h-14l-12 49h18q17 0 52 -2t46 -2h256q11 0 46 2t53 2h16l-10 -49h-14q-46 -5 -62 -23t-16 -75v-910q0 -57 16 -75t62 -23h14l10 -49h-16q-18 0 -53 2t-46 2h-1341q-12 0 -46 -2t-52 -2h-19z"/>
<glyph unicode="Щ" horiz-adv-x="2068" d="M225 -2l13 49h14q46 5 62 23t16 75v910q0 57 -16 75t-62 23h-14l-13 49h19q18 0 52 -2t46 -2h256q12 0 46 2t52 2h19l-13 -49h-14q-46 -5 -62 -23t-16 -75v-799h262v799q0 57 -16 75t-61 23h-15l-12 49h18q18 0 53 -2t46 -2h256q11 0 46 2t52 2h18l-12 -49h-14 q-46 -5 -62 -23t-16 -75v-799h260v799q0 57 -15.5 75t-60.5 23h-14l-12 49h18q17 0 52 -2t46 -2h256q11 0 46 2t53 2h16l-10 -49h-14q-46 -5 -62 -23t-16 -75v-799h78q58 0 73 7.5t19 47.5v17l49 10v-19q0 -17 -2 -52t-2 -46v-231q0 -12 2 -47t2 -52v-16l-49 10v15 q-11 102 -105 102h-1419q-12 0 -46 -2t-52 -2h-19z"/>
<glyph unicode="Ъ" horiz-adv-x="1357" d="M123 836v18q0 18 2 52t2 46v232q0 12 -2 46t-2 52v16l49 -10v-14q5 -46 23 -62t75 -16h445v-453h100q165 0 277 -100.5t112 -261.5q0 -90 -24 -158.5t-64 -110t-98.5 -67.5t-119.5 -35.5t-136 -9.5h-322q-11 0 -45.5 -2t-52.5 -2h-16l10 49h14q46 5 62 23t16 75v797h-158 q-57 0 -75 -16t-23 -62v-14zM715 221h65q63 0 107.5 44.5t44.5 107.5q0 62 -44.5 105.5t-107.5 43.5h-65v-301z"/>
<glyph unicode="Ы" horiz-adv-x="1882" d="M223 -4l10 49h15q46 5 62 23t16 75v910q0 57 -16 75t-62 23h-15l-10 49h17q18 0 52 -2t46 -2h262q12 0 46 2t52 2h17l-10 -49h-15q-45 -5 -61.5 -24t-16.5 -76v-308h101q164 0 276.5 -100.5t112.5 -261.5q0 -91 -24 -159t-64 -109.5t-99 -67.5t-120.5 -35.5t-137.5 -9.5 h-319q-12 0 -46 -2t-52 -2h-17zM612 221h66q63 0 107 44.5t44 107.5q0 62 -44 105.5t-107 43.5h-66v-301zM1165 -4l11 49h14q46 5 62 23t16 75v910q0 57 -16 75t-62 23h-14l-11 49h17q18 0 52 -2t46 -2h262q12 0 46 2t52 2h17l-10 -49h-15q-46 -5 -62 -23t-16 -75v-910 q0 -57 16 -75t62 -23h15l10 -49h-17q-18 0 -52 2t-46 2h-262q-12 0 -46 -2t-52 -2h-17z"/>
<glyph unicode="Ь" horiz-adv-x="1257" d="M225 -4l11 49h14q46 5 62 23t16 75v910q0 57 -16 75t-62 23h-14l-11 49h17q18 0 52 -2t46 -2h262q12 0 46 2t52 2h17l-10 -49h-15q-45 -5 -61.5 -24t-16.5 -76v-308h101q164 0 276.5 -100.5t112.5 -261.5q0 -91 -24 -159t-64 -109.5t-99 -67.5t-120.5 -35.5t-137.5 -9.5 h-319q-12 0 -46 -2t-52 -2h-17zM614 221h66q63 0 107 44.5t44 107.5q0 62 -44 105.5t-107 43.5h-66v-301z"/>
<glyph unicode="Э" horiz-adv-x="1458" d="M229 469h50q14 -94 110.5 -165t231.5 -71q119 0 214.5 71t131.5 181h-250q-56 0 -76 -14.5t-25 -46.5v-14l-49 -11v17q0 18 3 44t3 38v184q0 12 -3 46t-3 52v19l49 -11q-2 -8 0 -16q5 -28 26 -43.5t75 -15.5h250q-37 110 -132 180t-214 70q-132 0 -228.5 -75t-113.5 -163 h-50q0 56 3.5 194t3.5 177q174 131 385 131q128 0 244 -49.5t200 -134t134 -201t50 -244.5t-50 -244.5t-134 -201t-200 -134t-244 -49.5q-220 0 -385 133z"/>
<glyph unicode="Ю" horiz-adv-x="2240" d="M225 -4l11 49h14q46 5 61 22t15 74v912q0 57 -15.5 75t-60.5 23h-14l-11 49h17q18 0 52 -2t46 -2h262q12 0 46 2t52 2h17l-10 -49h-15q-46 -5 -62 -23t-16 -75v-322h174q46 215 218.5 355.5t396.5 140.5q128 0 244.5 -49.5t201 -134t134 -201t49.5 -244.5t-49.5 -242 t-134 -195t-200.5 -128t-245 -47q-238 0 -413.5 146t-209.5 372h-166v-361q0 -57 16 -75t62 -23h15l10 -49h-17q-18 0 -52 2t-46 2h-262q-12 0 -46 -2t-52 -2h-17zM1028 596q0 -156 110.5 -266.5t266.5 -110.5q158 0 268.5 110t110.5 267q0 158 -110.5 268.5t-268.5 110.5 q-156 0 -266.5 -110.5t-110.5 -268.5zM1210 596l197 197l197 -197l-197 -197z"/>
<glyph unicode="Я" horiz-adv-x="1419" d="M18 -4l13 49q8 -2 14 0q22 2 34 6.5t36.5 25.5t64.5 66l328 373q-96 39 -156.5 130t-60.5 185q0 162 104.5 265.5t257.5 103.5q15 0 65 -2t62 -2h299q11 0 46 2t53 2h16l-10 -49h-15q-45 -5 -61 -23t-16 -75v-910q0 -57 16 -75t61 -23h15l10 -49h-16q-18 0 -53 2t-46 2 h-262q-11 0 -46 -2t-52 -2h-17l11 49h14q46 5 62 23t16 75v312h-17l-372 -455h-281q-11 0 -46 -2t-52 -2h-19zM543 840q0 -64 46 -110t109 -46h107v311h-107q-63 0 -109 -46t-46 -109z"/>
<glyph unicode="а" horiz-adv-x="1683" d="M94 82l33 39q8 -4 12 -8q38 -17 63.5 -7.5t51.5 60.5l586 1100l587 -1100q26 -51 50.5 -60t64.5 7l12 8l33 -39l-16 -8q-12 -6 -44.5 -20.5t-43.5 -20.5l-232 -123q-6 -4 -22 -14l-32 -20t-30 -17l-16 -9l-12 50l12 6q38 26 43 49t-20 76l-76 153h-514l-76 -153 q-25 -52 -20.5 -76t40.5 -49l15 -6l-15 -50l-16 9q-17 9 -47 28.5t-35 22.5l-231 123l-88 41zM698 418h285l-143 289z"/>
<glyph unicode="б" horiz-adv-x="1280" d="M225 -4l11 49h14q46 5 62 23t16 75v910q0 57 -16 75t-62 23h-14l-11 49h17q18 0 52 -2t46 -2h588q57 0 76 16.5t24 61.5v14l49 10v-16q0 -18 -3 -52t-3 -46v-238q0 -12 2 -46.5t2 -51.5v-17l-49 11v14q-5 45 -23.5 60.5t-76.5 15.5h-312v-189h80q165 0 278 -99.5 t113 -260.5q0 -383 -454 -383h-291q-12 0 -46 -2t-52 -2h-17zM614 221h31q63 0 107.5 44.5t44.5 107.5q0 62 -44.5 105.5t-107.5 43.5h-31v-301z"/>
<glyph unicode="в" horiz-adv-x="1261" d="M225 -4l11 49h14q46 5 62 23t16 75v910q0 57 -16 75t-62 23h-14l-11 49h17q18 0 52 -2t46 -2h262q14 0 59.5 2t61.5 2q117 0 199 -81.5t82 -198.5q0 -76 -38.5 -141t-101.5 -103q98 -40 158.5 -129.5t60.5 -198.5q0 -147 -102.5 -249.5t-249.5 -102.5q-18 0 -66 2t-63 2 h-262q-12 0 -46 -2t-52 -2h-17zM614 221h29q63 0 107.5 44.5t44.5 107.5q0 62 -44.5 105.5t-107.5 43.5h-29v-301zM614 764h33q51 0 87 35t36 86t-36 87t-87 36h-33v-244z"/>
<glyph unicode="г" horiz-adv-x="1167" d="M268 -207v1403h602q58 0 77 16.5t24 61.5v14l49 10v-16q0 -18 -3 -52t-3 -46v-238q6 -75 6 -98v-17l-49 11v14q-5 45 -24 60.5t-77 15.5h-315v-854z"/>
<glyph unicode="д" horiz-adv-x="1611" d="M125 -109q0 17 2 52t2 47v241q0 11 -2 46t-2 53v18l49 -10v-16q4 -40 19.5 -48t74.5 -8h23l522 1000l514 -1000h25q58 0 73 8t19 48v16l49 10v-18q0 -18 -2 -53t-2 -46v-241q0 -12 2 -47t2 -52v-16l-49 10v15q-5 49 -24 73.5t-70 24.5h-1082q-51 0 -70 -24.5t-24 -73.5 v-15l-49 -10v16zM598 266h426l-211 451z"/>
<glyph unicode="е" d="M229 373v16q0 17 2 52t2 46v222q0 11 -2 46t-2 52v18l50 -10v-16q5 -43 22.5 -59t71.5 -17v473h602q57 0 76 16.5t24 61.5v14l49 10v-16q0 -18 -3 -52t-3 -46v-238q0 -8 2 -32.5t2 -39.5l-53 15q-7 25 -27.5 34t-66.5 9h-316v-209h316q54 0 74.5 15.5t25.5 43.5v17l49 10 v-18q0 -17 -3 -52t-3 -47v-205q0 -11 3 -37t3 -44v-17l-49 10q2 9 0 15q-5 33 -24.5 47t-75.5 14h-316v-211h316q46 0 66.5 9t27.5 34l53 15q0 -15 -2 -39.5t-2 -32.5v-238q0 -11 3 -45.5t3 -52.5v-16l-49 10v14q-5 45 -24 61.5t-76 16.5h-373l-229 -207v682 q-54 -1 -71.5 -17t-22.5 -61v-14z"/>
<glyph unicode="ж" horiz-adv-x="1914" d="M123 952l12 15q11 12 37 36.5t33 32.5l157 189q6 6 28.5 33.5t35.5 41.5l10 15l31 -41q-6 -8 -10 -10q-27 -35 -23.5 -61.5t47.5 -63.5l340 -277v191q0 57 -16 75t-62 23h-14l-10 49h16q17 0 52 -2t47 -2h251q11 0 46 2t53 2h16l-10 -49h-14q-46 -5 -62 -23t-16 -75v-189 l336 275q44 37 48 63.5t-24 61.5l-8 10l29 41l12 -15q51 -64 61 -75l158 -189q7 -8 33 -32.5t37 -36.5l12 -15l-45 -22q-4 6 -10 10q-30 29 -55.5 29t-69.5 -37l-438 -357l405 -331q44 -37 69.5 -37.5t57.5 31.5l6 10l45 -23l-8 -14q-7 -8 -33.5 -35t-34.5 -37l-157 -188 q-7 -7 -28 -35.5t-34 -42.5l-8 -16l-33 41l11 12q25 34 21 61t-48 62l-307 252v-289l-277 -385v676l-311 -254q-44 -35 -48 -62t21 -61l11 -12l-31 -41l-10 16q-11 12 -32 40.5t-30 37.5l-158 188q-6 8 -17.5 20t-26.5 27.5t-23 24.5l-8 14l45 23q4 -6 8 -10 q31 -32 56 -31.5t69 37.5l405 331l-438 357q-44 37 -69.5 37t-55.5 -29l-10 -10z"/>
<glyph unicode="з" horiz-adv-x="1212" d="M193 385l51 2q64 -95 142 -134.5t173 -39.5q42 0 81.5 12.5t70 45.5t30.5 81q0 64 -46 110t-128 46h-73l-88 96l79 115h84q73 0 112.5 38t39.5 95q0 64 -48.5 98.5t-117.5 34.5q-84 0 -144 -31t-102 -110l-47 10q4 198 4 276q46 35 129 61t156 26q88 0 161.5 -19t131 -58 t89.5 -103.5t32 -149.5q0 -67 -44 -139t-118 -105q225 -75 225 -305q0 -162 -134.5 -265.5t-326.5 -103.5q-114 0 -212.5 37t-159.5 111z"/>
<glyph unicode="и" horiz-adv-x="1607" d="M225 -4l11 49h16q45 5 60.5 23t15.5 75v910q0 57 -15.5 75t-60.5 23h-16l-11 49h19q18 0 52 -2t46 -2h227q11 0 46 2t53 2h18l-12 -49h-15q-45 -5 -61 -23t-16 -75v-555l444 546v9q0 57 -16 75t-62 23h-14l-10 49h16q18 0 52 -2t46 -2h230q12 0 46 2t52 2h16l-10 -49h-14 q-46 -5 -62 -23t-16 -75v-910q0 -57 16 -75t62 -23h14l10 -49h-16q-18 0 -52 2t-46 2h-230q-12 0 -46 -2t-52 -2h-16l10 49h14q46 5 62 23t16 75v559l-444 -548v-11q0 -57 16 -75t61 -23h15l12 -49h-18q-18 0 -53 2t-46 2h-227q-12 0 -46 -2t-52 -2h-19z"/>
<glyph unicode="й" horiz-adv-x="1607" d="M225 -4l11 49h16q45 5 60.5 23t15.5 75v910q0 57 -15.5 75t-60.5 23h-16l-11 49h19q18 0 52 -2t46 -2h227q11 0 46 2t53 2h18l-12 -49h-15q-45 -5 -61 -23t-16 -75v-555l444 546v9q0 57 -16 75t-62 23h-14l-10 49h16q18 0 52 -2t46 -2h230q12 0 46 2t52 2h16l-10 -49h-14 q-46 -5 -62 -23t-16 -75v-910q0 -57 16 -75t62 -23h14l10 -49h-16q-18 0 -52 2t-46 2h-230q-12 0 -46 -2t-52 -2h-16l10 49h14q46 5 62 23t16 75v559l-444 -548v-11q0 -57 16 -75t61 -23h15l12 -49h-18q-18 0 -53 2t-46 2h-227q-12 0 -46 -2t-52 -2h-19zM518 1532l166 104 l166 -133l201 117l71 -64l-366 -210z"/>
<glyph unicode="к" horiz-adv-x="1474" d="M225 -4l11 49h14q46 5 62 23t16 75v910q0 57 -16 75t-62 23h-14l-11 49h17q18 0 52 -2t46 -2h262q12 0 46 2t52 2h17l-10 -49h-15q-46 -5 -62 -23t-16 -75v-256l400 401h250q12 0 46 2t52 2h18l-12 -49q-8 2 -14 0q-68 -8 -158 -98l-408 -404l504 -508q67 -65 87.5 -80 t47.5 -18h15l12 -49h-18q-18 0 -53 2t-46 2h-284l-439 455v-312q0 -57 16 -75t62 -23h15l10 -49h-17q-18 0 -52 2t-46 2h-262q-12 0 -46 -2t-52 -2h-17z"/>
<glyph unicode="л" horiz-adv-x="1683" d="M94 82l33 39q8 -4 12 -8q38 -17 62.5 -7.5t52.5 60.5l586 1100l587 -1100q28 -51 51.5 -60t63.5 7l12 8l33 -39l-16 -8q-15 -8 -47.5 -22.5t-40.5 -18.5l-232 -123q-9 -5 -38 -23.5t-46 -27.5l-16 -9l-12 50l12 6q38 26 43 49t-20 76l-334 682l-332 -682 q-24 -51 -20 -75.5t40 -49.5l15 -6l-15 -50l-16 9q-16 8 -44.5 27.5t-37.5 23.5l-231 123q-11 6 -42.5 20t-45.5 21z"/>
<glyph unicode="м" horiz-adv-x="1996" d="M82 37l27 43q8 -2 12 -6q43 -8 63.5 4t42.5 67l461 1121l316 -686l323 686l463 -1121q22 -55 41.5 -67t62.5 -4l15 6l26 -43l-18 -6q-69 -19 -92 -27l-248 -84q-9 -3 -40.5 -18t-49.5 -21l-17 -4l-8 49q11 4 17 4q40 20 49.5 43.5t-10.5 77.5l-242 590l-285 -502 l-272 518l-221 -606q-17 -55 -8 -78t49 -43l14 -4l-6 -49l-17 4q-18 6 -49.5 21t-40.5 18l-247 84q-30 10 -93 27z"/>
<glyph unicode="н" horiz-adv-x="1525" d="M225 -4l11 49h14q46 5 62 23t16 75v910q0 57 -16 75t-62 23h-14l-11 49h17q18 0 52 -2t46 -2h262q12 0 46 2t52 2h17l-10 -49h-15q-46 -5 -62 -23t-16 -75v-322h297v322q0 57 -16 75t-61 23h-15l-12 49h18q17 0 52 -2t47 -2h260q12 0 46 2t52 2h18l-10 -49h-16 q-45 -5 -60.5 -23t-15.5 -75v-910q0 -57 15.5 -75t60.5 -23h16l10 -49h-18q-18 0 -52 2t-46 2h-260q-12 0 -47 -2t-52 -2h-18l12 49h15q45 5 61 23t16 75v369h-297v-369q0 -57 16 -75t62 -23h15l10 -49h-17q-18 0 -52 2t-46 2h-262q-12 0 -46 -2t-52 -2h-17z"/>
<glyph unicode="о" horiz-adv-x="1716" d="M229 598q0 171 84.5 316t229.5 229t315 84q128 0 244.5 -49.5t201 -134t134 -201t49.5 -244.5t-49.5 -244.5t-134 -201t-201 -134t-244.5 -49.5q-170 0 -315 84t-229.5 229t-84.5 316zM494 506q26 -100 99.5 -174t172.5 -99v273h-272zM494 690h272v273 q-100 -25 -173.5 -99t-98.5 -174zM950 233q101 25 175.5 99t99.5 174h-275v-273zM950 690h275q-26 100 -100 174t-175 99v-273z"/>
<glyph unicode="п" horiz-adv-x="1525" d="M225 -4l11 49h14q46 5 62 23t16 75v910q0 57 -16 75t-62 23h-14l-11 49h17q18 0 52 -2t46 -2h844q12 0 46 2t52 2h18l-10 -49h-16q-45 -5 -60.5 -23t-15.5 -75v-910q0 -57 15.5 -75t60.5 -23h16l10 -49h-18q-18 0 -52 2t-46 2h-260q-12 0 -47 -2t-52 -2h-18l12 49h15 q45 5 61 23t16 75v787h-297v-787q0 -57 16 -75t62 -23h15l10 -49h-17q-18 0 -52 2t-46 2h-262q-12 0 -46 -2t-52 -2h-17z"/>
<glyph unicode="р" horiz-adv-x="1245" d="M225 -4l11 49h14q46 5 62 23t16 75v910q0 57 -16 75t-62 23h-14l-11 49h17q18 0 52 -2t46 -2h137q5 0 41.5 1.5t93.5 3t113 1.5q152 0 259.5 -106.5t107.5 -257.5q0 -152 -107.5 -259.5t-259.5 -107.5h-111v-328q0 -57 16 -75t62 -23h15l10 -49h-17q-18 0 -52 2t-46 2 h-262q-12 0 -46 -2t-52 -2h-17zM614 684h62q66 0 112 47t46 113t-46 113t-112 47h-62v-320z"/>
<glyph unicode="с" horiz-adv-x="1458" d="M229 598q0 171 84.5 316t229.5 229t315 84q211 0 385 -131q0 -39 3 -177t3 -194h-49q-17 88 -113.5 163t-228.5 75q-151 0 -257.5 -107t-106.5 -258t106.5 -258t257.5 -107q135 0 231.5 71t110.5 165h49l-6 -367q-165 -133 -385 -133q-170 0 -315 84t-229.5 229 t-84.5 316z"/>
<glyph unicode="т" horiz-adv-x="1540" d="M168 807v18q0 17 2 52t2 47v260q0 12 -2 46t-2 52v16l49 -10v-14q5 -46 23 -62t75 -16h910q59 0 77 16t23 62v14l49 10v-16q0 -18 -2 -52t-2 -46v-260q0 -12 2 -47t2 -52v-18l-49 12v15q-5 45 -23 61t-77 16h-312v-768q0 -57 16 -75t62 -23h15l12 -49h-19q-17 0 -52 2 t-46 2h-260q-11 0 -46 -2t-52 -2h-19l13 49h14q45 5 60.5 23t15.5 75v768h-312q-57 0 -75 -16t-23 -61v-15z"/>
<glyph unicode="у" horiz-adv-x="1679" d="M90 1028l35 19q30 16 170 127q12 10 82.5 63.5t95.5 77.5l21 22l18 -51l-20 -16q-23 -17 -30.5 -29.5t-3 -30.5t26.5 -45l394 -491l319 491q29 48 28 65.5t-32 41.5l-16 10l14 51q33 -21 95 -68.5t99 -70.5q71 -43 191 -109l27 -16l-41 -33q-15 5 -21 11 q-33 19 -53.5 12.5t-48.5 -49.5l-672 -1010q-22 -32 -25.5 -54.5t6 -36.5t33.5 -34l15 -8l-19 -49l-12 12q-16 9 -45.5 30.5t-38.5 26.5l-223 140q-9 5 -40 21.5t-48 25.5l-13 10l35 37q6 -6 10 -8q41 -20 63 -12t56 55l180 254l-448 553q-23 27 -29.5 34t-19 15t-21.5 6 t-28 -8l-25 -19z"/>
<glyph unicode="ф" horiz-adv-x="1650" d="M180 600q0 149 70 273.5t187 198t257 83.5l2 76q0 53 -12 68t-51 20h-21l-24 49h37q17 0 52 -2t46 -2h238q11 0 46 2t52 2h37l-23 -49h-22q-43 -5 -61.5 -21t-18.5 -67v-76q138 -10 254 -79.5t186 -190.5t70 -269q0 -149 -70 -273.5t-186 -198t-254 -83.5v-88l-277 -280 v368q-105 7 -199 50t-163.5 112t-110.5 167t-41 210zM451 610q0 -124 73.5 -212.5t194.5 -98.5v612q-121 -10 -194.5 -94.5t-73.5 -206.5zM946 299q119 10 193.5 101.5t74.5 215.5q0 121 -73.5 203t-194.5 92v-612z"/>
<glyph unicode="х" horiz-adv-x="1748" d="M133 199l43 26q4 -6 8 -10q34 -29 58.5 -26.5t66.5 42.5l359 357l-359 356q-41 40 -66 42.5t-59 -25.5l-8 -11l-43 27l10 12q10 10 37.5 33.5t36.5 32.5l184 186q46 52 68 72l10 12l29 -43q-6 -6 -12 -8q-28 -33 -26.5 -60.5t42.5 -66.5l358 -356l357 356q41 41 43 67 t-27 60l-10 8l27 43l12 -12q27 -27 67 -72l183 -186q8 -9 35 -32t38 -34l13 -12l-43 -27q-5 7 -11 11q-32 28 -57.5 26t-66.5 -43l-357 -356l357 -355q42 -40 66.5 -42.5t55.5 26.5l13 8l43 -24l-15 -15q-11 -11 -38 -33.5t-35 -31.5l-183 -184q-56 -63 -65 -72l-15 -15 l-24 44l8 12q29 31 27 56.5t-43 66.5l-355 356l-358 -356q-41 -39 -42.5 -67t26.5 -58l12 -13l-29 -43l-10 15q-14 13 -38 40.5t-30 33.5l-184 182q-4 3 -31.5 27t-42.5 38z"/>
<glyph unicode="ц" horiz-adv-x="1540" d="M227 -2l11 49h16q45 5 60.5 23t15.5 75v910q0 57 -15.5 75t-60.5 23h-16l-11 49h19q18 0 52 -2t46 -2h260q12 0 46.5 2t51.5 2h19l-12 -49h-15q-46 -5 -62 -23t-16 -75v-799h297v799q0 57 -16 75t-61 23h-15l-10 49h16q17 0 52 -2t47 -2h262q12 0 46 2t52 2h17l-11 -49 h-14q-46 -5 -62 -23t-16 -75v-799h90q58 0 73 7.5t19 47.5v17l50 10v-19q0 -17 -2.5 -52t-2.5 -46v-231q0 -12 2.5 -47t2.5 -52v-16l-50 10v15q-5 50 -25 76t-71 26h-942q-12 0 -46 -2t-52 -2h-19z"/>
<glyph unicode="ч" horiz-adv-x="1435" d="M145 1202h19q15 0 49.5 -2t42.5 -2h293q6 0 31 2t36 2h27l-10 -49h-21q-18 -3 -28 -6.5t-22 -12.5t-17.5 -27.5t-5.5 -47.5v-201q0 -87 32.5 -123.5t108.5 -36.5q49 0 141 15v342q0 58 -14.5 75.5t-58.5 22.5h-23l-10 49h24q17 0 46 -2t40 -2h271q12 0 46 2t52 2h18 l-12 -49h-14q-45 -5 -60.5 -23t-15.5 -75v-910q0 -59 15 -76t61 -22h14l12 -49h-18q-18 0 -52 2t-46 2h-260q-12 0 -47 -2t-52 -2h-18l12 49h14q46 5 62 23t16 75v328q-137 -18 -239 -18q-149 0 -239.5 85.5t-90.5 256.5v258q0 54 -21.5 73t-62.5 25h-12z"/>
<glyph unicode="ш" horiz-adv-x="2023" d="M225 -2l13 49h14q46 5 62 23t16 75v910q0 57 -16 75t-62 23h-14l-13 49h19q18 0 52 -2t46 -2h256q12 0 46 2t52 2h19l-13 -49h-14q-46 -5 -62 -23t-16 -75v-799h262v799q0 57 -16 75t-61 23h-15l-12 49h18q18 0 53 -2t46 -2h256q11 0 46 2t52 2h18l-12 -49h-14 q-46 -5 -62 -23t-16 -75v-799h260v799q0 57 -15.5 75t-60.5 23h-14l-12 49h18q17 0 52 -2t46 -2h256q11 0 46 2t53 2h16l-10 -49h-14q-46 -5 -62 -23t-16 -75v-910q0 -57 16 -75t62 -23h14l10 -49h-16q-18 0 -53 2t-46 2h-1341q-12 0 -46 -2t-52 -2h-19z"/>
<glyph unicode="щ" horiz-adv-x="2068" d="M225 -2l13 49h14q46 5 62 23t16 75v910q0 57 -16 75t-62 23h-14l-13 49h19q18 0 52 -2t46 -2h256q12 0 46 2t52 2h19l-13 -49h-14q-46 -5 -62 -23t-16 -75v-799h262v799q0 57 -16 75t-61 23h-15l-12 49h18q18 0 53 -2t46 -2h256q11 0 46 2t52 2h18l-12 -49h-14 q-46 -5 -62 -23t-16 -75v-799h260v799q0 57 -15.5 75t-60.5 23h-14l-12 49h18q17 0 52 -2t46 -2h256q11 0 46 2t53 2h16l-10 -49h-14q-46 -5 -62.5 -23t-15.5 -75v-799h78q58 0 73 7.5t19 47.5v17l49 10v-19q0 -17 -2 -52t-2 -46v-231q0 -12 2 -47t2 -52v-16l-49 10v15 q-11 102 -105 102h-1419q-12 0 -46 -2t-52 -2h-19z"/>
<glyph unicode="ъ" horiz-adv-x="1357" d="M123 836v18q0 18 2 52t2 46v232q0 12 -2 46t-2 52v16l49 -10v-14q5 -46 23 -62t75 -16h445v-453h100q165 0 277 -100.5t112 -261.5q0 -90 -24 -158.5t-64 -110t-98.5 -67.5t-119.5 -35.5t-136 -9.5h-322q-11 0 -45.5 -2t-52.5 -2h-16l10 49h14q46 5 62 23t16 75v797h-158 q-57 0 -75 -16t-23 -62v-14zM715 221h65q63 0 107.5 44.5t44.5 107.5q0 62 -44.5 105.5t-107.5 43.5h-65v-301z"/>
<glyph unicode="ы" horiz-adv-x="1882" d="M223 -4l10 49h15q46 5 62 23t16 75v910q0 57 -16 75t-62 23h-15l-10 49h17q18 0 52 -2t46 -2h262q12 0 46 2t52 2h17l-10 -49h-15q-45 -5 -61.5 -24t-16.5 -76v-308h101q164 0 276.5 -100.5t112.5 -261.5q0 -91 -24 -159t-64 -109.5t-99 -67.5t-120.5 -35.5t-137.5 -9.5 h-319q-12 0 -46 -2t-52 -2h-17zM612 221h66q63 0 107 44.5t44 107.5q0 62 -44 105.5t-107 43.5h-66v-301zM1165 -4l11 49h14q46 5 62 23t16 75v910q0 57 -16 75t-62 23h-14l-11 49h17q18 0 52 -2t46 -2h262q12 0 46 2t52 2h17l-10 -49h-15q-46 -5 -62 -23t-16 -75v-910 q0 -57 16 -75t62 -23h15l10 -49h-17q-18 0 -52 2t-46 2h-262q-12 0 -46 -2t-52 -2h-17z"/>
<glyph unicode="ь" horiz-adv-x="1280" d="M225 -4l11 49h14q46 5 62 23t16 75v910q0 57 -16 75t-62 23h-14l-11 49h17q18 0 52 -2t46 -2h262q12 0 46 2t52 2h17l-10 -49h-15q-45 -5 -61.5 -24t-16.5 -76v-308h101q164 0 276.5 -100.5t112.5 -261.5q0 -91 -24 -159t-64 -109.5t-99 -67.5t-120.5 -35.5t-137.5 -9.5 h-319q-12 0 -46 -2t-52 -2h-17zM614 221h66q63 0 107 44.5t44 107.5q0 62 -44 105.5t-107 43.5h-66v-301z"/>
<glyph unicode="э" horiz-adv-x="1435" d="M231 469h50q14 -94 110.5 -165t231.5 -71q120 0 215 71t131 181h-250q-56 0 -76 -14.5t-25 -46.5v-14l-49 -11v17q0 18 3 44t3 38v184q0 12 -3 46t-3 52v19l49 -11q-2 -8 0 -16q5 -28 26 -43.5t75 -15.5h250q-37 110 -132 180t-214 70q-132 0 -228.5 -75t-113.5 -163h-50 q0 56 3.5 194t3.5 177q174 131 385 131q128 0 244 -49.5t200 -134t134 -201t50 -244.5t-50 -244.5t-134 -201t-200 -134t-244 -49.5q-220 0 -385 133z"/>
<glyph unicode="ю" horiz-adv-x="2240" d="M225 -4l11 49h14q46 5 61 22t15 74v912q0 57 -15.5 75t-60.5 23h-14l-11 49h17q18 0 52 -2t46 -2h262q12 0 46 2t52 2h17l-10 -49h-15q-46 -5 -62 -23t-16 -75v-322h174q46 215 218.5 355.5t396.5 140.5q128 0 244.5 -49.5t201 -134t134 -201t49.5 -244.5t-49.5 -242 t-134 -195t-200.5 -128t-245 -47q-238 0 -413.5 146t-209.5 372h-166v-361q0 -57 16 -75t62 -23h15l10 -49h-17q-18 0 -52 2t-46 2h-262q-12 0 -46 -2t-52 -2h-17zM1028 596q0 -156 110.5 -266.5t266.5 -110.5q158 0 268.5 110t110.5 267q0 158 -110.5 268.5t-268.5 110.5 q-156 0 -266.5 -110.5t-110.5 -268.5zM1210 596l197 197l197 -197l-197 -197z"/>
<glyph unicode="я" horiz-adv-x="1464" d="M63 -4l13 49q8 -2 14 0q22 2 34 6.5t36.5 25.5t64.5 66l328 373q-96 39 -156.5 130t-60.5 185q0 162 104.5 265.5t257.5 103.5q15 0 65 -2t62 -2h299q12 0 47 2t52 2h16l-10 -49h-15q-45 -5 -61 -23t-16 -75v-910q0 -57 16 -75t61 -23h15l10 -49h-16q-17 0 -52 2t-47 2 h-262q-11 0 -45.5 -2t-52.5 -2h-16l10 49h14q46 5 62 23t16 75v312h-16l-373 -455h-281q-12 0 -46 -2t-52 -2h-19zM588 840q0 -64 46 -110t109 -46h107v311h-107q-63 0 -109 -46t-46 -109z"/>
<glyph unicode="ё" d="M229 373v16q0 17 2 52t2 46v222q0 11 -2 46t-2 52v18l50 -10v-16q5 -43 22.5 -59t71.5 -17v473h602q57 0 76 16.5t24 61.5v14l49 10v-16q0 -18 -3 -52t-3 -46v-238q0 -8 2 -32.5t2 -39.5l-53 15q-7 25 -27.5 34t-66.5 9h-316v-209h316q54 0 74.5 15.5t25.5 43.5v17l49 10 v-18q0 -17 -3 -52t-3 -47v-205q0 -11 3 -37t3 -44v-17l-49 10q2 9 0 15q-5 33 -24.5 47t-75.5 14h-316v-211h316q46 0 66.5 9t27.5 34l53 15q0 -15 -2 -39.5t-2 -32.5v-238q0 -11 3 -45.5t3 -52.5v-16l-49 10v14q-5 45 -24 61.5t-76 16.5h-373l-229 -207v682 q-54 -1 -71.5 -17t-22.5 -61v-14zM377 1552l149 152l152 -152l-152 -149zM793 1552l151 152l150 -152l-150 -149z"/>
<glyph unicode="ђ" horiz-adv-x="1525" d="M109 836v16q0 16 2 48t2 42v240q0 11 -2 43t-2 47v18l45 -12v-12q5 -42 22 -57t70 -15h184v186q0 54 -14 70.5t-56 19.5h-12l-12 48h16q16 0 49 -2.5t43 -2.5h240q10 0 43 2.5t49 2.5h17l-13 -48h-12q-42 -3 -57 -20t-15 -70v-186h287q54 0 71.5 15t22.5 57v12l45 12v-18 q0 -15 -2 -47t-2 -43v-240q0 -10 2 -42t2 -48v-16l-45 10v14q-5 42 -22 56t-72 14h-287v-207q45 40 112 62t130 22q200 0 324 -112.5t124 -307.5q0 -184 -106 -285.5t-268 -101.5q-15 0 -39 3.5t-41 6.5l-17 4v217q0 11 -3 44t-3 51v12l47 -10v-11q3 -15 6 -23.5t10 -18 t21 -13t35 -2.5q30 2 56 39.5t26 91.5q0 79 -52 131.5t-132 52.5q-98 0 -164 -64t-66 -167v-201q0 -56 20 -74.5t68 -23.5h15l12 -49h-18q-18 0 -53 2t-46 2h-248q-12 0 -46 -2t-52 -2h-18l12 49h14q44 5 59 23.5t15 76.5v785h-184q-53 0 -70 -14t-22 -56v-14z"/>
<glyph unicode="ѓ" horiz-adv-x="1165" d="M268 -207v1403h602q58 0 77 16.5t24 61.5v14l49 10v-16q0 -18 -3 -52t-3 -46v-238q6 -75 6 -98v-17l-49 11v14q-5 45 -24 60.5t-77 15.5h-315v-854zM485 1391l185 192h340l-351 -192h-174z"/>
<glyph unicode="є" horiz-adv-x="1458" d="M207 598q0 171 84.5 316t229.5 229t315 84q211 0 385 -131q0 -39 3 -177t3 -194h-49q-17 88 -113.5 163t-228.5 75q-119 0 -214.5 -70t-132.5 -180h281q54 0 74.5 15.5t25.5 43.5v16l50 11v-19q0 -18 -3.5 -52t-3.5 -46v-184q0 -12 3.5 -38t3.5 -44v-17l-50 11q2 8 0 14 q-5 33 -24.5 47t-75.5 14h-281q36 -110 131.5 -181t215.5 -71q135 0 231.5 71t110.5 165h49l-6 -367q-165 -133 -385 -133q-170 0 -315 84t-229.5 229t-84.5 316z"/>
<glyph unicode="ѕ" horiz-adv-x="1245" d="M238 272l215 90q8 3 43 21t53 25l20 8l15 -49q-47 -19 -47 -66q0 -34 26 -59t66 -25q42 0 74 29t32 71q0 45 -26.5 78t-87.5 66l-129 76q-109 65 -157 144t-48 189q0 94 40.5 171.5t129 127.5t213.5 50q131 0 224 -72t130 -199l-207 -88q-10 -4 -37.5 -18.5t-40.5 -20.5 l-14 -4l-8 45q23 14 32 25.5t9 34.5q0 32 -26 55.5t-73 23.5q-41 0 -70.5 -28.5t-29.5 -73.5q0 -38 20.5 -66t77.5 -61l166 -98q99 -60 152 -138.5t53 -199.5q0 -85 -35.5 -156t-92.5 -115.5t-126 -69t-139 -24.5q-147 0 -251 80.5t-146 220.5z"/>
<glyph unicode="і" horiz-adv-x="1007" d="M258 -4l10 49h15q45 5 61 23t16 75v910q0 57 -16 75t-61 23h-15l-10 49h16q17 0 52 -2t47 -2h262q11 0 46 2t52 2h17l-11 -49h-14q-46 -5 -62 -23t-16 -75v-910q0 -57 16 -75t62 -23h14l11 -49h-17q-17 0 -52 2t-46 2h-262q-12 0 -47 -2t-52 -2h-16zM358 1552l152 152 l149 -152l-149 -149z"/>
<glyph unicode="ї" horiz-adv-x="1007" d="M145 1552l150 152l151 -152l-151 -149zM258 -4l10 49h15q45 5 61 23t16 75v910q0 57 -16 75t-61 23h-15l-10 49h16q17 0 52 -2t47 -2h262q11 0 46 2t52 2h17l-11 -49h-14q-46 -5 -62 -23t-16 -75v-910q0 -57 16 -75t62 -23h14l11 -49h-17q-17 0 -52 2t-46 2h-262 q-12 0 -47 -2t-52 -2h-16zM561 1552l152 152l149 -152l-149 -149z"/>
<glyph unicode="ј" horiz-adv-x="1007" d="M258 1200h16q17 0 52 -2t47 -2h262q11 0 46 2t52 2h17l-11 -49h-14q-46 -5 -62 -23t-16 -75v-1057l-287 -385v1442q0 57 -16 75t-61 23h-15z"/>
<glyph unicode="љ" horiz-adv-x="1873" d="M-51 141l45 31q8 -6 10 -10q35 -24 60 -20t67 46l1081 1092h7v-549h102q164 0 276.5 -98.5t112.5 -257.5q0 -89 -24 -156t-64 -108t-98.5 -66.5t-120 -35t-137.5 -9.5h-324v145h-504l-116 -118q-39 -42 -41.5 -68.5t26.5 -56.5l15 -11l-27 -45l-14 13q-16 12 -41 37.5 t-29 29.5l-172 146q-10 10 -76 59zM647 360h295v306zM1219 219h67q63 0 107.5 43.5t44.5 104.5t-44.5 103t-107.5 42h-67v-293z"/>
<glyph unicode="њ" horiz-adv-x="1853" d="M225 -4l11 49h14q46 5 62 23t16 75v910q0 57 -16 75t-62 23h-14l-11 49h17q18 0 52 -2t46 -2h262q12 0 46 2t52 2h17l-10 -49h-15q-46 -5 -62 -23t-16 -75v-322h297v322q0 57 -16 75t-61 23h-15l-12 49h18q17 0 52 -2t47 -2h260q12 0 46 2t52 2h18l-10 -49h-16 q-45 -5 -60.5 -23t-15.5 -75l2 -322h100q164 0 277 -98.5t113 -257.5q0 -89 -24 -156t-64 -108t-99 -66.5t-120.5 -35t-137.5 -9.5h-317q-12 0 -49 -2t-54 -2h-18l12 49h15q45 5 61 23t16 75v369h-297v-369q0 -57 16 -75t62 -23h15l10 -49h-17q-18 0 -52 2t-46 2h-262 q-12 0 -46 -2t-52 -2h-17zM1200 219h66q63 0 107 43t44 105q0 61 -44 103t-107 42h-66v-293z"/>
<glyph unicode="ћ" horiz-adv-x="1599" d="M70 836v16q0 16 2 48t2 42v240q0 11 -2 43t-2 47v18l47 -12v-12q3 -42 20 -57t70 -15h186v186q0 53 -14.5 70t-56.5 20h-13l-12 48h18q15 0 47.5 -2.5t43.5 -2.5h241q11 0 42 2.5t48 2.5h17l-11 -48h-14q-42 -3 -57 -20t-15 -70v-186h289q54 0 70.5 14.5t21.5 57.5v12 l45 12v-18q0 -15 -2 -47t-2 -43v-240q0 -10 2 -42t2 -48v-16l-45 10v14q-5 42 -21 56t-71 14h-280v-213q45 39 112 60.5t131 21.5q195 0 313.5 -115t118.5 -301v-240q0 -57 16 -75t62 -23h15l10 -49h-17q-17 0 -52 2t-46 2h-262q-11 0 -46 -2t-52 -2h-17l11 49h14 q46 5 62 23t16 75v240q0 86 -43.5 139t-134.5 53q-96 0 -153.5 -63t-57.5 -168v-201q0 -57 16.5 -75t62.5 -23h15l12 -49h-18q-18 0 -53 2t-46 2h-247q-12 0 -47 -2t-52 -2h-18l12 49h14q45 5 60.5 23.5t15.5 76.5v785h-186q-54 0 -70.5 -14t-19.5 -56v-14z"/>
<glyph unicode="ќ" horiz-adv-x="1474" d="M225 -4l11 49h14q46 5 62 23t16 75v910q0 57 -16 75t-62 23h-14l-11 49h17q18 0 52 -2t46 -2h262q12 0 46 2t52 2h17l-10 -49h-15q-46 -5 -62 -23t-16 -75v-256l400 401h250q12 0 46 2t52 2h18l-12 -49q-8 2 -14 0q-68 -8 -158 -98l-408 -404l504 -508q67 -65 87.5 -80 t47.5 -18h15l12 -49h-18q-18 0 -53 2t-46 2h-284l-439 455v-312q0 -57 16 -75t62 -23h15l10 -49h-17q-18 0 -52 2t-46 2h-262q-12 0 -46 -2t-52 -2h-17zM649 1391l185 192h340l-351 -192h-174z"/>
<glyph unicode="ў" horiz-adv-x="1679" d="M86 1028l35 19q41 20 170 127q17 13 59 44t73.5 56t49.5 43l23 22l16 -51l-18 -16q-23 -17 -30.5 -29t-3 -30t26.5 -46l379 -497l320 501q30 48 29 65.5t-33 41.5l-15 10l15 51q29 -20 96.5 -71t105.5 -74q46 -28 116 -67.5t73 -41.5l26 -16l-40 -33q-13 5 -21 11 q-33 19 -52.5 12.5t-49.5 -49.5l-672 -1010q-22 -32 -25.5 -54.5t6 -36.5t33.5 -34l15 -8l-17 -49l-14 12q-16 9 -44.5 30t-37.5 27l-221 136q-12 7 -45 25t-41 22l-15 12l37 35q7 -4 11 -8q39 -20 62 -11.5t56 56.5l174 256l-448 553q-23 27 -29.5 34t-19 15t-21.5 6 t-28 -8l-25 -19zM575 1532l166 104l164 -133l203 117l70 -64l-365 -210z"/>
<glyph unicode="џ" horiz-adv-x="1525" d="M225 -4l11 49h16q45 5 60.5 23t15.5 75v910q0 57 -15.5 75t-60.5 23h-16l-11 49h19q18 0 52 -2t46 -2h260q12 0 46 2t52 2h19l-12 -49h-15q-46 -5 -62 -23t-16 -75v-787h297v787q0 57 -16 75t-61 23h-15l-10 49h16q17 0 52 -2t47 -2h262q12 0 46 2t52 2h16l-10 -49h-14 q-46 -5 -62 -23t-16 -75v-910q0 -57 16 -75t62 -23h14l10 -49h-16q-18 0 -52 2t-46 2h-285v-98l-274 -281l-2 379h-283q-12 0 -46 -2t-52 -2h-19z"/>
<glyph unicode="Ґ" horiz-adv-x="1306" d="M256 -6l10 49h15q45 5 60 22t15 74v1057h525v125l280 285v-674h-518v-791q0 -57 17 -75t63 -23h14l11 -49h-17q-17 0 -52 2t-46 2h-262q-11 0 -46 -2t-53 -2h-16z"/>
<glyph unicode="ґ" horiz-adv-x="1294" d="M272 -6l11 49h14q46 5 61 22t15 74v1057h524v125l281 285v-674h-519v-791q0 -57 17 -75t63 -23h15l10 -49h-16q-18 0 -53 2t-46 2h-262q-11 0 -46 -2t-52 -2h-17z"/>
<glyph unicode=" " horiz-adv-x="870"/>
<glyph unicode=" " horiz-adv-x="1741"/>
<glyph unicode=" " horiz-adv-x="870"/>
<glyph unicode=" " horiz-adv-x="1741"/>
<glyph unicode=" " horiz-adv-x="580"/>
<glyph unicode=" " horiz-adv-x="435"/>
<glyph unicode=" " horiz-adv-x="290"/>
<glyph unicode=" " horiz-adv-x="290"/>
<glyph unicode=" " horiz-adv-x="217"/>
<glyph unicode=" " horiz-adv-x="348"/>
<glyph unicode=" " horiz-adv-x="96"/>
<glyph unicode="‐" horiz-adv-x="1124" d="M279 412v18q0 18 2 52t2 46v195q0 11 -2 46t-2 52v19l49 -13v-14q5 -45 24 -61.5t76 -16.5h268q58 0 77 16.5t24 61.5v14l49 13v-19q0 -17 -3 -52t-3 -46v-195q0 -12 3 -46t3 -52v-18l-49 10v16q-5 45 -24 60.5t-77 15.5h-268q-58 0 -76.5 -15.5t-23.5 -60.5v-16z"/>
<glyph unicode="‑" horiz-adv-x="1124" d="M279 412v18q0 18 2 52t2 46v195q0 11 -2 46t-2 52v19l49 -13v-14q5 -45 24 -61.5t76 -16.5h268q58 0 77 16.5t24 61.5v14l49 13v-19q0 -17 -3 -52t-3 -46v-195q0 -12 3 -46t3 -52v-18l-49 10v16q-5 45 -24 60.5t-77 15.5h-268q-58 0 -76.5 -15.5t-23.5 -60.5v-16z"/>
<glyph unicode="‒" horiz-adv-x="1124" d="M279 412v18q0 18 2 52t2 46v195q0 11 -2 46t-2 52v19l49 -13v-14q5 -45 24 -61.5t76 -16.5h268q58 0 77 16.5t24 61.5v14l49 13v-19q0 -17 -3 -52t-3 -46v-195q0 -12 3 -46t3 -52v-18l-49 10v16q-5 45 -24 60.5t-77 15.5h-268q-58 0 -76.5 -15.5t-23.5 -60.5v-16z"/>
<glyph unicode="–" horiz-adv-x="983" d="M115 412v18q0 18 2 52t2 46v195q0 11 -2 46t-2 52v19l49 -13v-14q5 -45 24 -61.5t76 -16.5h455q57 0 76 16.5t24 61.5v14l49 13v-19q0 -17 -2 -52t-2 -46v-195q0 -12 2 -46t2 -52v-18l-49 10v16q-5 45 -23.5 60.5t-76.5 15.5h-455q-58 0 -76.5 -15.5t-23.5 -60.5v-16z "/>
<glyph unicode="—" horiz-adv-x="1638" d="M33 412v18q0 18 2 52t2 46v195q0 11 -2 46t-2 52v19l49 -13v-14q5 -45 24 -61.5t76 -16.5h1274q57 0 76 16.5t24 61.5v14l50 13v-19q0 -17 -2 -52t-2 -46v-195q0 -12 2 -46t2 -52v-18l-50 10v16q-5 45 -23.5 60.5t-76.5 15.5h-1274q-58 0 -76.5 -15.5t-23.5 -60.5v-16z "/>
<glyph unicode="‘" horiz-adv-x="655" d="M127 954l305 306l57 -58l-124 -125l139 -139l-180 -180z"/>
<glyph unicode="’" horiz-adv-x="655" d="M164 1081l180 181l197 -197l-308 -307l-57 57l127 127z"/>
<glyph unicode="‚" horiz-adv-x="655" d="M131 141l180 181l197 -197l-307 -307l-58 57l127 127z"/>
<glyph unicode="“" horiz-adv-x="1093" d="M111 954l307 306l57 -58l-127 -125l139 -139l-180 -180zM551 954l305 306l57 -58l-125 -125l140 -139l-180 -180z"/>
<glyph unicode="”" horiz-adv-x="1093" d="M147 1081l181 181l196 -197l-307 -307l-57 57l127 127zM586 1081l180 181l197 -197l-306 -307l-57 57l125 127z"/>
<glyph unicode="„" horiz-adv-x="1093" d="M131 141l180 181l197 -197l-307 -307l-58 57l127 127zM569 141l181 181l196 -197l-305 -307l-57 57l125 127z"/>
<glyph unicode="†" horiz-adv-x="1103" d="M180 571v19q0 18 2 52t2 46v258q0 12 -2 46t-2 52v19l49 -10v-17q5 -44 24 -59.5t77 -15.5h98v77q0 58 -16.5 77t-61.5 24h-14l-12 49h18q18 0 52.5 -2t45.5 -2h260q12 0 47 2t52 2h18l-10 -49h-16q-45 -5 -60.5 -24t-15.5 -77v-77h98q58 0 76 15t24 60v17l50 10v-19 q0 -18 -3.5 -52t-3.5 -46v-258q0 -12 3.5 -46t3.5 -52v-19l-50 13v14q-6 46 -24.5 62t-75.5 16h-98v-754l51 -53l-197 -197l-196 197l55 53v754h-98q-58 0 -77 -16.5t-24 -61.5v-14z"/>
<glyph unicode="‡" horiz-adv-x="1103" d="M180 29v16q0 17 2 52t2 46v244q0 11 -2 46t-2 52v19l49 -12v-15q5 -45 24 -61.5t77 -16.5h98v293h-98q-58 0 -77 -16.5t-24 -61.5v-14l-49 -12v18q0 18 2 53t2 46v241q0 12 -2 46t-2 52v19l49 -10v-17q5 -44 24 -59.5t77 -15.5h98v77q0 58 -16.5 77t-61.5 24h-14l-12 49 h18q18 0 52.5 -2t45.5 -2h260q12 0 47 2t52 2h18l-10 -49h-16q-45 -5 -60.5 -24t-15.5 -77v-77h98q58 0 76 15t24 60v17l50 10v-19q0 -18 -3.5 -52t-3.5 -46v-241q0 -11 3.5 -46t3.5 -53v-18l-50 12v14q-6 46 -24.5 62t-75.5 16h-98v-293h98q57 0 75.5 16t24.5 62v15l50 12 v-19q0 -17 -3.5 -52t-3.5 -46v-244q0 -11 3.5 -46t3.5 -52v-16l-50 10v14q-6 46 -24.5 62t-75.5 16h-98v-209l51 -53l-197 -197l-196 197l55 53v209h-98q-58 0 -77 -16.5t-24 -61.5v-14z"/>
<glyph unicode="•" horiz-adv-x="1015" d="M213 592q0 122 86.5 208.5t206.5 86.5q123 0 210 -86t87 -209q0 -122 -87 -208.5t-210 -86.5q-120 0 -206.5 87t-86.5 208z"/>
<glyph unicode="…" horiz-adv-x="1966" d="M131 141l197 197l196 -197l-196 -196zM786 141l197 197l197 -197l-197 -196zM1442 141l196 197l197 -197l-197 -196z"/>
<glyph unicode=" " horiz-adv-x="348"/>
<glyph unicode="‰" horiz-adv-x="2230" d="M109 901q0 129 91 221t220 92t221 -92t92 -221t-92 -220t-221 -91t-220 91t-91 220zM248 901q0 -45 24 -82l230 232q-39 22 -82 22q-70 0 -121 -50.5t-51 -121.5zM334 0l729 1196h141l-729 -1196h-141zM338 754q41 -23 82 -23q71 0 121.5 50t50.5 120q0 43 -23 84z M805 295q0 129 91 220t220 91t221.5 -91t92.5 -220t-92.5 -221t-221.5 -92t-220 92t-91 221zM946 295q0 -48 23 -84l231 231q-44 23 -84 23q-69 0 -119.5 -50t-50.5 -120zM1034 145q39 -22 82 -22q72 0 122 50.5t50 121.5q0 40 -20 82zM1495 295q0 129 92 220t221 91 t221.5 -91t92.5 -220t-92.5 -221t-221.5 -92t-221 92t-92 221zM1638 295q0 -46 21 -84l233 231q-44 23 -84 23q-70 0 -120 -49.5t-50 -120.5zM1726 145q36 -22 82 -22q70 0 121 50.5t51 121.5q0 40 -20 82z"/>
<glyph unicode="‹" horiz-adv-x="901" d="M213 598l246 246q41 39 42.5 66t-26.5 59l-10 10l18 35l13 -10q12 -12 35 -39t32 -35l101 -103q9 -9 35.5 -32t37.5 -33l13 -12l-37 -21q-6 6 -8 12q-33 27 -59.5 25t-67.5 -41l-125 -127l125 -125q41 -41 67.5 -42.5t59.5 26.5l8 12l37 -23l-13 -10q-9 -8 -25.5 -22.5 t-28.5 -25.5t-19 -19l-101 -101q-7 -7 -30 -33.5t-37 -39.5l-13 -13l-18 35q4 8 10 12q28 32 26.5 58t-42.5 67z"/>
<glyph unicode="›" horiz-adv-x="901" d="M188 446l37 23q6 -6 8 -12q33 -28 59.5 -26.5t67.5 42.5l125 125l-125 127q-41 39 -67.5 41t-59.5 -25l-8 -12l-37 21l13 12q11 10 37.5 33t35.5 32l101 103q9 8 32 35t35 39l13 10l18 -35q-4 -6 -10 -10q-28 -32 -26.5 -59t42.5 -66l246 -246l-246 -244 q-41 -41 -42.5 -67t26.5 -58l10 -12l-18 -35l-13 13q-14 13 -37.5 39.5t-29.5 33.5l-101 101q-7 8 -19 19t-28.5 25.5t-25.5 22.5z"/>
<glyph unicode="⁄" horiz-adv-x="1011" d="M55 -229l713 1527l143 54l52 -144l-713 -1523l-141 -56z"/>
<glyph unicode=" " horiz-adv-x="435"/>
<glyph unicode="€" horiz-adv-x="1523" d="M135 397v148h162q-2 16 -2 53t2 53h-162v148h193q64 189 228 308.5t368 119.5q211 0 385 -131q0 -39 3 -177t3 -194h-49q-17 88 -113.5 163t-228.5 75q-93 0 -174 -44.5t-132 -119.5h435v-148h-492q0 -8 -1 -26t-1 -27t1 -27t1 -26h492v-148h-435q51 -75 132 -119.5 t174 -44.5q135 0 231.5 71t110.5 165h49l-6 -367q-165 -133 -385 -133q-204 0 -368 119.5t-228 308.5h-193z"/>
<glyph unicode="™" horiz-adv-x="2068" d="M166 973v26q0 9 1 28t1 26v121q0 6 -1 26t-1 29v24l49 -8v-18q2 -19 10 -25t33 -6h508q24 0 30.5 6t8.5 25v18l51 8v-24q0 -9 -2 -29t-2 -26v-121q0 -7 2 -26t2 -28v-26l-51 10v18q-2 19 -9.5 25t-31.5 6h-162v-430q0 -25 6 -33t23 -10h18l15 -49h-29q-9 0 -28 1t-25 1 h-144q-6 0 -25 -1t-28 -1h-27l11 49h18q19 2 25 10t6 33v430h-160q-26 0 -34 -5t-9 -23v-21zM961 510l14 49h16q18 2 24.5 10.5t6.5 32.5v506q0 23 -6.5 31t-24.5 10h-18l-10 51h24q9 0 29 -2t26 -2h762q5 0 24.5 2t29.5 2h26l-12 -51h-17q-19 -2 -25.5 -10t-6.5 -31v-506 q0 -24 6 -32.5t24 -10.5h19l14 -49h-28q-10 0 -29.5 1t-24.5 1h-141q-5 0 -25 -1t-28 -1h-25l14 49h13q18 2 24 10.5t6 32.5v414h-126v-414q0 -25 5.5 -33.5t22.5 -9.5h15l14 -49h-23q-10 0 -29 1t-26 1h-141q-5 0 -24.5 -1t-29.5 -1h-24l16 49h13q18 2 24 10.5t6 32.5v414 h-133v-414q0 -25 6 -33t25 -10h12l17 -49h-25q-10 0 -29 1t-24 1h-142q-6 0 -26 -1t-29 -1h-26z"/>
<glyph unicode="∂" horiz-adv-x="1232" d="M233 356q0 144 93.5 251.5t234.5 129.5l-145 322q-17 38 -47 66t-70 34h-16l-11 49h19q17 0 110 -3t109 -3l158 -2l270 -604q43 -98 55.5 -142t12.5 -98q0 -160 -114 -273.5t-274 -113.5t-272.5 113.5t-112.5 273.5zM496 356q0 -51 36 -87t86 -36q51 0 87 36t36 87 q0 50 -36 86.5t-87 36.5q-49 0 -85.5 -36.5t-36.5 -86.5z"/>
<glyph unicode="" horiz-adv-x="1320" d="M0 0v1321h1321v-1321h-1321z"/>
<glyph unicode="ﬁ" horiz-adv-x="2111" d="M229 373v16q0 17 2 52t2 46v222q0 11 -2 46t-2 52v18l50 -10v-16q5 -43 22.5 -59t71.5 -17v473h1366q11 0 46 2t52 2h18l-12 -49h-14q-46 -5 -62 -23t-16 -75v-910q0 -57 16 -75t62 -23h14l12 -49h-18q-17 0 -52 2t-46 2h-260q-11 0 -46 -2t-53 -2h-18l10 49h17 q45 5 60 22.5t15 75.5v789h-805v-209h316q54 0 74.5 15.5t25.5 43.5v17l49 10v-18q0 -17 -3 -52t-3 -47v-205q0 -11 3 -37t3 -44v-17l-49 10q2 9 0 15q-5 33 -24.5 47t-75.5 14h-316v-397l-286 -285v682q-54 -1 -71.5 -17t-22.5 -61v-14z"/>
<glyph unicode="ﬂ" horiz-adv-x="2365" d="M229 373v16q0 17 2 52t2 46v222q0 11 -2 46t-2 52v18l50 -10v-16q5 -43 22.5 -59t71.5 -17v473h1366q11 0 46 2t52 2h18l-12 -49h-14q-46 -5 -62 -23t-16 -75v-766h317q59 0 77.5 16.5t23.5 61.5v14l49 10v-16q0 -17 -2 -52t-2 -47v-262q0 -12 2 -46t2 -52v-16l-49 10v14 q-5 45 -23.5 61.5t-77.5 16.5h-374l-230 -207v1139h-805v-209h316q54 0 74.5 15.5t25.5 43.5v17l49 10v-18q0 -17 -3 -52t-3 -47v-205q0 -11 3 -37t3 -44v-17l-49 10q2 9 0 15q-5 33 -24.5 47t-75.5 14h-316v-397l-286 -285v682q-54 -1 -71.5 -17t-22.5 -61v-14z"/>
</font>
</defs>
</svg>
